<?xml version="1.0" encoding="UTF-8"?>
<svg id="Layer_1" data-name="Layer 1" xmlns="http://www.w3.org/2000/svg" viewBox="0 0 90 90">
  <defs>
    <style>
      .cls-1 {
        fill: #dea179;
      }
    </style>
  </defs>
  <g id="save_water" data-name="save water">
    <g>
      <path class="cls-1" d="m36.1,90c-1.38,0-2.76-.21-4.11-.61l-23.56-7.22c-.63-.2-1.07-.78-1.07-1.44v-20.34c0-.82.67-1.5,1.5-1.5h8.66l9.22-6.14c1.87-1.25,4.14-1.77,6.37-1.47l10.74,1.47c1.71.24,3.21,1.22,4.11,2.7s1.08,3.25.5,4.89c-.54,1.57-1.77,2.83-3.37,3.42l-9.24,3.45,5.95,4.77,33.02-12.1c1.5-.55,3.12-.47,4.56.25,1.44.71,2.5,1.95,2.99,3.48.18.58.27,1.17.27,1.74,0,2.22-1.29,4.27-3.28,5.25l-37.14,18c-1.93.92-4.02,1.4-6.1,1.4h0Zm-25.72-10.38l22.5,6.89c2.66.81,5.51.6,8.01-.61l37.14-18c.96-.47,1.59-1.47,1.59-2.55,0-.27-.04-.57-.14-.85-.23-.72-.74-1.32-1.44-1.67-.69-.34-1.47-.39-2.19-.12l-33.81,12.41c-.49.18-1.05.09-1.45-.24l-8.68-6.96c-.42-.34-.63-.87-.54-1.41s.45-.99.96-1.17l11.73-4.38c.75-.28,1.33-.87,1.59-1.6.28-.79.2-1.64-.23-2.32-.42-.71-1.14-1.17-1.94-1.27l-10.74-1.47c-1.5-.21-3.03.15-4.29.99l-9.61,6.39c-.24.17-.54.25-.84.25h-7.62v17.71Z"/>
      <path class="cls-1" d="m59.38,51.21c-12.1,0-21.96-9.85-21.96-21.97C37.42,13.56,57.72.77,58.59.23c.5-.3,1.09-.3,1.59,0,.87.54,21.17,13.34,21.17,29.01,0,12.12-9.85,21.97-21.96,21.97h0Zm0-47.91c-3.69,2.49-18.95,13.56-18.95,25.94,0,10.45,8.5,18.96,18.95,18.96s18.95-8.51,18.95-18.96c0-12.37-15.25-23.45-18.95-25.94h0Z"/>
      <path class="cls-1" d="m59.38,43.68c-.82,0-1.5-.68-1.5-1.5s.68-1.5,1.5-1.5c6.3,0,11.43-5.13,11.43-11.45,0-.82.68-1.5,1.5-1.5s1.5.68,1.5,1.5c0,7.96-6.47,14.45-14.43,14.45Z"/>
    </g>
  </g>
</svg>