<?xml version="1.0" encoding="UTF-8"?>
<svg id="Layer_1" data-name="Layer 1" xmlns="http://www.w3.org/2000/svg" viewBox="0 0 90 90">
  <defs>
    <style>
      .cls-1 {
        fill: none;
        stroke: #dea179;
        stroke-linecap: round;
        stroke-linejoin: round;
        stroke-width: 2.54px;
      }
    </style>
  </defs>
  <line class="cls-1" x1="87" y1="73.45" x2="3" y2="73.45"/>
  <path class="cls-1" d="m73.45,68.03h-31.16c-.75,0-1.35.61-1.35,1.35v4.06"/>
  <path class="cls-1" d="m84.29,73.45v-4.06c0-.75-.61-1.35-1.35-1.35h-4.06"/>
  <line class="cls-1" x1="81.58" y1="21.97" x2="81.58" y2="68.03"/>
  <line class="cls-1" x1="43.65" y1="50.42" x2="43.65" y2="21.97"/>
  <line class="cls-1" x1="43.65" y1="68.03" x2="43.65" y2="55.84"/>
  <path class="cls-1" d="m42.29,21.97h40.65c.75,0,1.35-.61,1.35-1.35v-2.71c0-.75-.61-1.35-1.35-1.35h-40.65c-.75,0-1.35.61-1.35,1.35v2.71c0,.75.61,1.35,1.35,1.35Z"/>
  <line class="cls-1" x1="49.06" y1="55.84" x2="49.06" y2="68.03"/>
  <path class="cls-1" d="m57.19,68.03v-20.32c0-.75-.61-1.35-1.35-1.35h-5.42c-.75,0-1.35.61-1.35,1.35v2.71"/>
  <path class="cls-1" d="m55.84,46.35v-2.71c0-1.5-1.21-2.71-2.71-2.71h0c-1.5,0-2.71,1.21-2.71,2.71v2.71"/>
  <path class="cls-1" d="m4.35,55.84h44.71c1.5,0,2.71-1.21,2.71-2.71h0c0-1.5-1.21-2.71-2.71-2.71H4.35c-.75,0-1.35.61-1.35,1.35v2.71c0,.75.61,1.35,1.35,1.35Z"/>
  <line class="cls-1" x1="30.1" y1="50.42" x2="24.68" y2="55.84"/>
  <line class="cls-1" x1="46.35" y1="50.42" x2="40.94" y2="55.84"/>
  <line class="cls-1" x1="38.23" y1="50.42" x2="32.81" y2="55.84"/>
  <line class="cls-1" x1="21.97" y1="50.42" x2="16.55" y2="55.84"/>
  <line class="cls-1" x1="13.84" y1="50.42" x2="8.42" y2="55.84"/>
  <polyline class="cls-1" points="49.06 36.13 49.06 27.39 76.16 27.39 76.16 49.06 62.61 49.06"/>
</svg>