<?xml version="1.0" encoding="UTF-8"?>
<svg id="Layer_1" data-name="Layer 1" xmlns="http://www.w3.org/2000/svg" viewBox="0 0 90 90">
  <defs>
    <style>
      .cls-1 {
        fill: #dea179;
      }
    </style>
  </defs>
  <g id="_24_Architecture_plan" data-name=" 24 Architecture plan">
    <g>
      <path class="cls-1" d="m80.16,50.62c-.78,0-1.41.63-1.41,1.41v25.31c0,5.44-4.41,9.84-9.84,9.84s-9.84-4.41-9.84-9.84c0-.78-.63-1.41-1.41-1.41H14.06V2.81h64.69v29.53c0,.78.63,1.41,1.41,1.41s1.41-.63,1.41-1.41V1.41c0-.78-.63-1.41-1.41-1.41H12.66c-.78,0-1.41.63-1.41,1.41v74.53H1.41c-.78,0-1.41.63-1.41,1.41,0,6.99,5.67,12.65,12.66,12.66h56.25c6.99,0,12.65-5.67,12.66-12.66v-25.31c0-.78-.63-1.41-1.41-1.41ZM12.66,87.19c-4.89,0-9.04-3.6-9.74-8.44h53.42c.37,3.31,2.04,6.35,4.64,8.44H12.66Z"/>
      <path class="cls-1" d="m53.44,33.75c.78,0,1.41-.63,1.41-1.41v-8.83l1.96,1.5c.62.47,1.5.36,1.97-.26.47-.62.36-1.5-.26-1.97l-18.28-14.06c-.51-.39-1.21-.39-1.71,0l-18.28,14.06c-.61.48-.71,1.37-.23,1.98.47.59,1.33.71,1.94.25l17.43-13.41,12.66,9.74v10.99c0,.78.63,1.41,1.41,1.41Z"/>
      <path class="cls-1" d="m45,45h-8.44v-8.44h5.51v4.22c0,.78.63,1.41,1.41,1.41s1.41-.63,1.41-1.41v-5.62c0-.78-.63-1.41-1.41-1.41h-8.32c-.78,0-1.41.63-1.41,1.41v9.84h-7.03v-18.28c0-.78-.63-1.41-1.41-1.41s-1.41.63-1.41,1.41v19.69c0,.78.63,1.41,1.41,1.41h19.69c.78,0,1.41-.63,1.41-1.41s-.63-1.41-1.41-1.41Z"/>
      <path class="cls-1" d="m21.09,53.44c-.78,0-1.41.63-1.41,1.41v14.06c0,.78.63,1.41,1.41,1.41h47.81c.78,0,1.41-.63,1.41-1.41v-14.06c0-.78-.63-1.41-1.41-1.41H21.09Zm46.41,14.06H22.5v-11.25h4.22v4.22c0,.78.63,1.41,1.41,1.41s1.41-.63,1.41-1.41v-4.22h5.62v4.22c0,.78.63,1.41,1.41,1.41s1.41-.63,1.41-1.41v-4.22h5.62v4.22c0,.78.63,1.41,1.41,1.41s1.41-.63,1.41-1.41v-4.22h5.62v4.22c0,.78.63,1.41,1.41,1.41s1.41-.63,1.41-1.41v-4.22h5.62v4.22c0,.78.63,1.41,1.41,1.41s1.41-.63,1.41-1.41v-4.22h4.22v11.25Z"/>
      <path class="cls-1" d="m84.38,36.56h-29.53c-.3,0-.6.1-.84.28l-5.62,4.22c-.62.47-.75,1.35-.28,1.97.08.11.17.2.28.28l5.62,4.22c.24.18.54.28.84.28h29.53c3.11,0,5.62-2.52,5.62-5.62s-2.52-5.62-5.62-5.62h0Zm0,8.44h-29.06l-3.75-2.81,3.75-2.81h29.06c1.55,0,2.81,1.26,2.81,2.81s-1.26,2.81-2.81,2.81Z"/>
    </g>
  </g>
</svg>