<?xml version="1.0" encoding="UTF-8"?>
<svg id="Layer_1" data-name="Layer 1" xmlns="http://www.w3.org/2000/svg" viewBox="0 0 90 90">
  <defs>
    <style>
      .cls-1 {
        stroke-dasharray: 0 0 3.52 7.03;
      }

      .cls-1, .cls-2 {
        fill: none;
        stroke: #dea179;
        stroke-linecap: round;
        stroke-linejoin: round;
        stroke-width: 2.64px;
      }
    </style>
  </defs>
  <g id="g757">
    <g id="g763">
      <path id="path765" class="cls-2" d="m24.93,19.79c-1.07-.88-2-1.88-2.72-3.03-3.85-6.13,1.6-11.45,8.52-15.46h13.07c-1.7,1.7-7.59,4.77-6.75,8.47.4,1.74,2.13,2.83,3.28,3.53.91.56,1.86,1.02,2.83,1.43,9.04,3.79,18.76,5.43,27.33,10.67,5.85,3.58,10.22,9.07,11.58,16.35.94,5.04.43,10.24-.59,15.29l-.02.09"/>
    </g>
    <g id="g767">
      <path id="path769" class="cls-2" d="m80.05,63.08c-.36,1.4-.74,2.78-1.09,4.13-1.97,7.39-4.35,14.37-6.66,21.5H10.77c.87-1.37,16.77-20.66,23.54-28.33,3.55-4.03,12.16-14.57,10.71-22.74-1.49-8.43-8.61-11.24-14.79-14.49l-.11-.06"/>
    </g>
    <g id="g771">
      <path id="path773" class="cls-2" d="m43.79,1.29h6.79s-6.42,4.89-7.49,6.1c-1.31,1.49.72,2.41,1.96,2.88,2.45.93,4.95,1.63,7.42,2.48,2.69.92,5.36,1.87,8.02,2.86,1.66.62,3.32,1.25,4.95,1.92,3.23,1.32,6.4,2.82,9.33,4.72,2.09,1.36,4.07,2.93,5.83,4.77,3.9,4.06,6.27,9.38,7.35,15.1,1.6,8.53.15,17.4-1.97,25.33-1.97,7.39-3.87,14.12-6.18,21.25h-7.51"/>
    </g>
    <g id="g775">
      <path id="path777" class="cls-2" d="m30.72,1.29h-7.22c-5.44,3.16-9.41,9.94-6.41,16.7,2.46,5.54,8.44,8.01,13,10.98,2.53,1.65,5.28,3.1,7.38,5.41,1.93,2.12,2.45,4.83,1.67,7.65-1.95,7.09-8.25,13.14-12.84,18.34-6.77,7.67-24.08,26.97-24.95,28.33h10.47"/>
    </g>
    <g id="g779">
      <path id="path781" class="cls-1" d="m32.19,6.8c-2.26,1.75-3.08,6.22-1.21,8.5,1.74,2.13,4.68,3.07,7.06,4.25,3.4,1.67,6.72,3.45,10.11,5.17,2.42,1.23,4.65,2.74,7.09,3.99,5.42,2.78,9.48,8.73,9.38,14.91-.11,7.39-4.56,13.6-8.03,19.88-3.54,6.43-11.2,19.32-14.96,25.2"/>
    </g>
  </g>
</svg>