<?xml version="1.0" encoding="UTF-8"?>
<svg id="Layer_1" data-name="Layer 1" xmlns="http://www.w3.org/2000/svg" viewBox="0 0 90 90">
  <defs>
    <style>
      .cls-1 {
        fill: #dea179;
      }
    </style>
  </defs>
  <g id="Page-1">
    <g id="_042---Education" data-name="042---Education">
      <path id="Shape" class="cls-1" d="m87.39,24.53L48.29,6.7c-2.09-.95-4.49-.95-6.58,0L2.61,24.53c-1.58.68-2.61,2.24-2.61,3.96s1.02,3.28,2.61,3.96l12.39,5.65v20.39c0,3.45,2.24,6.57,6,9.08v4.64c-2.93.76-4.83,3.57-4.45,6.57s2.93,5.24,5.95,5.24,5.57-2.25,5.95-5.24-1.53-5.81-4.45-6.57v-2.91c6.61,2.93,13.78,4.36,21,4.2,16.82,0,30-6.59,30-15v-20.39l12.39-5.65c1.58-.68,2.61-2.24,2.61-3.96s-1.02-3.28-2.61-3.96h0Zm-61.89,53.46c0,1.66-1.34,3-3,3s-3-1.34-3-3,1.34-3,3-3,3,1.34,3,3Zm-7.5-19.5v-19.02l3,1.37v23.03c-1.74-1.26-2.84-3.23-3-5.38Zm54,0c0,6.51-12.36,12-27,12-8.38,0-16-1.8-21-4.57v-23.72l17.71,8.07c2.09.95,4.49.95,6.58,0l23.71-10.81v19.02h0Zm14.15-28.77l-39.1,17.83c-1.3.58-2.79.58-4.09,0l-16.99-7.75,13.23-6.7c1.79.94,3.79,1.42,5.81,1.38,5.05,0,9-2.64,9-6s-3.95-6-9-6-9,2.64-9,6c0,.88.28,1.74.78,2.47l-14.31,7.24L3.85,29.72c-.51-.19-.85-.68-.85-1.23s.34-1.04.85-1.23L42.95,9.43c1.3-.58,2.79-.58,4.09,0l39.1,17.83c.51.19.85.68.85,1.23s-.34,1.04-.85,1.23h0Zm-47.15-1.23c0-1.42,2.56-3,6-3s6,1.58,6,3-2.56,3-6,3-6-1.58-6-3Z"/>
    </g>
  </g>
</svg>