<?xml version="1.0" encoding="UTF-8"?>
<svg id="Layer_1" data-name="Layer 1" xmlns="http://www.w3.org/2000/svg" viewBox="0 0 90 90">
  <defs>
    <style>
      .cls-1 {
        fill: #dea179;
      }
    </style>
  </defs>
  <path class="cls-1" d="m88.07,86.59h-2.97c-.82,0-1.49.66-1.49,1.49s.66,1.49,1.49,1.49h2.97c.82,0,1.49-.66,1.49-1.49s-.66-1.49-1.49-1.49Z"/>
  <path class="cls-1" d="m79.16,86.59h-23.76v-1.49c0-2.46-2-4.45-4.46-4.46v-32.68c0-1.06-.57-2.03-1.49-2.56v-19.72c0-1.88-1.2-3.56-2.97-4.18v-12.16c0-3.28,2.66-5.94,5.94-5.94h8.91v7.43c0,2.46,2,4.45,4.46,4.46h8.91c2.46,0,4.45-2,4.46-4.46v-5.94c0-2.46-2-4.45-4.46-4.46h-22.28c-4.92,0-8.91,3.99-8.91,8.91v12.16c-1.78.63-2.96,2.3-2.97,4.18v19.72c-.92.53-1.48,1.5-1.49,2.56v32.68c-2.46,0-4.45,2-4.46,4.46v1.49H1.93c-.82,0-1.49.66-1.49,1.49s.66,1.49,1.49,1.49h77.24c.82,0,1.49-.66,1.49-1.49s-.66-1.49-1.49-1.49ZM64.31,3.41h10.4c.82,0,1.48.67,1.49,1.49v1.49h-11.88v-2.97h0Zm0,5.94h11.88v1.49c0,.82-.67,1.48-1.49,1.49h-8.91c-.82,0-1.48-.67-1.49-1.49v-1.49h0Zm-20.79,16.34c0-.82.66-1.49,1.49-1.49s1.49.66,1.49,1.49v19.31h-2.97v-19.31h0Zm-1.49,22.28h5.94v4.46h-5.94v-4.46h0Zm0,7.43h5.94v25.25h-5.94v-25.25h0Zm10.4,31.19h-14.85v-1.49c0-.82.67-1.48,1.49-1.49h11.88c.82,0,1.48.67,1.49,1.49v1.49h0Z"/>
  <path class="cls-1" d="m61.34,16.78c0-.39-.16-.77-.44-1.05-.28-.28-.66-.44-1.05-.44s-.77.16-1.05.44l-4.46,4.46c-.38.37-.53.92-.39,1.44.14.51.54.92,1.05,1.05s1.06-.01,1.44-.39l4.46-4.46c.28-.28.44-.66.44-1.05Z"/>
  <path class="cls-1" d="m84.05,22.29c.28.28.66.44,1.05.44.6,0,1.14-.36,1.37-.92.23-.55.1-1.19-.32-1.62l-4.46-4.46c-.58-.57-1.51-.57-2.09,0s-.58,1.51,0,2.09l4.46,4.46Z"/>
  <path class="cls-1" d="m60.67,27.02c.73.37,1.63.07,1.99-.66l2.97-5.94c.24-.47.21-1.04-.09-1.49-.29-.44-.8-.7-1.33-.67s-1,.35-1.24.82l-2.97,5.94c-.18.35-.21.76-.08,1.13.12.37.39.68.74.86Z"/>
  <path class="cls-1" d="m68.76,19.75v5.94c0,.82.67,1.49,1.49,1.49s1.49-.67,1.49-1.49v-5.94c0-.82-.66-1.49-1.49-1.49s-1.49.67-1.49,1.49Z"/>
  <path class="cls-1" d="m76.66,18.34c-.37-.12-.78-.1-1.13.08s-.62.49-.74.86c-.12.37-.1.78.08,1.13l2.97,5.94c.37.73,1.26,1.03,1.99.66s1.03-1.26.67-1.99l-2.97-5.94c-.18-.35-.49-.62-.86-.74Z"/>
</svg>