<?xml version="1.0" encoding="UTF-8"?>
<svg id="Layer_1" data-name="Layer 1" xmlns="http://www.w3.org/2000/svg" viewBox="0 0 90 90">
  <defs>
    <style>
      .cls-1 {
        fill: #dea179;
      }
    </style>
  </defs>
  <path class="cls-1" d="m88.45,74.87h-2.33v-.54c0-4.34-3.49-7.84-7.84-7.84-.23,0-.47,0-.7.08-.39-1.01-.85-1.86-1.4-2.72,6.13-.85,10.78-6.05,10.78-12.41,0-13.42-4.42-39.41-12.49-39.41-3.96,0-6.98,6.21-9.15,14.12l-12.8-7.99c-.47-.31-1.09-.31-1.63,0l-20.79,12.49-5.82-3.34c-.47-.31-1.09-.31-1.55,0L.78,40.19c-.78.47-1.01,1.4-.54,2.09.47.78,1.4,1.01,2.09.54l4.65-2.72v34.76H1.56c-.85,0-1.55.7-1.55,1.55s.7,1.55,1.55,1.55h86.89c.85,0,1.55-.7,1.55-1.55s-.7-1.55-1.55-1.55h0Zm-10.09-5.28c2.56,0,4.73,2.09,4.73,4.73v.54h-24.21c1.16-2.09,1.78-4.42,1.78-6.83,0-1.55-.23-3.03-.7-4.42,1.71-1.4,3.72-2.09,5.9-2.09,3.96,0,7.37,2.41,8.77,5.97-.62.39-1.24.78-1.78,1.32-.62.62-.62,1.55,0,2.17.31.31.7.47,1.09.47s.78-.16,1.09-.47c1.32-1.16,2.87-1.4,3.34-1.4Zm-3.88-54.46c1.09,0,3.72,2.56,6.28,12.41,1.94,7.45,3.18,16.84,3.18,23.97,0,4.65-3.41,8.53-7.84,9.31v-12.49l5.74-5.74c.62-.62.62-1.55,0-2.17s-1.55-.62-2.17,0l-3.57,3.57v-10.24c0-.85-.7-1.55-1.55-1.55s-1.55.7-1.55,1.55v15.59l-3.57-3.57c-.62-.62-1.55-.62-2.17,0-.62.62-.62,1.55,0,2.17l5.74,5.74v6.75c-1.32-.93-2.87-1.63-4.58-1.94-2.02-1.71-3.34-4.27-3.34-7.14,0-7.14,1.24-16.52,3.18-23.97,2.48-9.7,5.2-12.26,6.21-12.26h0Zm-22.73,6.13l12.88,7.99c-1.71,7.6-2.64,16.14-2.64,22.19,0,2.64.85,5.04,2.17,6.98-2.02.31-3.96,1.01-5.59,2.25-2.48-4.03-6.9-6.75-12.03-6.75-2.56,0-4.89.7-6.98,1.86v-16.06l4.65,2.72v2.17c0,.85.7,1.55,1.55,1.55h12.41c.85,0,1.55-.7,1.55-1.55v-12.41c0-.85-.7-1.55-1.55-1.55h-12.41c-.85,0-1.55.7-1.55,1.55v6.59l-4.65-2.72v-7.53l12.18-7.29Zm4.89,12.49v3.1h-3.1v-3.1h3.1Zm-9.31,9.31v-3.1h3.1v3.1h-3.1Zm6.21-3.1h3.1v3.1h-3.1v-3.1Zm-3.1-3.1h-3.1v-3.1h3.1v3.1Zm-13.96-6.44v3.88l-3.34-1.94,3.34-1.94Zm-26.38,7.84l13.42-7.84,12.96,7.53v20.25c-1.16,1.16-2.09,2.56-2.79,4.19-.16,0-.78-.08-1.01-.08-6.05,0-10.94,4.89-10.94,10.94,0,.54.08,1.09.16,1.55h-11.79v-36.54Zm14.97,36.62c-.16-.54-.23-1.09-.23-1.55,0-4.34,3.49-7.84,7.84-7.84,2.17,0,4.27.93,5.74,2.56.54.62,1.55.7,2.17.08.62-.54.7-1.55.08-2.17-1.09-1.24-2.48-2.09-3.96-2.72,1.86-3.72,5.59-6.13,9.85-6.13,6.05,0,10.94,4.89,10.94,10.94,0,2.48-.85,4.89-2.41,6.83h-30.02Z"/>
  <path class="cls-1" d="m29.49,57.03c.85,0,1.55-.7,1.55-1.55v-12.41c0-.85-.7-1.55-1.55-1.55h-12.41c-.85,0-1.55.7-1.55,1.55v12.41c0,.85.7,1.55,1.55,1.55h12.41Zm-4.65-3.1v-3.1h3.1v3.1h-3.1Zm3.1-6.21h-3.1v-3.1h3.1v3.1Zm-6.21-3.1v3.1h-3.1v-3.1h3.1Zm-3.1,6.21h3.1v3.1h-3.1v-3.1Z"/>
</svg>