<?xml version="1.0" encoding="UTF-8"?>
<svg id="Layer_1" data-name="Layer 1" xmlns="http://www.w3.org/2000/svg" viewBox="0 0 90 90">
  <defs>
    <style>
      .cls-1 {
        fill: #dea179;
      }
    </style>
  </defs>
  <path class="cls-1" d="m88.87,0H1.13C.5,0,0,.5,0,1.12v87.75c0,.62.5,1.12,1.12,1.12h87.75c.62,0,1.12-.5,1.12-1.12V1.12c0-.62-.5-1.12-1.12-1.12ZM31.29,2.25h26.33v15.21h-26.33V2.25Zm26.33,50.43h-26.33v-15.36h26.33v15.36h0Zm14.63,2.25v15.36h-26.66v-15.36h26.66Zm-28.92,0v15.36h-26.33v-15.36h26.33Zm-26.33-19.86v-15.36h26.33v15.36h-26.33Zm28.58,0v-15.36h26.66v15.36h-26.66ZM2.25,2.25h26.79v15.21H2.25V2.25Zm0,17.46h12.5v15.36H2.25v-15.36Zm0,17.61h26.79v15.36H2.25v-15.36Zm0,17.61h12.5v15.36H2.25v-15.36Zm26.79,32.82H2.25v-15.21h26.79v15.21Zm28.58,0h-26.33v-15.21h26.33v15.21h0Zm30.13,0h-27.88v-15.21h27.88v15.21h0Zm0-17.46h-13.26v-15.36h13.26v15.36Zm0-17.61h-27.88v-15.36h27.88v15.36h0Zm0-17.61h-13.26v-15.36h13.26v15.36Zm0-17.61h-27.88V2.25h27.88v15.21h0Z"/>
</svg>