<?xml version="1.0" encoding="UTF-8"?>
<svg id="Layer_1" data-name="Layer 1" xmlns="http://www.w3.org/2000/svg" viewBox="0 0 90 90">
  <defs>
    <style>
      .cls-1 {
        fill: none;
        stroke: #dea179;
        stroke-linecap: round;
        stroke-linejoin: round;
        stroke-width: 2.14px;
      }
    </style>
  </defs>
  <path class="cls-1" d="m49.95,5.91C27.99,10.69,10.86,27.82,5.97,49.99c-.99,4.34-1.1,6.37-.88,13.89.44,14.38,2.09,17.95,9.11,19.82,4.78,1.26,17.4,1.7,23.06.77,19.38-3.07,36.34-16.58,43.75-34.8,3.24-7.96,4.17-13.5,3.95-23.39-.49-18.56-2.74-20.75-21.3-21.19-7.36-.16-9.94,0-13.72.82Zm23.55,4.78c2.09.44,4.06,1.15,4.39,1.54,1.48,1.76,3.68,17.9,2.47,17.9-.66,0-20.53-19.87-20.53-20.53,0-.71,9.06,0,13.67,1.1Zm-6.97,12.68c9.17,9.17,13.07,13.39,13.07,14.27,0,1.87-2.69,9.94-4.56,13.61-5.16,10.27-13.45,18.56-23.72,23.72-3.68,1.87-11.75,4.56-13.61,4.56-1.7,0-27.28-25.58-27.28-27.28,0-1.87,2.69-9.94,4.56-13.61,5.05-10.1,13.39-18.5,23.44-23.61,3.62-1.87,11.8-4.61,13.72-4.67,1.04,0,4.23,2.85,14.38,13.01Zm-46.39,46.39c5.54,5.54,10.05,10.27,10.05,10.54,0,1.21-16.14-.99-17.9-2.47-1.48-1.26-3.95-18.06-2.64-18.06.27,0,5,4.5,10.49,9.99Z"/>
  <path class="cls-1" d="m56.81,29.57c-.88.99-1.1,1.04-1.92.27-1.1-.99-2.31-1.04-3.18-.16-.82.82-.82,2.8,0,3.62.49.49.22,1.1-1.21,2.58-1.65,1.7-1.92,1.81-2.74,1.1-1.1-.99-2.31-1.04-3.18-.16-.82.82-.82,2.8,0,3.62.55.55.33,1.04-.99,2.31-1.48,1.54-1.76,1.59-3.4.99-1.48-.6-1.87-.55-2.69.27s-.88,1.21-.27,2.69c.6,1.65.55,1.92-.99,3.4-1.26,1.32-1.76,1.54-2.31.99-.38-.38-1.15-.66-1.81-.66-2.25,0-3.29,2.47-1.65,3.84.71.6.66.88-.55,2.31-1.65,1.92-1.7,2.69-.38,3.9,1.37,1.26,1.92,1.15,3.84-.44,1.43-1.21,1.7-1.26,2.31-.55,1.37,1.65,3.84.6,3.84-1.65,0-.66-.27-1.43-.66-1.81-.55-.55-.33-1.04.99-2.31,1.48-1.54,1.76-1.59,3.4-.99,1.48.6,1.87.55,2.69-.27s.88-1.21.27-2.69c-.6-1.65-.55-1.92.99-3.4,1.26-1.32,1.76-1.54,2.31-.99.82.82,2.8.82,3.62,0,.88-.88.82-2.09-.16-3.18-.71-.82-.6-1.1,1.1-2.74,1.48-1.43,2.09-1.7,2.58-1.21.38.38,1.15.66,1.81.66,2.25,0,3.29-2.47,1.65-3.84-.77-.66-.71-.88.27-1.92.77-.82,1.1-1.81.99-2.8-.11-1.32-.44-1.65-1.87-1.76-1.1-.11-1.98.22-2.69.99Z"/>
</svg>