<?xml version="1.0" encoding="UTF-8"?>
<svg id="Layer_1" data-name="Layer 1" xmlns="http://www.w3.org/2000/svg" viewBox="0 0 90 90">
  <defs>
    <style>
      .cls-1 {
        fill: #dea179;
      }
    </style>
  </defs>
  <path class="cls-1" d="m24.53,16.44c-10.19,6.3-18.73,11.72-19,12.16-1.53,2.41.49,6.52,3.23,6.52h1.15l.16,23.77c.16,22.45.22,23.82,1.2,24.92,1.04,1.15,1.2,1.15,33.74,1.15s32.7,0,33.74-1.15c.99-1.1,1.04-2.46,1.2-24.92l.16-23.77h1.26c2.74,0,4.71-4.44,2.96-6.68-.38-.49-9.04-5.97-19.22-12.16-14.29-8.71-18.95-11.28-20.26-11.23-1.26.05-7.01,3.29-20.32,11.39Zm39.76,2.57c17.63,10.68,19.61,12.21,17.2,13.14-.49.16-8-4.05-17.69-10.02-13.42-8.21-17.25-10.3-18.78-10.3s-5.37,2.08-18.78,10.3c-9.69,5.97-17.2,10.19-17.69,10.02-2.41-.93-.44-2.46,17.47-13.36,11.39-6.96,18.57-11.01,19.28-10.9.6.11,9.15,5.09,19,11.12Zm-2.79,4.93l15.83,9.69-.11,24.15-.16,24.15-18.73.16-18.78.11v-13.86c0-10.02-.16-14.02-.66-14.51-.44-.44-3.51-.66-10.13-.66-8.76,0-9.47.05-10.02,1.04-.33.66-.55,6.3-.55,14.57v13.47l-2.57-.16-2.63-.16-.16-24.15-.11-24.15,15.72-9.64c8.71-5.31,16.1-9.64,16.48-9.69.38,0,7.83,4.33,16.59,9.64Zm-24.7,45.13v13.14h-15.88v-26.29h15.88v13.14Z"/>
  <path class="cls-1" d="m41.18,21.86c-1.2.6-2.41,1.92-3.12,3.4-.88,1.7-1.86,2.63-3.4,3.34-2.35,1.04-4.44,4.22-4.44,6.74,0,3.45,2.79,7.12,6.02,8,1.86.49,3.45.27,6.19-.82.77-.33.93-.05.93,1.53,0,1.48-.27,2.03-1.1,2.3-.6.16-1.1.82-1.1,1.42,0,.93.38,1.04,3.83,1.04s3.83-.11,3.83-1.04c0-.6-.49-1.26-1.1-1.42-.82-.27-1.1-.82-1.1-2.3,0-1.59.16-1.86.99-1.53,2.68,1.1,4.27,1.31,6.13.82,3.23-.88,6.02-4.55,6.02-8,0-2.52-2.08-5.7-4.44-6.74-1.53-.71-2.52-1.64-3.4-3.34-1.37-2.74-4-4.38-6.96-4.38-1.04,0-2.79.44-3.83.99Zm6.35,2.41c.88.44,1.86,1.59,2.46,3.01.77,1.86,1.48,2.52,3.23,3.23,3.94,1.59,4.98,5.53,2.25,8.54-1.92,2.19-4.66,2.35-7.12.55-2.08-1.53-4.6-1.53-6.68,0-2.46,1.81-5.2,1.64-7.12-.55-2.74-3.01-1.7-6.96,2.25-8.54,1.75-.71,2.46-1.37,3.23-3.23,1.42-3.34,4.27-4.49,7.5-3.01Z"/>
  <path class="cls-1" d="m48.41,53.85c-.44.44-.66,3.01-.66,7.89,0,7.12,0,7.28-1.2,7.45-.82.11-1.26.55-1.26,1.26,0,1.04.38,1.1,13.14,1.1s13.14-.05,13.14-1.1c0-.71-.44-1.15-1.2-1.26-1.26-.16-1.26-.33-1.26-7.45,0-4.87-.22-7.45-.66-7.89-.93-.93-19.11-.93-20.04,0Zm8.65,4.55v2.46h-6.57v-4.93h6.57v2.46Zm9.31,4.11v6.57h-6.57v-5.48h1.97c1.7,0,1.92-.16,1.75-1.26-.11-.93-.6-1.26-1.92-1.37-1.75-.16-1.81-.27-1.81-2.63v-2.41h6.57v6.57Zm-9.31,3.83v2.74h-6.57v-5.48h6.57v2.74Z"/>
  <path class="cls-1" d="m24.31,59.32c-.82.82-.88,5.48,0,6.35.99.99,8.32.88,9.15-.11.38-.44.6-2.03.49-3.72l-.16-2.9-4.38-.16c-2.96-.11-4.6.05-5.09.55Zm7.01,2.9c0,1.26-.22,1.37-2.46,1.37s-2.46-.11-2.46-1.37.22-1.37,2.46-1.37,2.46.11,2.46,1.37Z"/>
  <path class="cls-1" d="m23.87,69.84c-.38.99,1.59,4.44,2.57,4.44.44,0,.82-.55.93-1.26.11-.66.44-1.2.71-1.2s.49-.6.49-1.37c0-1.26-.22-1.37-2.19-1.37-1.37,0-2.35.27-2.52.77Z"/>
</svg>