<?xml version="1.0" encoding="UTF-8"?>
<svg id="Layer_1" data-name="Layer 1" xmlns="http://www.w3.org/2000/svg" viewBox="0 0 90 90">
  <defs>
    <style>
      .cls-1 {
        fill: #dea179;
      }
    </style>
  </defs>
  <path class="cls-1" d="m43.38,1.59c-1.52,1.46-1.58,1.84-1.58,10.46v8.87h-9.82c-9.63,0-9.89.06-11.41,1.58-1.33,1.27-1.58,2.15-1.58,5.45,0,3.49.19,4.06,1.9,5.64l1.9,1.77,1.33,14.45c.7,7.92,1.39,14.64,1.58,14.96.44.76,2.03.63,2.28-.19.13-.38-.25-6.15-.89-12.8-.57-6.72-1.08-13.24-1.14-14.58v-2.34h15.84v5.32c0,3.93-.25,5.51-.95,6.08-.51.44-.95,1.33-.95,1.96,0,.95-.44,1.2-2.22,1.2-4.25,0-6.91,4.75-4.44,7.98.7.89.89,3.36.95,10.39,0,7.86.19,9.63,1.33,12.04,1.58,3.49,4.5,6.65,7.86,8.43,2.41,1.33,3.42,1.39,23.38,1.58,25.16.25,23.45.82,23.07-7.79-.19-4.82-.51-6.21-2.09-9.06-3.55-6.59-7.48-8.36-18.31-8.36-6.34,0-8.11-.19-8.87-1.01-1.27-1.2-1.27-4.63-.06-6.21,2.47-3.23-.19-7.98-4.44-7.98-1.77,0-2.22-.25-2.22-1.2,0-.63-.44-1.52-.95-1.96-.82-.7-.95-3.93-.95-21.99V3.11l-1.58-1.52C49.4.58,48.07,0,46.86,0s-2.53.57-3.49,1.58Zm5.32,2.47c.51.57.7,6.65.57,21.04l-.19,20.21h-4.44l-.19-20.21c-.13-20.85-.06-21.93,2.41-21.93.63,0,1.46.38,1.84.89Zm-7.03,23.95l.19,4.31h-9.19c-10.33,0-11.15-.32-11.15-4.25,0-4.31.95-4.69,11.03-4.5l8.94.19.19,4.25Zm9.51,22.18c.19,1.65.44,1.77,2.98,1.77s4.75,1.14,4.75,2.53c0,1.14-2.09,2.53-3.87,2.53-2.53,0-2.66,2.34-.13,2.66,1.52.19,1.84.57,2.15,2.66.7,4.18,2.09,4.82,10.33,4.82,3.87,0,8.17.32,9.57.7,2.85.82,6.02,2.85,6.02,3.87,0,.95-20.02.25-22.62-.82-1.65-.63-2.22-.7-2.85-.06s-.57.95.13,1.65c1.96,1.77,5.39,2.28,16.54,2.28,10.52,0,11.34.06,11.98,1.2.32.7.63,1.84.63,2.53,0,1.27-.32,1.33-10.27,1.33-5.7-.06-11.6-.32-13.18-.7-6.21-1.39-6.34-1.39-6.34-.32,0,.63,1.08,1.58,2.72,2.28,2.34,1.08,4.18,1.27,14.89,1.27h12.17v4.44h-12.36c-10.96,0-12.67-.13-14.77-1.2-5.51-2.85-7.29-6.53-7.6-15.78-.25-6.46-.38-7.1-1.46-7.1s-1.2.57-1.2,6.72c0,8.17.76,10.9,3.99,14.58,1.33,1.52,2.28,2.79,2.09,2.79-1.14,0-5.32-2.15-6.59-3.36-3.17-2.98-4.18-5.96-4.44-13.62-.25-6.46-.38-7.1-1.46-7.1s-1.2.57-1.2,6.72c0,8.24.76,10.9,4.06,14.64,2.28,2.6,2.41,2.85,1.01,2.47-2.92-.89-6.65-3.93-8.24-6.72-1.39-2.53-1.58-3.74-1.77-11.6l-.25-8.68h6.72c6.27,0,6.72-.06,6.72-1.27s-.44-1.27-6.59-1.27c-5.2,0-6.84-.19-7.6-1.01-.57-.51-1.01-1.2-1.01-1.52,0-1.39,2.15-2.53,4.82-2.53,2.47,0,2.79-.13,2.79-1.46,0-2.15.51-2.41,4.75-2.22,3.61.19,3.8.25,3.99,1.9Z"/>
  <path class="cls-1" d="m63.34,19.97c-.51.63-1.96.95-4.5.95-3.3,0-3.74.13-3.74,1.27,0,1.01.51,1.2,3.68,1.39,3.11.19,3.61.38,3.8,1.52.25,1.65,2.47,3.87,4.25,4.18,1.08.19,1.27.76,1.46,4.31.25,4.94,1.65,6.97,5.01,6.97,2.47,0,5.26-2.34,5.26-4.44,0-1.01.38-1.27,2.22-1.27,2.66,0,2.66-.95,1.01,16.79-.7,6.97-.95,12.93-.7,13.24.82.82,2.53-.06,2.53-1.33,0-.63.57-7.22,1.27-14.64l1.2-13.5,1.96-1.84c1.71-1.58,1.9-2.15,1.9-5.64,0-3.3-.25-4.18-1.58-5.45-1.33-1.39-2.09-1.58-5.7-1.58-2.92,0-4.5-.32-5.13-.95-.76-.7-2.53-.95-7.16-.95s-6.4.25-7.03.95Zm12.55,8.94c.13,5.83,0,7.29-.82,8.11-1.2,1.14-1.52,1.2-2.85.38-.7-.38-1.01-2.09-1.27-5.83l-.32-5.26-2.09.19c-1.65.13-2.22-.19-2.79-1.39-1.33-2.98-.38-3.61,5.01-3.42l4.94.19.19,7.03Zm10.14-4.69c.44.44.76,2.22.76,4.06,0,3.8-.38,4.06-5.13,4.06h-3.11v-8.87h3.36c1.84,0,3.68.32,4.12.76Z"/>
  <path class="cls-1" d="m55.1,33.59c0,1.14.44,1.27,5.07,1.27s5.07-.13,5.07-1.27-.44-1.27-5.07-1.27-5.07.13-5.07,1.27Z"/>
  <path class="cls-1" d="m19.68,70.09c-1.08.89-2.22,2.53-2.47,3.61l-.51,2.03-6.53.32c-6.4.32-6.53.38-8.36,2.41-2.09,2.34-2.34,4.88-.89,7.73,1.84,3.61,3.11,3.8,20.91,3.8,14.26,0,16.22-.13,16.6-1.01.19-.57,0-1.27-.51-1.58s-8.05-.57-16.79-.57c-14.58,0-15.97-.13-16.92-1.14-.63-.63-1.08-2.09-1.08-3.17,0-3.17,1.77-3.93,8.94-3.93,6.65,0,7.1-.19,7.86-3.61.63-2.98,2.41-3.99,7.1-3.99,3.55,0,3.99-.13,3.99-1.27s-.44-1.27-4.69-1.27-4.94.19-6.65,1.65Z"/>
</svg>