<?xml version="1.0" encoding="UTF-8"?>
<svg id="Layer_1" data-name="Layer 1" xmlns="http://www.w3.org/2000/svg" viewBox="0 0 90 90">
  <defs>
    <style>
      .cls-1 {
        fill: #dea179;
      }
    </style>
  </defs>
  <g id="outdoor">
    <g id="Group_3" data-name="Group 3">
      <g id="Group_2" data-name="Group 2">
        <path id="Path_4" data-name="Path 4" class="cls-1" d="m45.1,40.32h-.02c-1.01,0-1.84.82-1.84,1.84s.82,1.84,1.84,1.84h.02c1.01,0,1.84-.82,1.84-1.84s-.82-1.84-1.84-1.84Z"/>
      </g>
    </g>
    <g id="Group_5" data-name="Group 5">
      <g id="Group_4" data-name="Group 4">
        <path id="Path_5" data-name="Path 5" class="cls-1" d="m90,54.64v-12.49c0-1.01-.82-1.84-1.84-1.84h-18.12l-3.23-5.33h8.13c1.01,0,1.84-.82,1.84-1.84h0v-16.9c0-1.01-.82-1.84-1.84-1.84h-10.38c-1.01,0-1.84.82-1.84,1.84s.82,1.84,1.84,1.84h8.54v13.22H17.45v-13.22h35.57c1.01,0,1.84-.82,1.84-1.84s-.82-1.84-1.84-1.84H15.61c-1.01,0-1.84.82-1.84,1.84h0v16.9c0,1.01.82,1.84,1.84,1.84h7.58l-3.23,5.33H1.84c-1.01,0-1.84.82-1.84,1.84,0,0,0,0,0,0v12.49c0,1.01.82,1.84,1.84,1.84h8.32L.27,72.79c-.53.87-.25,2,.62,2.52.29.17.62.27.95.27h10.84c.64,0,1.24-.34,1.57-.88l11.05-18.22h39.42l11.05,18.22c.33.55.93.88,1.57.88h10.84c1.01,0,1.84-.82,1.84-1.84,0-.34-.09-.66-.27-.95l-9.89-16.31h8.32c1.01,0,1.84-.82,1.84-1.84h0Zm-27.48-19.65l3.23,5.33h-6.54l-3.23-5.33h6.54Zm-35.03,0h6.54l-3.23,5.33h-6.54l3.23-5.33Zm-15.84,36.92h-6.54l9.36-15.43h6.54l-9.35,15.43Zm73.26,0h-6.54l-9.35-15.43h6.54l9.35,15.43Zm1.43-19.1H3.67v-8.82h35.46c1.01,0,1.84-.82,1.84-1.84s-.82-1.84-1.84-1.84h-4.05l3.23-5.33h13.36l3.23,5.33h-4.05c-1.01,0-1.84.82-1.84,1.84s.82,1.84,1.84,1.84h35.46v8.82h0Z"/>
      </g>
    </g>
    <g id="Group_7" data-name="Group 7">
      <g id="Group_6" data-name="Group 6">
        <path id="Path_6" data-name="Path 6" class="cls-1" d="m58.98,14.42h-.02c-1.01,0-1.84.82-1.84,1.84s.82,1.84,1.84,1.84h.02c1.01,0,1.84-.82,1.84-1.84s-.82-1.84-1.84-1.84h0Z"/>
      </g>
    </g>
  </g>
</svg>