<?xml version="1.0" encoding="UTF-8"?>
<svg id="Layer_1" data-name="Layer 1" xmlns="http://www.w3.org/2000/svg" viewBox="0 0 90 90">
  <defs>
    <style>
      .cls-1 {
        fill: #dea179;
      }
    </style>
  </defs>
  <path class="cls-1" d="m64.91,15.49c-1.49,1.49-1.81,2.18-1.81,4.15,0,2.66.96,4.36,3.19,5.48,3.03,1.54,6.44.53,8.2-2.4,1.06-1.86,1.06-3.83.05-5.86-1.12-2.24-2.82-3.19-5.48-3.19-1.97,0-2.66.32-4.15,1.81Zm7.4,1.49c2.08,2.5.27,6.81-2.93,6.81-2.18,0-3.35-.75-4.15-2.61-1.7-4.21,4.1-7.72,7.08-4.21Z"/>
  <path class="cls-1" d="m15.72,16.93c-2.66,2.24-3.25,2.98-3.09,4.15l.16,1.38h19.16l.16-1.76c.27-2.45-2.34-5.06-4.79-4.84-.96.05-2.5-.27-3.46-.75-2.93-1.54-4.52-1.17-8.14,1.81Zm7.72.48c.75.85,1.38,1.01,2.98.75,2.18-.37,3.67.37,3.67,1.7,0,.59-1.54.75-7.82.75-7.03-.05-7.77-.11-6.81-.8.59-.43,1.7-1.38,2.56-2.13,1.76-1.6,4.1-1.7,5.43-.27Z"/>
  <path class="cls-1" d="m43.94,31.78c-.43.27-1.17.37-1.65.27-1.17-.37-5.11,1.38-7.29,3.3-1.49,1.22-1.81,1.92-1.86,3.73q-.11,2.24-2.5,2.56c-10.38,1.33-23.95,4.31-25.18,5.54-1.44,1.44.64,1.49,5.22.27,5.7-1.54,14.48-3.19,19.8-3.67,3.35-.37,4.1-.27,6.02.75,1.22.64,2.45,1.01,2.71.8.27-.16.85-.05,1.28.32.43.32,1.28.53,1.97.43,1.06-.16,1.28.11,1.49,1.7.16,1.17.53,1.86,1.06,1.86s.9-.69,1.06-1.86c.21-1.6.43-1.86,1.49-1.7.69.11,1.54-.11,1.97-.43.43-.37,1.01-.48,1.28-.32.27.21,1.49-.16,2.71-.8,1.92-1.01,2.66-1.12,6.02-.75,5.32.48,14.11,2.13,19.8,3.67,4.58,1.22,6.65,1.17,5.22-.27-1.22-1.22-14.8-4.21-25.18-5.54q-2.4-.32-2.5-2.56c-.05-1.81-.37-2.5-1.86-3.78-2.13-1.81-4.95-3.14-7.08-3.25-.85-.11-1.97-.27-2.4-.48-.43-.16-1.17-.05-1.6.21Zm1.92,2.18c.16.32.85.43,1.54.27.75-.21,1.49,0,1.86.53.37.43,1.06.64,1.49.48s1.12.16,1.54.8c.43.59,1.06,1.06,1.44,1.06.8,0,1.38,2.24,1.01,3.78-.16.53-.75,1.01-1.28,1.01-.59,0-1.17.37-1.33.8-.21.53-.69.69-1.33.53-.53-.21-1.28-.16-1.65.11-.96.59-7.45.59-8.25,0-.37-.27-1.12-.32-1.65-.16-.69.21-1.17.05-1.38-.48-.16-.43-.75-.8-1.33-.8-.53,0-1.12-.48-1.28-1.01-.37-1.54.21-3.78,1.01-3.78.37,0,1.01-.48,1.44-1.06.43-.64,1.12-.96,1.54-.8s1.12-.05,1.49-.48c.37-.53,1.12-.75,1.86-.53.69.16,1.38.05,1.54-.27.21-.32.59-.59.85-.59s.64.27.85.59Z"/>
  <path class="cls-1" d="m10.4,57.92c-4.68.59-5.96,1.12-5,2.08.43.43,1.92.43,5.06,0,8.94-1.12,20.65-.59,30.29,1.38,10.01,2.08,22.78,7.24,31.3,12.72,2.34,1.54,4.21,2.4,4.68,2.18.69-.27.75-.48.21-1.12-1.76-2.08-16.98-10.17-22.62-11.98-1.92-.64-1.97-.75-.9-1.12,3.62-1.38,11.23-2.24,20.87-2.4,7.98-.11,10.38-.32,10.38-.85,0-1.06-5.22-1.6-12.78-1.28-7.61.37-11.34.85-18.79,2.5l-4.95,1.12-4.63-1.12c-2.56-.59-6.17-1.38-8.09-1.65-4.95-.85-19.7-1.06-25.02-.48Z"/>
</svg>