<?xml version="1.0" encoding="UTF-8"?>
<svg id="Layer_1" data-name="Layer 1" xmlns="http://www.w3.org/2000/svg" viewBox="0 0 90 90">
  <defs>
    <style>
      .cls-1 {
        fill: none;
        stroke: #dea179;
        stroke-linecap: round;
        stroke-linejoin: round;
        stroke-width: 1.91px;
      }
    </style>
  </defs>
  <path class="cls-1" d="m37.18,14.29c-1.42,1.59-1.19,2.15,1.59,4.14,1.42,1.02,2.55,1.98,2.55,2.15-.06.17-4.99,4.02-11.05,8.56l-10.99,8.16-1.19,5.16c-.62,2.78-2.38,10.71-3.91,17.51l-2.72,12.41-3.06.06-3.06.06-.17,2.15-.17,2.1h14.39c10.88,0,14.56-.17,14.96-.68.28-.4,1.53-3.4,2.72-6.69,3.51-9.63,3-9.07,7.93-9.07s4.42-.57,7.93,9.07c1.19,3.29,2.44,6.29,2.72,6.63.4.57,4.08.74,14.96.74h14.39l-.17-2.15-.17-2.1-3.06-.06-3.06-.06-2.72-12.41c-1.53-6.8-3.29-14.73-3.91-17.51l-1.19-5.16-10.99-8.16c-6.06-4.53-10.99-8.39-11.05-8.56,0-.17,1.13-1.13,2.55-2.15,2.83-2.04,3.06-2.78,1.42-4.31-1.08-.96-1.19-.91-4.19,1.36-1.7,1.25-3.29,2.32-3.46,2.32s-1.7-1.02-3.34-2.27-3.12-2.27-3.29-2.27-.68.45-1.19,1.02Zm30.2,25.89c0,.17,1.53,7.2,3.4,15.58,1.87,8.39,3.4,15.64,3.4,15.98,0,.57-1.87.74-7.71.62-4.25-.06-7.88-.28-8.1-.45-.17-.23-1.64-3.74-3.17-7.82l-2.83-7.48h-14.73l-2.83,7.48c-1.53,4.08-3,7.59-3.17,7.82-.23.17-3.85.4-8.1.45-5.84.11-7.71-.06-7.71-.62,0-1.93,6.97-31.67,7.54-32.24.4-.4,5.38-4.19,11.16-8.56l10.48-7.88,11.22,8.44c6.12,4.65,11.16,8.56,11.16,8.67Z"/>
</svg>