<?xml version="1.0" encoding="UTF-8"?>
<svg id="Layer_1" data-name="Layer 1" xmlns="http://www.w3.org/2000/svg" viewBox="0 0 90 90">
  <defs>
    <style>
      .cls-1 {
        fill: #dea179;
      }
    </style>
  </defs>
  <path class="cls-1" d="m51.04,7.26c-4.87,1.6-8.26,3.7-11.96,7.4-3.14,3.14-6.78,8.88-6.16,9.8.18.31,5.86,3.14,12.64,6.29,10.11,4.68,12.27,5.92,11.84,6.72-.25.55-2.96,6.35-5.98,12.82l-5.49,11.9h-1.97c-1.91,0-2.03-.12-2.03-2.22,0-1.6,1.23-4.38,4.62-10.29,2.53-4.44,4.62-8.69,4.62-9.55,0-.8-.8-2.28-1.85-3.33-1.6-1.54-2.22-1.79-3.82-1.48-2.71.55-3.08.92-6.97,7.77-1.85,3.39-3.7,6.29-4.07,6.53-.37.18-7.77,2.28-16.46,4.62C1.05,58.73,0,59.23,0,62.92c0,4.62,2.77,5.86,9.37,4.13,2.47-.62,4.68-1.17,4.99-1.17.25,0,.43.92.43,2.1,0,1.85-.37,2.28-3.58,4.25-4.81,2.96-11.22,8.88-11.22,10.36,0,1.17,1.05,1.17,45,1.17s45-.06,45-1.17c0-1.48-5.86-6.84-11.34-10.42-7.58-4.93-20.1-9.37-26.38-9.37-1.29,0-2.34-.25-2.34-.55,0-.68,10.42-22.99,11.03-23.67.25-.25,5.92,2.1,12.58,5.18,6.66,3.08,12.51,5.49,13.01,5.3,1.54-.62,3.45-8.01,3.45-13.38,0-5.98-1.6-11.4-4.81-16.4-3.08-4.75-6.72-7.89-12.45-10.66-4.32-2.1-5.05-2.22-11.4-2.34-5.3-.12-7.58.06-10.29.99Zm7.52,6.6c-3.88,3.76-7.4,8.14-10.91,13.75-.12.18-9.8-4.01-10.6-4.62-.43-.37,3.88-5.79,6.04-7.52,4.99-4.01,10.66-6.1,16.83-6.23l3.58-.06-4.93,4.68Zm15.29-.49c1.36,1.66.62,15.35-1.11,20.77-.74,2.34-1.42,4.38-1.54,4.5-.06.06-4.75-1.97-10.36-4.56l-10.17-4.75,1.73-2.84c3.51-5.61,9.62-12.02,14.12-14.73,1.97-1.17,2.28-1.23,4.32-.37,1.23.49,2.59,1.36,3.02,1.97Zm10.17,10.79c2.34,4.87,3.21,10.48,2.28,15.84-.37,2.34-.99,4.5-1.29,4.68s-2.84-.68-5.55-1.97c-4.25-2.03-4.93-2.53-4.56-3.58,2.03-7.09,2.9-11.47,3.21-16.71l.37-6.1,1.97,2.28c1.05,1.23,2.65,3.7,3.58,5.55Zm-36.74,16.15c.12.68-1.73,4.38-4.01,8.26l-4.13,7.03-16.95,4.5c-9.31,2.53-17.26,4.56-17.63,4.56-1.17,0-1.66-2.03-.68-2.77.49-.31,8.14-2.53,17.01-4.87l16.09-4.25,1.48-2.53c6.23-10.91,6.66-11.53,7.64-11.34.55.12,1.11.74,1.17,1.42Zm-8.57,20.96c.12,1.11-.37,1.36-4.32,1.97-2.47.37-6.6,1.48-9.12,2.34-7.21,2.53-6.78,2.53-6.78.74,0-1.36.37-1.73,2.65-2.34,1.42-.37,5.36-1.48,8.75-2.4,7.09-2.03,8.57-2.03,8.82-.31Zm21.39,6.41c6.23,1.66,14.92,5.92,20.03,9.74l3.95,2.96-19.54.18c-10.73.06-28.36.06-39.08,0l-19.48-.18,3.33-2.59c6.66-5.12,17.2-9.8,25.34-11.22,5.61-1.05,19.85-.37,25.46,1.11Z"/>
  <path class="cls-1" d="m35.88,68.9c-.49.25-.74,1.05-.62,1.66.18,1.05.74,1.17,4.19.99,3.76-.18,5.18-.86,4.75-2.28-.25-.8-7.27-1.11-8.32-.37Z"/>
  <path class="cls-1" d="m45.99,68.84c-.92,1.54.43,2.47,4.13,2.84,2.1.25,6.41,1.11,9.55,2.03,4.38,1.17,5.92,1.42,6.47.86,1.36-1.36-.49-2.84-5.49-4.25-5.55-1.66-14.05-2.47-14.67-1.48Z"/>
  <path class="cls-1" d="m30.08,70.01c-1.23.31-1.48,2.34-.43,2.96.31.25,1.29.25,2.16.06,1.17-.31,1.54-.74,1.36-1.79-.18-1.36-1.17-1.79-3.08-1.23Z"/>
  <path class="cls-1" d="m68.12,74.95c-.43,1.29,1.66,3.27,3.45,3.27s2.22-1.85.62-3.21c-1.79-1.42-3.51-1.42-4.07-.06Z"/>
</svg>