<?xml version="1.0" encoding="UTF-8"?>
<svg id="Layer_1" data-name="Layer 1" xmlns="http://www.w3.org/2000/svg" viewBox="0 0 90 90">
  <defs>
    <style>
      .cls-1 {
        fill: #dea179;
      }
    </style>
  </defs>
  <path class="cls-1" d="m36.54,12.6c-5.14,5.2-7.54,7.94-7.54,8.86,0,2.51,2.06,1.2,8.97-5.71l7.03-7.03,17.14,17.14,17.14,17.14-2.97.17-2.97.17-13.71-13.71c-7.6-7.6-14.17-13.77-14.63-13.77s-7.03,6.17-14.57,13.71l-13.71,13.71h-6.29l6.46-6.46c4.74-4.74,6.34-6.74,6.06-7.43-.17-.51-.8-.97-1.31-.97-1.2,0-16.63,15.43-16.63,16.69s1.2,1.6,5.2,1.6h3.37v34.86h-3.31c-3.66,0-5.66.97-5.09,2.51.34.86,3.71.91,39.83.91s39.49-.06,39.83-.91c.57-1.54-1.43-2.51-5.09-2.51h-3.26l-.17-6.69c-.17-6.29-.23-6.74-1.31-6.74s-1.14.46-1.31,6.69l-.17,6.74h-18.8l-.11-15.31-.17-15.26h-18.86l-.17,15.26-.11,15.31h-18.86v-17.43c0-13.2.17-17.43.69-17.43.4,0,6.8-6.11,14.29-13.54l13.6-13.54,13.6,13.54c7.49,7.43,13.89,13.54,14.29,13.54.46,0,.69,2,.8,6.4.17,6,.23,6.46,1.31,6.46s1.14-.46,1.31-6.46l.17-6.4h3.37c4,0,5.14-.34,5.14-1.66,0-1.14-38.86-40.06-40-40.06-.46,0-4.29,3.43-8.46,7.6Zm14.74,54.97v14h-12.57v-28h12.57v14Z"/>
  <path class="cls-1" d="m41.17,66.54c-1.03.4-.91,1.6.17,2.51.8.63,1.03.57,1.71-.34.57-.74.63-1.26.17-1.83-.69-.8-.91-.86-2.06-.34Z"/>
  <path class="cls-1" d="m24.54,25.69c.11.86.57,1.31,1.31,1.31,1.71,0,1.54-2.23-.17-2.46-1.14-.17-1.31,0-1.14,1.14Z"/>
  <path class="cls-1" d="m41.51,31.57c-4.8,2.57-4.69,10.11.11,12.63,4.86,2.46,10.4-.91,10.4-6.34s-5.77-8.86-10.51-6.29Zm6.51,3.83c1.26,1.49,1.26,3.43-.06,5.09-1.49,1.77-4.46,1.77-5.94,0-3.37-4.23,2.46-9.2,6-5.09Z"/>
  <path class="cls-1" d="m20.26,51.06c-.74.74-.46,17.09.29,17.83.8.8,9.43.97,10.63.23.51-.4.69-2.63.57-9.31l-.17-8.8-5.43-.17c-3.03-.06-5.66,0-5.89.23Zm8.17,8.8v6.29h-5.14v-12.57h5.14v6.29Z"/>
  <path class="cls-1" d="m58.54,51.06c-.23.23-.4,4.34-.4,9.14,0,7.37.11,8.74.91,9.03,1.83.69,9.77.34,10.46-.46.46-.51.63-3.49.51-9.26l-.17-8.51-5.43-.17c-3.03-.06-5.66,0-5.89.23Zm8.17,8.8v6.29h-5.14v-12.57h5.14v6.29Z"/>
  <path class="cls-1" d="m73.69,63.4c.11.86.57,1.31,1.31,1.31s1.2-.46,1.31-1.31c.17-1.03-.06-1.26-1.31-1.26s-1.49.23-1.31,1.26Z"/>
</svg>