<?xml version="1.0" encoding="UTF-8"?>
<svg id="Layer_1" data-name="Layer 1" xmlns="http://www.w3.org/2000/svg" viewBox="0 0 90 90">
  <defs>
    <style>
      .cls-1 {
        stroke-width: 2.03px;
      }

      .cls-1, .cls-2 {
        fill: none;
        stroke: #dea179;
        stroke-miterlimit: 10;
      }

      .cls-3 {
        fill: #dea179;
        fill-rule: evenodd;
      }

      .cls-2 {
        stroke-width: 2px;
      }
    </style>
  </defs>
  <path class="cls-1" d="m26.34,15.14c-12.06,8.62-14.27,10.42-14.45,11.72-.11,1.35.58,2.03,5.82,5.75l6,4.23v5.35c0,2.93.24,6.14.47,7.15l.47,1.8-6.29.17-6.29.17-.18,11.21c-.11,8.62.06,11.32.58,11.72.4.23,8.45.45,17.83.45h17.01v4.39c0,4.56.53,5.75,2.45,5.75.99,0,25.87-17.24,28.96-20.06,2.1-1.92,1.28-3.44-3.79-6.93-3.14-2.14-4.31-3.27-4.14-3.94.18-.51.82-2.03,1.34-3.44.64-1.63,1.04-4.23,1.04-7.15l.06-4.68h3.61c5.82,0,5.42.85,5.42-11.83,0-9.63-.11-11.21-.93-11.49-.53-.17-9.15-.34-19.23-.34h-18.3v-4.39c0-4.45-.53-5.75-2.28-5.75-.53,0-7.34,4.56-15.2,10.14h-.01Z"/>
  <path class="cls-2" d="m51.36,27.61c5.96,1.12,10.79,4.69,13.51,10.11,3.63,7.31,2.32,15.49-3.44,21.35-9.1,9.34-24.4,6.63-30.31-5.37-1.4-2.85-1.55-3.53-1.55-7.74,0-3.97.2-4.98,1.31-7.41,2.52-5.33,8.13-9.87,13.6-10.99,2.9-.53,3.68-.53,6.87.05h0Z"/>
  <g>
    <path class="cls-3" d="m39.35,39.52c0-.54.44-.99.99-.99h15.79c.54,0,.99.44.99.99s-.44.99-.99.99h-15.79c-.54,0-.99-.44-.99-.99Z"/>
    <path class="cls-3" d="m39.35,34.58c0-.54.44-.99.99-.99h15.79c.54,0,.99.44.99.99s-.44.99-.99.99h-15.79c-.54,0-.99-.44-.99-.99Z"/>
    <path class="cls-3" d="m43.8,34.58c0-.54.44-.99.99-.99,1.96,0,3.84.78,5.23,2.17s2.17,3.27,2.17,5.23-.78,3.84-2.17,5.23c-1.39,1.39-3.27,2.17-5.23,2.17h-1.89l8.97,8.15c.4.37.43.99.07,1.39-.37.4-.99.43-1.39.07l-10.85-9.87c-.3-.27-.4-.71-.26-1.09.15-.38.51-.63.92-.63h4.44c1.44,0,2.82-.57,3.84-1.59,1.02-1.02,1.59-2.4,1.59-3.84s-.57-2.82-1.59-3.84c-1.02-1.02-2.4-1.59-3.84-1.59-.54,0-.99-.44-.99-.99h0Z"/>
  </g>
</svg>