<?xml version="1.0" encoding="UTF-8"?>
<svg id="Layer_1" data-name="Layer 1" xmlns="http://www.w3.org/2000/svg" viewBox="0 0 90 90">
  <defs>
    <style>
      .cls-1 {
        fill: #dea179;
      }
    </style>
  </defs>
  <path class="cls-1" d="m41.62,5.5c-.96.39-.96.51-.11.51,1.07.06,1.3.9.39,1.47-.28.17-.56.56-.56.9,0,.28.28.51.56.51.34,0,.56-.34.56-.79,0-.85,1.52-1.64,2.26-1.18.28.17.62.06.85-.28.17-.28.06-.56-.34-.56s-.51-.17-.34-.39c.23-.17.9.11,1.58.68.96.9,1.24.96,1.64.28.28-.45.68-.62.96-.39.23.28.06.68-.34.9-.39.28-.56.79-.39,1.13.56.85,1.58.79,1.35-.11-.11-.34.11-.68.39-.68.34,0,.45.23.34.56-1.01,2.82-.17,3.66.96.96l.68-1.52-.28,1.52c-.34,1.64.62,2.76.96,1.18.17-.79.28-.73.56.28.34,1.18.23,1.3-1.01,1.01-1.01-.28-1.35-.11-1.35.51,0,.51.34.85.73.79,1.47-.17,2.09.11,2.09.96,0,.45.23.73.51.56.68-.45-.11-3.89-1.24-5.64-1.86-2.82-8.12-4.57-11.39-3.16Z"/>
  <path class="cls-1" d="m38.85,6.91c-1.41,1.07-3.16,3.72-3.16,4.79,0,.51.51.9,1.13.96.68.06,1.13-.23,1.13-.79,0-.51-.34-.73-.85-.51-.45.17-.85.06-.85-.23,0-.34.28-.56.62-.56.28,0,.45-.23.28-.45-.17-.28.17-.85.73-1.3,1.07-.96,2.31-.23,1.86,1.07-.11.34.17.68.68.68,1.13,0,1.13-.28,0-1.97-.51-.73-.73-1.64-.51-1.97.45-.73.23-.68-1.07.28Z"/>
  <path class="cls-1" d="m43.7,7.7c.11.39.39.68.62.68.68-.06.51-.85-.17-1.13-.39-.11-.62.11-.45.45Z"/>
  <path class="cls-1" d="m45.96,7.7c.11.39.39.68.62.68.68-.06.51-.85-.17-1.13-.39-.11-.62.11-.45.45Z"/>
  <path class="cls-1" d="m42.18,9.45c-.17.34.06.73.56.9,1.07.45,1.69,0,1.13-.85-.45-.79-1.24-.79-1.69-.06Z"/>
  <path class="cls-1" d="m44.72,9.73c0,.51.56.73,1.86.68,2.48-.17,2.59-1.18.11-1.35-1.35-.06-1.97.11-1.97.68Z"/>
  <path class="cls-1" d="m38.23,10.97c.51,2.03.73,2.2,1.52,1.41.51-.51.39-.73-.28-.96-.51-.23-.73-.73-.56-1.18s0-.79-.39-.79c-.45,0-.56.51-.28,1.52Z"/>
  <path class="cls-1" d="m49,10.97c-.62.62-.34,1.3.51,1.3.45,0,.85-.23.85-.51,0-.73-.9-1.24-1.35-.79Z"/>
  <path class="cls-1" d="m40.77,11.98c0,.56.39.85,1.01.73,1.18-.23,1.07-1.24-.11-1.47-.56-.11-.9.17-.9.73Z"/>
  <path class="cls-1" d="m43.59,11.98c0,.45.39.85.85.85s.85-.39.85-.85-.39-.85-.85-.85-.85.39-.85.85Z"/>
  <path class="cls-1" d="m46.01,11.81c.11.39.56.73.96.73s.85-.34,1.01-.73c.11-.39-.28-.68-1.01-.68s-1.13.28-.96.68Z"/>
  <path class="cls-1" d="m42.12,13.45c-.56.96.73,2.03,1.52,1.24.68-.68.23-1.86-.62-1.86-.28,0-.68.28-.9.62Z"/>
  <path class="cls-1" d="m45,13.39c-.39.68.11,1.69.9,1.69.68,0,.68-1.52,0-1.97-.28-.17-.68-.06-.9.28Z"/>
  <path class="cls-1" d="m47.82,13.39c-.23.34-.17.9.17,1.24s.68.34.96-.11c.23-.34.17-.9-.17-1.24s-.68-.34-.96.11Z"/>
  <path class="cls-1" d="m50.07,13.39c-.23.34-.17.9.17,1.24s.68.34.96-.11c.23-.34.17-.9-.17-1.24s-.68-.34-.96.11Z"/>
  <path class="cls-1" d="m52.05,13.62c0,.51.28.9.56.9.34,0,.56-.23.56-.51,0-.34-.23-.73-.56-.9-.28-.17-.56.06-.56.51Z"/>
  <path class="cls-1" d="m35.58,14.91c.28,1.41.34,1.41.73.45.62-1.64.56-1.97-.28-1.97-.51,0-.68.45-.45,1.52Z"/>
  <path class="cls-1" d="m37.5,14.01c.11.34.45.56.73.56s.62-.23.73-.56-.23-.62-.73-.62-.85.28-.73.62Z"/>
  <path class="cls-1" d="m39.76,14.01c.11.34.45.56.73.56s.62-.23.73-.56-.23-.62-.73-.62-.85.28-.73.62Z"/>
  <path class="cls-1" d="m36.99,15.87c.17.45.11.9-.23,1.01-.28.11-.11.79.39,1.52.73,1.01,1.01,1.13,1.41.56.68-1.07.62-2.2-.11-2.2-.34,0-.51.39-.28.85.17.45.06.85-.28.85-.39,0-.45-.68-.23-1.69.23-1.13.17-1.69-.28-1.69-.39,0-.56.34-.39.79Z"/>
  <path class="cls-1" d="m38.91,15.42c-.45.45.06,1.35.79,1.35.28,0,.51-.39.51-.85,0-.85-.68-1.13-1.3-.51Z"/>
  <path class="cls-1" d="m41,15.7c-.56.96.73,2.03,1.52,1.24.68-.68.23-1.86-.62-1.86-.28,0-.68.28-.9.62Z"/>
  <path class="cls-1" d="m46.41,15.65c-.68.39-.68.68-.11,1.24.51.51.85.51,1.35,0,.9-.9-.11-1.92-1.24-1.24Z"/>
  <path class="cls-1" d="m49.06,15.48c-.68.62-.45,1.3.45,1.3.45,0,.85-.39.85-.85,0-.9-.68-1.13-1.3-.45Z"/>
  <path class="cls-1" d="m50.92,15.93c0,.45.28.85.62.85.28,0,.39.23.23.56-.17.28-.06.56.28.56s.45.28.23.68c-.28.45-.62.28-1.13-.39-1.01-1.35-1.64-.73-.79.79.34.68.39,1.18.06,1.18-.28,0-.62-.34-.79-.73-.23-.51-.39-.51-1.01,0-.85.79-2.2,0-2.2-1.3,0-.45-.23-.79-.56-.79-.28,0-.56-.39-.56-.85s-.39-.85-.85-.85-.85.39-.85.85.28.85.56.85c.34,0,.56.39.56.85s.28.85.56.85c.34,0,.56.28.56.62,0,.45-.28.39-.9-.11-.73-.56-.96-.56-1.35.06-.28.45-.68.62-.9.39s.06-.73.62-1.18c.79-.56.85-.85.28-1.18-.45-.28-1.01-.06-1.52.56-.68.96-.73.96-.73.11,0-.51-.23-.96-.51-.96-.85,0-1.3,1.01-.62,1.41.28.17.56.68.56,1.01,0,.39-.23.34-.56-.17-.39-.68-.68-.68-1.24-.11-.45.45-2.42.68-5.58.68-4.85,0-4.96.06-5.13,1.41-.17,1.3-.28,1.35-1.58.68-1.01-.51-1.47-1.24-1.58-2.54l-.17-1.8h-9.13l.39,5.3c.39,6.2,1.92,12.52,4,16.97,2.03,4.23,6.82,9.3,10.37,10.99,1.58.73,2.88,1.64,2.88,2.03,0,.85,1.86,2.03,2.88,1.8.9-.23,4.29,5.36,3.44,5.64-1.01.34-.85,1.69.34,2.31.85.51.79.73-1.01,2.59-1.07,1.13-3.04,2.71-4.34,3.5-1.41.79-2.42,1.8-2.42,2.42,0,.56-.51,1.13-1.13,1.3-1.01.28-1.13.79-1.13,6.26v5.98h29.88v-5.98c0-5.47-.11-5.98-1.13-6.26-.62-.17-1.13-.73-1.13-1.3,0-.62-1.01-1.64-2.37-2.42s-3.33-2.37-4.4-3.5c-1.8-1.86-1.86-2.09-.96-2.59,1.13-.62,1.3-1.97.28-2.31-.85-.28,2.54-5.86,3.44-5.64,1.01.23,2.88-.96,2.88-1.8,0-.39,1.3-1.3,2.82-2.03,3.61-1.69,8.4-6.71,10.37-10.88,2.14-4.57,3.66-10.88,4.06-17.08l.39-5.3h-9.13l-.17,1.8c-.11,1.3-.56,2.03-1.58,2.54-1.3.68-1.41.62-1.58-.68-.17-1.41-.28-1.41-5.36-1.41-4.68,0-5.07-.06-4.23-.9.73-.73.73-1.18.28-2.54-.68-1.75-1.52-2.2-1.52-.79Zm-28.47,6.65c.79,1.18,1.92,2.03,3.55,2.54,1.64.56,2.42,1.13,2.59,1.97.11.68.62,3.89,1.13,7.1s1.64,7.95,2.54,10.54l1.58,4.68-2.2-1.13c-6.48-3.27-11.05-12.18-12.07-23.4-.34-3.83-.28-4.17.68-4.17.62.06,1.58.85,2.2,1.86Zm47.98,2.31c-1.01,11.22-5.58,20.13-12.07,23.4l-2.2,1.13,1.58-4.68c.9-2.59,2.03-7.33,2.54-10.54s1.01-6.43,1.13-7.1c.17-.85.96-1.41,2.59-1.97,1.64-.51,2.76-1.35,3.55-2.54.62-1.01,1.58-1.8,2.2-1.86.96,0,1.01.34.68,4.17Z"/>
  <path class="cls-1" d="m52.84,15.99c.17.51.34,1.07.34,1.24,0,.51,1.13-1.18,1.13-1.75,0-.23-.39-.39-.9-.39-.62,0-.79.28-.56.9Z"/>
  <path class="cls-1" d="m47.37,17.68c-.45.45.06,1.35.79,1.35.28,0,.51-.39.51-.85,0-.85-.68-1.13-1.3-.51Z"/>
</svg>