<?xml version="1.0" encoding="utf-8"?>
<!-- Generator: Adobe Illustrator 26.3.1, SVG Export Plug-In . SVG Version: 6.00 Build 0)  -->
<svg version="1.1" id="Layer_1" xmlns="http://www.w3.org/2000/svg" xmlns:xlink="http://www.w3.org/1999/xlink" x="0px" y="0px"
	 viewBox="0 0 90 90" style="enable-background:new 0 0 90 90;" xml:space="preserve">
<style type="text/css">
	.st0{fill:none;stroke:#6E715A;stroke-linejoin:round;stroke-miterlimit:10;}
</style>
<g>
	<ellipse transform="matrix(0.2789 -0.9603 0.9603 0.2789 33.9616 58.3038)" class="st0" cx="55.8" cy="6.5" rx="3.7" ry="16"/>
	<ellipse transform="matrix(0.2789 -0.9603 0.9603 0.2789 21.4212 63.0439)" class="st0" cx="52.7" cy="17.3" rx="4.3" ry="17.9"/>
	<path class="st0" d="M40.5,2.1c0,0-8.4,14.8-9.4,24.6c-0.8,7.5,2.2,14.6,7.3,18.4c2.5,1.8,3.5,5,2.6,8c0,0.1-0.1,0.2-0.1,0.4
		c-1.6,5.7-5.7,19.5-6.2,21.3c-0.5,1.7-1.4,3.1-3.2,3.2"/>
	<path class="st0" d="M38.2,79.7c-1.5-1-1.5-2.7-1-4.4c0.5-1.7,4.4-15.6,6.2-21.3c0-0.1,0.1-0.2,0.1-0.4c0.9-2.9,3.5-5.1,6.5-5.3
		c6.4-0.5,12.6-4.8,16-11.6C70.3,28,71.1,11,71.1,11"/>
	<path class="st0" d="M34.9,73.6c-7.8-2-14.6-1.1-15.5,2.1c-1,3.4,5,8,13.3,10.5s15.8,1.6,16.8-1.7c0.9-3.2-4.4-7.6-12-10.1"/>
	<path class="st0" d="M49.5,84.4L49,86.1c-1,3.4-8.5,4.1-16.8,1.7S18,80.7,18.9,77.3l0.5-1.7"/>
</g>
</svg>
