<?xml version="1.0" encoding="UTF-8"?>
<svg width="115px" height="76px" viewBox="0 0 115 76" version="1.1" xmlns="http://www.w3.org/2000/svg" xmlns:xlink="http://www.w3.org/1999/xlink">
    <title>Group 21</title>
    <g id="Final-developed" stroke="none" stroke-width="1" fill="none" fill-rule="evenodd" stroke-linejoin="round">
        <g id="Amenities-Copy" transform="translate(-517.000000, -5947.000000)" stroke="#6E715A">
            <g id="Group-22" transform="translate(272.000000, 5923.000000)">
                <g id="Group-20" transform="translate(13.000000, 0.000000)">
                    <g id="Group-21" transform="translate(233.000000, 25.000000)">
                        <path d="M31.8771791,45.462392 C41.5858145,49.4442772 73.8017546,71.9372367 75.2414889,72.9231501 C76.6731022,73.9032708 77.8471643,74.3939105 79.9226556,73.6153749 C83.1362446,72.4104983 83.799845,72.0096452 84.2569403,70.4994946 C88.6260292,56.0606713 100.728614,50.0247033 113,44.5303504 C104.542576,32.8847553 74.721746,8 74.721746,8 C47.8494127,19.253431 41.2615552,41.9329147 41.4349962,42.2793167 C41.4349962,44.0107474 33.1133088,47.8194317 30.6862949,44.5303504 C19.5338648,39.4096252 8.09778033,37.7911516 2.89397035,37.2958778 C1.0597883,37.120939 0,37.0856037 0,37.0856037 C0,37.0856037 24.7916213,45.3957762 40.9146732,58.8996617 C48.4004795,57.0037189 61.1365013,63.2105709 64.1696885,65.302306" id="Stroke-1"></path>
                        <path d="M30,43.9207927 C30,43.9207927 30.5244932,42.1820238 34.0193607,41.3129301 C37.5148129,40.4438365 40.8348493,41.6608003 40.8348493,41.6608003 C46.6335109,43.6659982 74.2503898,61.6784578 84,70" id="Stroke-3"></path>
                        <path d="M30,44 C30,44 30.5324879,42.2140784 34.080626,41.3214163 C37.6293578,40.4287543 41,41.6787201 41,41.6787201" id="Stroke-5"></path>
                        <path d="M3,34 C3,34 8.84155637,36.4788663 17.1135966,35.671418 C23.4827586,35.0496828 27.2179734,37.2078767 30,41" id="Stroke-7"></path>
                        <path d="M22.9959951,35.2687874 C15.3537695,29.7193627 5.73700019,25.6957425 4,25.3826538 C10.2808086,24.5444954 22.4300322,23.7017411 31,39" id="Stroke-9"></path>
                        <path d="M34,39 C34,39 29.5338745,27.660573 22.3224455,23.0367068 C14.2886038,17.8850672 7,19.1328948 7,19.1328948 L17.3567454,26.8669158" id="Stroke-11"></path>
                        <path d="M51,5.73051066 L44.6275827,0 C44.6275827,0 30.4359537,16.6700503 33.409634,39" id="Stroke-13"></path>
                        <path d="M63,6.07425935 L56.4808359,1 C56.4808359,1 46.2986432,8.53296866 40.1041972,18.5782723 C35.4831636,26.0726074 35.6769563,33.3956863 36.3771479,38" id="Stroke-15"></path>
                        <path d="M39.035517,39 C39.035517,35.3624998 38.2803422,28.1620937 43.7343827,23.4796858 C48.8151758,19.1179748 59.81816,14.99708 63.9290887,4 L70,9.73671315" id="Stroke-17"></path>
                        <path d="M40,7.64270781 L31.1589275,2 C31.1589275,2 27.4121891,21.3566525 33.3922585,39" id="Stroke-19"></path>
                    </g>
                </g>
            </g>
        </g>
    </g>
</svg>