<?xml version="1.0" encoding="UTF-8"?>
<svg width="71px" height="87px" viewBox="0 0 71 87" version="1.1" xmlns="http://www.w3.org/2000/svg" xmlns:xlink="http://www.w3.org/1999/xlink">
    <title>Group 25 2</title>
    <g id="Final-developed" stroke="none" stroke-width="1" fill="none" fill-rule="evenodd" stroke-linejoin="round">
        <g id="Amenities-Copy" transform="translate(-1234.000000, -6135.000000)" stroke="#6E715A">
            <g id="Group-22" transform="translate(272.000000, 5923.000000)">
                <g id="Group-25" transform="translate(963.000000, 213.000000)">
                    <path d="M13.5827365,26.2270809 C14.3622314,45.2475512 15.1411735,64.2658308 15.9206684,83.2868487 C15.9228798,83.3372355 15.9295138,83.3947422 15.9383591,83.4445813 C15.9532856,83.526186 15.9742933,83.5897172 15.9892198,83.6286027 C16.0472673,83.7775724 16.1102903,83.8317929 16.1412489,83.8580817 L16.2833271,83.9681659 L16.4254052,84.0777024 L16.5674834,84.1877867 L16.7095615,84.2978709 L16.8516397,84.4079551 L16.9942707,84.5180393 L17.1363488,84.6281235 L17.278427,84.7382077 L17.4205052,84.8482919 L17.5625833,84.9583761 C17.6151025,84.9978093 17.643297,85 17.6847595,85 L19.9032795,84.792976 C19.9226286,84.7913329 19.9408721,84.7814746 19.95801,84.7683302 C20.054203,84.715205 20.1376808,84.5591155 20.1360466,84.2732251 C20.09069,82.2473471 19.8557358,71.9081943 19.835281,71.097624 C19.7838675,69.1221327 19.7070237,66.4877792 19.6849103,64.5111926 C19.6733008,63.5231731 19.6323912,62.206544 19.609725,61.2185246 C19.5870588,60.2310528 19.556653,58.9144237 19.5345397,57.9264042 C19.5118735,56.9389324 19.4814677,55.6223034 19.4593543,54.6348316 C19.2608872,45.9617294 19.0629729,37.2891748 18.8650586,28.6166203" id="Stroke-1"></path>
                    <path d="M7.32787002,21.172956 C6.83529556,24.4842452 6.33663993,27.8185371 5.94689246,30.4057899 C5.65720782,32.3303467 5.15357669,35.6416359 4.89761487,37.3169971 C4.88655821,37.3920296 4.77654438,38.1226383 3.81295596,44.3612912 C3.19322984,48.3834724 2.83112403,50.7741072 2.3225174,54.3083032 C2.03227992,56.3265137 1.72490461,58.5446284 1.42803314,60.6888059 C0.869671512,64.7235839 0.586620867,66.7461759 0.010015744,70.7694525 L0.010015744,70.7700002 C-0.020390087,70.9775719 0.010015744,71.3516392 0.219539562,71.5345652 L0.361617717,71.6446494 L0.504248707,71.7547336 L0.646326863,71.8648178 L0.788405018,71.974902 L0.930483174,72.0849862 L1.07256133,72.1950704 L1.21519232,72.3051546 L1.35727048,72.4152388 L1.49934863,72.5253231 L1.64142679,72.6354073 C1.69173462,72.6710066 1.71716495,72.6770311 1.76249728,72.6760535 L3.98101728,72.4694594 C4.01916277,72.4656256 4.0545441,72.4393369 4.08384427,72.3927839 C4.0545441,72.4393369 4.01916277,72.4661733 3.98101728,72.4694594 C4.05509694,72.4601488 4.15350126,72.39607 4.20104493,72.145779 L4.20104493,72.145779 C4.48298991,70.4687748 4.77654438,68.7939613 5.06457053,67.1175047 C5.78435947,62.9260895 6.50414842,58.7357696 7.22393736,54.5443544 C8.52088427,46.9929062 9.81727834,39.4420057 11.1142252,31.8911052 C11.49955,29.6494402 11.884322,27.4077752 12.269094,25.1661101" id="Stroke-3"></path>
                    <path d="M19.1446263,41.80438 L23.781792,44.5022647 L24.9482702,45.3561019 C25.2854985,45.5987253 25.81456,45.771793 26.6128513,45.9010461 C26.6653704,45.9098091 27.1430184,45.9853893 27.7284689,46.010035 C28.2702455,46.03249 28.6163191,46.0127734 28.8943943,45.9968906 C40.3866927,45.2011077 51.8767799,44.4047772 63.3696312,43.6089943 C64.6505459,43.5147929 65.11769,43.2217827 65.2586625,43.1007448 C65.3238969,43.0448812 65.5212583,42.8750996 65.6495157,42.5207489 C65.7683748,42.192687 65.820894,41.9111781 65.8452186,41.4806996 L65.8595923,41.1104661 C65.8645678,40.9494474 65.8794943,40.4603668 65.7291237,40.0008611 C65.5992078,39.6037912 65.4239597,39.4630367 65.2829872,39.3496664 C65.2829872,39.3496664 46.9897336,28.5329344 46.9764656,28.5263622 C46.9897336,28.5329344 47.0030016,28.5378635 47.0157167,28.5471741 C46.6784884,28.3045507 46.149427,28.131483 45.3516885,28.0022299 C45.1040192,27.9622491 44.6811017,27.9124099 44.2366238,27.8937887 C43.6948472,27.8713337 43.376968,27.8894073 43.0701455,27.9069331 C43.078438,27.9063854 43.0867305,27.9091238 43.095023,27.9146007 C43.0867305,27.9091238 43.078438,27.9063854 43.0701455,27.9069331 L18.8787135,29.5822943" id="Stroke-5"></path>
                    <line x1="10.2382609" y1="36.6227546" x2="14.0904033" y2="38.8638719" id="Stroke-7"></line>
                    <line x1="13.7109938" y1="29.9405335" x2="11.332705" y2="30.105386" id="Stroke-9"></line>
                    <path d="M51.4452935,31.153541 C52.2452433,26.7627693 53.045193,22.373093 53.8451428,17.9823213" id="Stroke-11"></path>
                    <path d="M47.6979683,14.5520754 C47.0373325,19.0556697 46.3766967,23.559264 45.716061,28.0628584" id="Stroke-13"></path>
                    <path d="M64.9813613,39.1701908 C64.4241054,33.8434295 63.8662966,28.5079053 63.3106991,23.2046943" id="Stroke-15"></path>
                    <path d="M56.7048941,19.9871136 C57.3832206,25.1468317 58.0620999,30.3065498 58.7404263,35.4657203" id="Stroke-17"></path>
                    <path d="M43.2319046,44.999451 C42.2716331,51.5459015 41.3113617,58.0928998 40.3510903,64.639898 L40.3510903,64.639898 C40.3190259,64.8545896 40.3980811,65.05066 40.4146661,65.0879024 C40.5141761,65.3173814 40.6374579,65.3874848 40.6894242,65.4176073 L40.9022651,65.5249531 L41.1156587,65.6322989 L41.3284995,65.7396447 L41.5413404,65.8469905 L41.7541812,65.954884 L41.967022,66.0622298 L42.1798628,66.1695756 L42.3927036,66.2769214 L42.6055444,66.3848149 L42.8183853,66.491613 C42.8891479,66.5255693 42.9389029,66.5321415 43.0091127,66.5168064 L44.9396066,65.9795297 C44.9678011,65.9718622 44.9932314,65.9554317 45.0164504,65.9351674 C45.1126434,65.861778 45.1424964,65.7385494 45.1524474,65.690901 L48.9896633,44.6040241" id="Stroke-19"></path>
                    <path d="M59.842997,43.849427 C61.2914203,54.8605864 62.7392906,65.8717458 64.187161,76.8840005 L64.1877139,76.8845482 L64.187161,76.8840005 C64.1965592,76.9519132 64.2562652,77.2996917 64.5277063,77.4503044 L64.7405472,77.5576502 L64.953388,77.664996 L65.165676,77.7723418 L65.3785168,77.8796876 L65.5913576,77.9875811 L65.8041984,78.0943792 L66.0170392,78.201725 L66.2293272,78.3096185 L66.442168,78.4164166 L66.6550088,78.52431 C66.641188,78.5171902 66.6284729,78.500212 66.6163105,78.4783047 C66.6284729,78.500212 66.641188,78.5171902 66.6550088,78.52431 C66.7390395,78.5621001 66.7799492,78.5626478 66.8457363,78.5495034 L68.776783,78.0122268 C68.8525212,77.9892241 69.025558,77.8933796 68.9968107,77.5127402 C68.9979163,77.5215031 68.9896238,77.528623 68.9708275,77.5335522 C68.9896238,77.528623 68.9979163,77.5215031 68.9968107,77.5127402 C68.902829,76.544985 68.7607509,75.2562878 68.6590295,74.2890802 C68.4340264,72.1405212 68.2090232,69.9919623 67.9840201,67.8428556 C67.8828516,66.8756481 67.7457489,65.5869508 67.6462389,64.6197433 C67.447219,62.6858759 67.1735665,60.107386 66.9712295,58.1735186 C66.870061,57.2068588 66.7346168,55.9181615 66.6334484,54.950954 C66.4084452,52.8029427 66.1834421,50.6549314 65.9584389,48.5063724 C65.7660529,46.6672541 65.5731141,44.8237544 65.3796224,42.9786116" id="Stroke-21"></path>
                    <path d="M19.8762459,20.4881884 C18.6240785,18.9689168 15.6647619,15.4128134 13.8547857,13.5265944 C17.8163891,12.2619952 22.7117279,11.7893451 27.13163,11.6573536 C36.8156108,11.3676295 46.7013757,13.3086167 51.2976317,16.324705 C52.1086382,16.8565049 58.6602655,21.3518839 60.950101,22.9237331 C61.4559434,23.2709639 62.0756696,23.4095276 62.6837862,23.3131355 L65.0007105,22.9439974 C65.4020675,22.8804662 65.7017031,22.5447367 65.7166296,22.1427377 L65.9703801,17.2382397 C66.0046558,16.5804728 65.7608563,15.9385888 65.2953707,15.4675817 C63.4958983,13.6476323 58.5972425,8.92770334 53.3055222,5.840964 C46.9081354,2.10905452 40.1514069,-0.0778422488 27.8094037,0.00211941613 C13.9708807,0.0919393685 5.6579265,3.37584446 5.35276252,7.70144192 C5.17917287,10.1632754 4.97351889,16.9917825 4.97351889,16.9917825 C4.96964905,17.0832455 4.97157153,17.1747085 4.97738872,17.2667192 C5.01332288,18.1063166 5.33894169,18.8068027 5.62420367,19.2624747 C6.01118697,19.8808084 6.33238312,20.2176332 6.64307543,20.5435044 C6.77409692,20.6809727 6.9581904,20.8556835 7.10192706,20.9805551 C7.31808487,21.1695056 7.61163935,21.4088429 7.84051233,21.5901259 C7.84051233,21.5906736 7.84106517,21.5912213 7.841618,21.5912213 C10.7301719,23.9238016 16.3994774,28.498047 16.5072798,28.5884146 C16.7212263,28.7686022 16.9495465,28.8009155 17.1458023,28.7954387 C17.3265788,28.7899618 19.003875,28.6004636 19.2780803,28.5697934 C19.6750146,28.5243358 20.0199826,28.2669249 20.0664206,27.7241714 L20.4091772,22.1246641 C20.4451114,21.5320715 20.2554896,20.9482418 19.8762459,20.4881884 Z" id="Stroke-23"></path>
                </g>
            </g>
        </g>
    </g>
</svg>