<?xml version="1.0" encoding="UTF-8"?>
<svg width="58px" height="82px" viewBox="0 0 58 82" version="1.1" xmlns="http://www.w3.org/2000/svg" xmlns:xlink="http://www.w3.org/1999/xlink">
    <title>Group 17</title>
    <g id="Final-developed" stroke="none" stroke-width="1" fill="none" fill-rule="evenodd" stroke-linejoin="round">
        <g id="Amenities-Copy" transform="translate(-1247.000000, -5934.000000)" stroke="#6E715A">
            <g id="Group-22" transform="translate(272.000000, 5923.000000)">
                <g id="Group-20" transform="translate(13.000000, 0.000000)">
                    <g id="Group-17" transform="translate(963.000000, 12.000000)">
                        <path d="M46.4166176,24.7320556 C37.3574163,52.9903723 42.5093688,54.147945 41.7368592,56.5573923 C40.665923,59.8991001 32.8501663,60.3573191 24.2807877,57.5807903 C15.7114092,54.8048944 9.63269712,49.8454962 10.7036333,46.5044213 C11.4761429,44.0943411 16.3309278,46.1784782 25.3901291,17.9201614" id="Stroke-25"></path>
                        <path d="M40.4684829,58.126476 C39.0720476,64.0782602 44.1182285,65.1573533 42.4296624,70.4237076 C40.9759342,74.9577976 30.522816,76.4697938 19.3821832,72.8610025 C8.24217993,69.2522112 0.634188576,61.8890618 2.08728722,57.3549719 C3.77585333,52.0886176 8.49905352,54.1740204 10.8222485,48.5228634" id="Stroke-27"></path>
                        <path d="M40.6815999,72.7541691 C41.1135001,73.4358016 41.2639726,74.0604731 41.0902051,74.6016019 L40.4927222,76.4648572 C39.1365808,80.6964213 29.0064433,81.2002091 17.8658105,77.5914178 C6.72580727,73.9826265 -1.20516484,67.6270526 0.150976613,63.3961214 L0.748459549,61.5328661 C0.921597386,60.9917373 1.40638333,60.572758 2.1530796,60.2727638" id="Stroke-29"></path>
                        <path d="M55.9033118,12.366724 C55.9033118,12.366724 52.0143212,20.5184658 50.9786422,22.7133602 C49.774862,25.2664756 43.1232211,25.5436855 35.3578317,23.0279111 C27.5924423,20.5127697 22.3517174,16.3831023 22.8585391,13.6040419 C23.2935872,11.2142145 24.870086,2.31375293 24.870086,2.31375293" id="Stroke-31"></path>
                        <path d="M41.6451277,3.41499755 C43.919844,4.15169223 45.969796,5.04344722 47.6312897,5.97254326 L50.1534358,5.49597015 C47.9196429,4.18840039 45.1683252,2.95741142 42.1097667,1.96629126 C39.0505785,0.975171102 36.1021985,0.35999307 33.5290555,0.110630782 L35.3000981,1.97768345 C37.1882449,2.19856527 39.3704113,2.67830287 41.6451277,3.41499755 Z" id="Stroke-33"></path>
                        <path d="M39.4172529,10.3645473 C37.6569133,9.79430513 36.0294177,9.13102676 34.6134649,8.43040734 L30.6205916,9.18419029 C32.8537549,10.4917601 35.6050726,11.722749 38.6642607,12.7138692 C41.7234489,13.7049893 44.6718289,14.3201674 47.2443423,14.5695297 L44.4407686,11.6138904 C42.8837872,11.3518701 41.1775925,10.9347895 39.4172529,10.3645473 Z" id="Stroke-35"></path>
                        <path d="M55.9033748,12.366724 C56.3585699,10.9477639 55.180603,9.1427354 52.894554,7.34150425 L49.7610739,7.34150425 C51.3312767,8.52629157 52.1472281,9.67943393 51.8645413,10.5610625 C51.5100809,11.6661045 49.5104963,12.1047037 46.6836276,11.8914167 L50.5417682,14.6799706 C53.4441879,14.5603526 55.4481797,13.785684 55.9033748,12.366724 Z" id="Stroke-37"></path>
                        <path d="M29.1977764,3.21829248 C29.4804632,2.33603098 30.8126802,1.87907775 32.7757485,1.8385722 L30.2315666,0 C27.3297765,0.12025085 25.3251551,0.894286583 24.8705896,2.31324661 C24.4153945,3.73283954 25.5927318,5.53786808 27.8794104,7.33846633 L32.6315719,7.33909923 C30.2126789,5.85305189 28.843316,4.3233345 29.1977764,3.21829248 Z" id="Stroke-39"></path>
                        <line x1="46.6835017" y1="11.8912901" x2="45.965137" y2="13.197594" id="Stroke-41"></line>
                        <line x1="32.6315089" y1="7.33916252" x2="32.3374894" y2="8.86001932" id="Stroke-43"></line>
                        <path d="M30.4823962,5.76083847 C32.5940482,5.29629045 36.3778969,5.7380541 40.4746529,7.06587664 C44.5764457,8.39433208 47.9082472,10.2594861 49.3500132,11.8771764" id="Stroke-45"></path>
                        <line x1="32.7756855" y1="1.83882536" x2="32.1939424" y2="5.58242418" id="Stroke-47"></line>
                        <line x1="33.5290555" y1="0.110630782" x2="32.7496204" y2="2.00553101" id="Stroke-49"></line>
                        <line x1="35.2999092" y1="1.97743029" x2="33.7926657" y2="5.64191671" id="Stroke-51"></line>
                        <line x1="49.7611999" y1="7.34131438" x2="48.0587827" y2="10.7216291" id="Stroke-53"></line>
                        <line x1="50.1533728" y1="5.49609673" x2="49.6855858" y2="7.49162794" id="Stroke-55"></line>
                        <line x1="47.6314785" y1="5.9722901" x2="46.7267547" y2="9.83234237" id="Stroke-57"></line>
                        <path d="M30.6203398,9.184127 L29.0715431,12.7277297 L29.0715431,12.7277297 C28.3481418,12.2720422 27.6889588,11.8074942 27.1046973,11.3416804 L27.1046973,11.3410475 L27.8790956,7.33859291" id="Stroke-59"></path>
                        <path d="M50.54202,14.6801604 L48.4971048,18.3971775 L48.4971048,18.3978104 C47.8511432,18.4155316 47.1642582,18.4016078 46.4427456,18.3554062 L46.4427456,18.3547733 L47.244846,14.5694031" id="Stroke-61"></path>
                    </g>
                </g>
            </g>
        </g>
    </g>
</svg>