<?xml version="1.0" encoding="UTF-8"?>
<svg width="119px" height="69px" viewBox="0 0 119 69" version="1.1" xmlns="http://www.w3.org/2000/svg" xmlns:xlink="http://www.w3.org/1999/xlink">
    <title>Group 11</title>
    <g id="Final-developed" stroke="none" stroke-width="1" fill="none" fill-rule="evenodd" stroke-linejoin="round">
        <g id="Amenities-Copy" transform="translate(-271.000000, -6156.000000)" stroke="#696B55">
            <g id="Group-22" transform="translate(272.000000, 5923.000000)">
                <g id="Group-5-Copy-7" transform="translate(0.000000, 202.000000)">
                    <g id="Group-11" transform="translate(0.000000, 32.000000)">
                        <path d="M17,7.71788614 C15.8401163,8.28758006 14.5368823,7.96760796 14,7" id="Stroke-1"></path>
                        <path d="M20.9085995,63.9857426 C20.4498512,64.0044259 19.9920895,64.0068367 19.5358076,63.9803184 C18.9946819,63.9483758 18.1644955,63.5246849 18.0293374,63.0431358 C17.8853003,62.5302468 18.2991603,61.6219934 18.6710918,61.1006668 C19.0336509,60.5907913 19.618185,60.2171236 20.1627636,60.0206468 C21.3451503,59.5945451 21.8759172,59.1310767 21.9459626,57.6882375 C22.0317929,55.9127135 22.0155148,54.1154928 21.8961415,52.3423795 C21.7767683,50.5752932 21.0595425,49.1740396 19.9615063,48" id="Stroke-3"></path>
                        <path d="M91,54.0435963 C90.7004081,54.9088843 90.3877905,55.7687026 90.0578052,56.6219575 C88.4578107,60.75368 86.0290539,61.3148591 82.3069501,60.8745578 C80.9723551,60.7170338 80.7427765,60.2253183 81.2453527,58.9788005 C81.760412,57.701653 82.5327295,56.8150337 84.0518559,56.8183155 C84.3834694,56.8188624 84.8285153,56.5278806 85.0298715,56.2363519 C85.7424877,55.2053356 86.0779004,54.1174357 86.1842772,53" id="Stroke-5"></path>
                        <path d="M3,12.1779743 C4.38898411,12.9169743 5.83522904,13.1039743 10,12.2919743" id="Stroke-7"></path>
                        <path d="M33.9683683,18.5639721 C35.3317222,22.4118022 38.0406645,25.0952935 42.3656883,26.2315 C43.9668697,26.6517643 45.6133244,26.9577765 47.2580598,27.1380538 C52.3905513,27.6995545 57.5075697,27.1897257 62.6297458,26.8314675 C68.4304468,26.4261306 74.2351594,26.0385917 80.0450298,25.8009012 C84.9414129,25.6005293 89.1879249,27.4561227 93.1295592,30.2733866 C96.2127218,32.4769038 99.3721038,34.5994685 102.644382,36.5038631 C106.626705,38.8210583 111.01706,39.8246404 115.640085,39.7299087 C116.054993,39.7212967 116.471048,39.8005269 116.887104,39.8389937 C116.924927,39.9520976 116.96275,40.0652016 117,40.1783055 C116.535233,40.415996 116.094536,40.7363614 115.602261,40.8775978 C110.2073,42.4243084 104.909189,41.8679749 99.7864396,39.8125836 C97.454583,38.8773232 95.2975154,37.502278 93.069386,36.3103807 C92.420088,35.9630311 91.7994439,35.5605648 91.1661921,35.1833603 C92.4882843,38.1648259 92.3318339,41.3472375 92.9679511,44.3671698 C93.1673824,45.3150612 93.4997679,46.2445803 93.8590882,47.1471152 C94.3949166,48.4905832 95.2745922,49.3902475 96.8178927,49.6870735 C98.5222283,50.0149027 99.0253913,50.8904534 98.5119129,52.5359147 C97.4792254,55.8475059 96.4665956,59.1757469 95.2098343,62.4040891 C93.5203988,66.7416535 90.9558723,67.3301385 87.0256996,66.8685366 C85.6159264,66.7026126 85.3740872,66.1864683 85.9047579,64.8785964 C86.4480364,63.537999 87.2641003,62.6067575 88.8681471,62.6102023 C89.2182981,62.6113506 89.6882225,62.3053384 89.9008347,61.9999004 C91.4733622,59.7372477 91.3071694,57.213365 90.8257834,54.6883341 C90.6240598,53.6296354 89.6979649,53.3414213 88.7627007,53.2392259 C87.3982006,53.0899517 86.0279698,52.9963682 84.6606044,52.8740782 C81.4960647,52.5904572 78.6346835,51.4576955 76.3486731,49.2823107 C73.3325607,46.4116526 69.8224546,45.9833504 65.9008781,46.3266811 C60.9769872,46.7578539 56.3522433,48.2385394 51.7418264,49.8294582 C45.9795216,51.8188243 40.0590471,53.0876551 34.038857,53.9540198 C33.7293945,53.9982279 33.3482973,54.3748583 33.2182085,54.6871859 C32.5391104,56.3171456 31.8995547,57.9654775 31.3069915,59.6293109 C30.8359209,60.9521102 30.4043928,62.2932817 30.041061,63.6488065 C29.4805902,65.7420904 28.58888,66.5533384 26.4169123,66.7072056 C24.9400888,66.8116976 23.4546692,66.952934 21.9824304,66.8823158 C21.3537633,66.8524609 20.3892721,66.4488464 20.2316755,65.9895411 C20.0649096,65.5015292 20.5457225,64.6363129 20.9778237,64.1391149 C21.3990365,63.6539736 22.0781346,63.298012 22.7102402,63.1108451 C24.0839095,62.7049341 24.7011151,62.2634268 24.7824922,60.8889557 C24.8822079,59.1969898 24.8632963,57.4855034 24.7246113,55.7964082 C24.5859263,54.1124801 23.7526701,52.7047094 22.4764242,51.5868751 C21.6064909,50.8238541 20.7342654,50.0619815 19.8368244,49.331686 C14.8304102,45.2559256 13.2653326,40.0979271 14.9668028,33.9001761 C15.4069272,32.2954782 15.8292861,30.6856131 16.2711296,29.0814894 C17.1720091,25.8123839 16.9473623,22.5518904 16.1679755,19.3068984 C15.6585087,17.1837596 14.3157856,15.9574145 12.1197486,15.6381973 C9.90422695,15.3161095 7.701313,14.9033088 5.49152212,14.5427541 C3.66282847,14.2447798 2.42383265,13.2096205 1.62209576,11.5641593 C1.27538324,10.8533843 0.866205151,10.1684453 0.439261632,9.50187845 C-0.261040354,8.4081577 -0.177943965,7.70886537 1.08168269,7.31960413 C2.89604937,6.75867753 4.78548935,6.41477268 6.66174852,6.08809179 C8.77640836,5.72007341 10.853245,5.2751214 12.6882425,4.10159635 C13.1329515,3.81682707 13.6384068,3.45569827 13.844142,3.00500494 C14.2985933,2.01060896 15.1089263,1.59895659 16.0264251,1.1999351 C18.017873,0.334144608 19.9313823,0 22.0208267,0 C28.4834335,0 34.0927263,7.11119435 34.0927263,22.3543891 C34.0927263,24.888032 33.5861249,28.2932066 31.3173069,28.2932066 C28.4926028,28.2932066 24.6122879,25.5000563 24.6122879,19.6301345 C24.6122879,15.5624119 24.9928121,8.54537516 24.3973834,6.28559307 C24.3016793,5.92159362 24.0569748,5.61443319 23.7240162,5.43932305" id="Stroke-9"></path>
                    </g>
                </g>
            </g>
        </g>
    </g>
</svg>