<?xml version="1.0" encoding="UTF-8"?>
<svg width="43px" height="109px" viewBox="0 0 43 109" version="1.1" xmlns="http://www.w3.org/2000/svg" xmlns:xlink="http://www.w3.org/1999/xlink">
    <title>Group 9 2</title>
    <g id="Final-developed" stroke="none" stroke-width="1" fill="none" fill-rule="evenodd" stroke-linejoin="round">
        <g id="Amenities-Copy" transform="translate(-1013.000000, -6124.000000)" stroke="#6E715A">
            <g id="Group-22" transform="translate(272.000000, 5923.000000)">
                <g id="Group-9" transform="translate(742.000000, 202.000000)">
                    <path d="M25.50311,62.8300922 C25.0891638,67.1507458 24.7633729,69.3365406 23.7821672,76.0671078 C23.4519047,78.3356738 21.4262516,88.1797094 18.892748,101.87897 C18.4302526,104.382479 19.6011836,106.705801 21.4588307,106.974489 C23.3164778,107.243813 25.1025787,105.348354 25.3734324,102.817467 C26.8561005,88.9660352 27.012608,82.2443818 28.8779208,69.4454165 C30.6295262,57.4276835 37.5854821,28.7258351 40.1304842,11.2674912 C40.2639946,10.3493682 39.5031769,9.54012115 38.7557742,9.43188196 C36.2452676,9.06832564 32.8123254,14.9412565 28.239115,27.58423 C22.0854991,44.5956097 21.585953,51.7043774 23.8703224,54.755449 C25.2942205,56.6566384 25.9656053,57.9975309 25.50311,62.8300922 Z" id="Stroke-1"></path>
                    <path d="M21.3541667,106.778159 L22.7159773,106.974536 C24.5786986,107.243362 26.3696781,105.35141 26.6419122,102.825205 C28.1279896,88.9987614 28.2849245,82.2901781 30.1553324,69.5148901 C31.9117222,57.519389 38.4331682,28.8051783 40.9844814,11.3791313 C41.1189971,10.4627068 40.3554607,9.65495674 39.606657,9.54691779 L38.6983562,9.416" id="Stroke-3"></path>
                    <path d="M9.04552452,41.3025933 C9.15409935,43.3424178 12.4574255,79.1751876 13.6441736,91.5338264 C13.860692,93.792769 12.4883567,95.7686313 10.6356408,95.8680577 C8.78355618,95.9681174 7.20732738,94.1505774 7.18207742,91.8821355 C7.04383388,79.4665006 6.50537847,43.4849079 6.39554114,41.4450834 C6.21184767,38.0126559 5.24477418,36.6878149 3.06822756,33.7075559 C0.891680941,30.7272969 -0.0659238208,28.0630492 0.00351357131,22.5135359 C0.0748447105,21.0031411 0.228238222,0.995001986 0.228238222,0.995001986 C0.231394467,0.742319594 0.42897541,0.535234024 0.680843769,0.521934951 L0.680843769,0.521934951 C0.94407461,0.507369299 1.16879926,0.710021844 1.18331799,0.974736732 L2.24002885,20.7358931 C2.26338506,21.1658964 2.62887824,21.4952068 3.05749633,21.4724084 L3.23992729,21.4622758 C3.66097039,21.4401107 3.98732613,21.0842021 3.97470115,20.6611649 L3.38006457,0.844912445 C3.37248959,0.584630582 3.57259553,0.366145806 3.83203887,0.352213444 L3.8800138,0.349680287 C4.13945714,0.335747924 4.3629193,0.532700867 4.38185677,0.79298273 L5.81542329,20.5585721 C5.84572324,20.9816093 6.20869143,21.3026869 6.63162827,21.2798885 L6.63604702,21.2798885 C7.05835261,21.2570901 7.3853396,20.8986484 7.37082087,20.4743446 L6.68717819,0.668858046 C6.6783407,0.407942894 6.87907789,0.18819154 7.13915248,0.174259177 L7.18902116,0.171092731 C7.447202,0.157160369 7.66940166,0.352213444 7.69086413,0.610595439 L9.30307412,20.3774514 C9.33716157,20.7979554 9.69886726,21.1146 10.1186479,21.0924349 L10.1186479,21.0924349 C10.5453722,21.0690032 10.8736217,20.7042286 10.8527905,20.2761251 L9.88445447,0.504202853 C9.87119824,0.240754544 10.0731979,0.0159368759 10.3357975,0.00200451344 L10.36231,0 C10.6135471,-0.0131944275 10.8325905,0.17172602 10.8622592,0.422508545 C10.8622592,0.422508545 13.1492744,20.2989235 13.381574,21.7928528 C14.0424918,27.3037354 13.3746303,30.055377 11.5288582,33.2522209 C9.68245478,36.4490648 8.86246231,37.8701658 9.04552452,41.3025933 Z" id="Stroke-5"></path>
                    <path d="M10.25,0.0297997009 L10.7464861,0 C10.9773695,-0.0126192778 11.1775842,0.171618376 11.204781,0.422966653 C11.204781,0.422966653 14.0465566,20.2503571 14.2595017,21.743885 C14.8653536,27.2526541 14.2531365,30.0035566 12.5605701,33.1995417 C10.8685824,36.3955269 10.1169093,37.8162461 10.2847193,41.2477515 C10.384248,43.2870281 13.4123505,79.1101722 14.5002222,91.4661243 C14.6987009,93.7238269 13.4401259,95.6997916 11.7423517,95.7991913 L10.5005577,95.872" id="Stroke-7"></path>
                </g>
            </g>
        </g>
    </g>
</svg>