<?xml version="1.0" encoding="UTF-8"?>
<svg width="101px" height="55px" viewBox="0 0 101 55" version="1.1" xmlns="http://www.w3.org/2000/svg" xmlns:xlink="http://www.w3.org/1999/xlink">
    <title>Group 18</title>
    <g id="Final-developed" stroke="none" stroke-width="1" fill="none" fill-rule="evenodd" stroke-linejoin="round">
        <g id="Amenities-Copy" transform="translate(-984.000000, -5961.000000)" stroke="#6E715A">
            <g id="Group-22" transform="translate(272.000000, 5923.000000)">
                <g id="Group-20" transform="translate(13.000000, 0.000000)">
                    <g id="Group-18" transform="translate(700.000000, 39.000000)">
                        <path d="M34.4942232,30 C43.5488974,30 57,35.4055871 57,40.0090765 C57,44.1143645 53.3083124,50 44.674908,50 C36.536922,50 29,40.4400444 29,34.5752513 C29,31.1537298 31.9101732,30 34.4942232,30 Z" id="Stroke-1"></path>
                        <path d="M9.80791071,39 C12.3484433,39 15,37.7595395 15,32.9717021 C15,25.2788082 7.50381829,20.9436538 2.44399843,20.0260529 C1.59761112,19.8731194 1,20.4019294 1,21.3902195 C1,22.7040881 1.02946936,27.2594667 1.87517133,30.698091 C2.96211083,35.1195678 6.97953789,39 9.80791071,39 Z" id="Stroke-3"></path>
                        <path d="M17,36.6478519 C23.3255388,37.6601745 27.6238762,41.2685188 29.2362553,43.3236199 C30.8493045,45.3787209 39.9593135,53.0244383 46.6407016,53 C51.7773957,52.9807409 56.0542883,50.2562755 59.3695166,48.5269185 C62.6840749,46.7975616 71.5132913,42.682725 73.2858361,41.7220447 C75.059051,40.7613644 76.0086525,39.0790152 76,36.713398 C75.9905585,34.3477807 75.2621063,33.2056901 74.4485451,32.4840212 L73.1766018,31.3558343 C72.4870182,30.7434089 71.5240137,30.532867 70.6374062,30.8003479 C68.9104316,31.320744 65.571748,32.076179 60.7366211,32.076179 C52.4187285,32.076179 44.8225867,27 35.4438479,27 C29.2429568,27 26.6079299,30.793065 20.3366732,30.793065 C19.1712836,30.793065 17.916094,29.7324104 17.6393224,28.5340429" id="Stroke-5"></path>
                        <path d="M18,37.139169 C16.6860175,39.1719825 13.9800715,41 10.7477526,41 C6.76421531,41 0.901982021,36.5445365 0.901982021,28.2987024 C0.901982021,23.2920679 0,21.1209678 0,19.6360329 C0,18.1504394 2.17957327,17.0461219 3.83277375,16.0945781 C5.04278133,15.3978769 6.82465071,14.5279882 7.69414058,14.1111528 C8.01906206,13.9550864 8.39467129,13.9643056 8.71244449,14.1328835 L8.71244449,14.1328835" id="Stroke-7"></path>
                        <path d="M32,27.6601751 C33.3437074,24.602874 35.2916856,22.3281297 40.2630055,23.1808082 C45.2343253,24.0341879 50.0711419,24.8160436 53.9001779,25.4562537 C57.729214,26.0957625 65.3369302,27.9147164 67,32" id="Stroke-9"></path>
                        <path d="M5,16 C6.78287256,16.5231839 11.6587997,19.0291345 14.2501686,20.461392 C16.8415374,21.892983 18.1335131,23.2119394 19.0148348,26.1064458 C19.567768,27.9225935 19.8927849,29.0016186 20,30" id="Stroke-11"></path>
                        <path d="M7,17.0891976 C8.54412741,16.537396 9.00530856,15.3268179 9.07100199,14.6213243 C9.13669542,13.9151538 9.43331121,12.5644248 10.2899801,13.1385692 C11.146649,13.7133907 13.3211679,15.2259364 16.0225614,16.6044247 C18.7246184,17.982913 23.9303251,20.8400941 25,30" id="Stroke-13"></path>
                        <path d="M10,13.6152937 C27.9260009,2.82802141 50.3383559,-3.06450841 74.5965366,1.62906182 C93.360758,5.25958145 99,13.5668509 99,18.286661 L99,25.9009291 C99,28.0377953 91.1801796,36.4338766 75.3738321,39" id="Stroke-15"></path>
                        <path d="M89.4389337,14 C89.1889809,13.9985948 88.9350181,13.9346212 88.7004368,13.8011708 C84.8261683,11.6026784 80.432613,9.96756698 75.2691495,8.80365927 C66.4553058,6.81634879 58.8344187,5.95580001 52.6210198,6.24746482 C51.7628931,6.28323503 51.0404359,5.60566465 51.0016732,4.72585499 C50.9622421,3.84535744 51.6245502,3.09899818 52.4800037,3.05841275 C58.9640734,2.75436594 66.854963,3.63830293 75.9327942,5.68614763 C81.3916565,6.91678054 86.0578876,8.65713898 90.1974803,11.0062789 C90.9473387,11.432082 91.2206828,12.402693 90.8069908,13.1745042 C90.5229536,13.7048663 89.9889635,14.0034101 89.4389337,14 Z" id="Stroke-17"></path>
                        <path d="M16,17.1581003 C28.3817245,10.088316 48.2143274,7.16530481 74.0386674,13.4648269 C83.8310984,15.8539453 93.7194291,19.3747515 97,23" id="Stroke-19"></path>
                        <path d="M74,32 C83.3451468,30.791272 99,24.9264339 99,18" id="Stroke-21"></path>
                        <path d="M22,38 C20.6972551,39.791406 17.3074137,41.9353799 14,40.5641988" id="Stroke-23"></path>
                    </g>
                </g>
            </g>
        </g>
    </g>
</svg>