<?xml version="1.0" encoding="UTF-8"?>
<svg width="107px" height="65px" viewBox="0 0 107 65" version="1.1" xmlns="http://www.w3.org/2000/svg" xmlns:xlink="http://www.w3.org/1999/xlink">
    <title>Group 33</title>
    <g id="Final-developed" stroke="none" stroke-width="1" fill="none" fill-rule="evenodd" stroke-linejoin="round">
        <g id="Amenities-Copy" transform="translate(-753.000000, -5956.000000)" stroke="#6E715A">
            <g id="Group-22" transform="translate(272.000000, 5923.000000)">
                <g id="Group-20" transform="translate(13.000000, 0.000000)">
                    <g id="Group-33" transform="translate(469.000000, 34.000000)">
                        <path d="M69,38.5445861 L69.93911,40.6603305 L71.1056343,40.9591889 C72.6096588,41.3443601 74.0166338,38.9572695 74.6776321,35.7372597 C75.3381475,32.5172498 75.0020958,29.6840296 73.4985541,29.2988583 L72.331547,29 L70.661428,30.4468196" id="Stroke-1"></path>
                        <path d="M46.8396878,25 L69.8488457,30.5749263 C71.0019157,30.8523582 71.2593974,32.8922655 70.7524304,35.2107234 C70.2459965,37.5291813 69.1670257,39.2480283 68.0139557,38.9705965 L45,33.4337051" id="Stroke-3"></path>
                        <path d="M99.7016355,37 L103.931217,38.0469556 C105.001609,38.3088265 105.240739,40.2348446 104.7704,42.4232616 C104.300062,44.6116786 103.297993,46.2341166 102.227106,45.9722457 L98,44.9358494" id="Stroke-5"></path>
                        <path d="M89.8296002,17 C95.2658376,18.2187377 97.572888,28.5892977 94.8598373,40.1626245 C92.1467865,51.7365021 85.4362374,60.1007985 80,58.8820608" id="Stroke-7"></path>
                        <path d="M95.2589139,23 C99.6185825,23.96862 101.252454,32.5593501 98.9721529,42.1982595 C96.6918521,51.8366125 91.3590945,58.8795536 87,57.9109336" id="Stroke-9"></path>
                        <path d="M22.7528023,6.51641161 C25.0569397,4.52929849 27.5242597,3.61769877 29.8398199,4.14919299 L30.9663233,4.40731621 C36.9186783,5.77362665 39.6193493,16.1584573 36.9986377,27.6030091 C34.3779262,39.0470163 27.427982,47.2171062 21.475627,45.8507957 L20.3491235,45.592128 C18.0335634,45.0606337 16.2097265,43.1639182 15,40.3703062" id="Stroke-11"></path>
                        <path d="M27.0446107,4.17354688 C30.1931364,0.982602571 33.657591,-0.565968133 36.8852334,0.188294962 L38.2813488,0.514136619 C45.6596629,2.23824492 49.0073261,15.3432234 45.7586935,29.7850303 C42.5100609,44.2262886 33.8954796,54.5358309 26.5177036,52.8117226 L25.1215882,52.4858809 C21.917627,51.7371034 19.4736176,48.8423788 18,44.6234424" id="Stroke-13"></path>
                        <path d="M12,33.616936 L13.4023334,33.9784251 C13.8511032,34.0939459 14.3934388,33.7480326 14.7948481,32.880978 L16.1093912,30.0338458 C16.3513919,29.5094595 16.6725193,29.1512154 17,29" id="Stroke-15"></path>
                        <path d="M19,16 C18.7386581,15.7759434 18.572524,15.4123428 18.5565495,14.9627555 L18.4683706,12.5354756 C18.4408946,11.7969733 18.0485623,11.3611439 17.5520767,11.2736832 L16,11" id="Stroke-17"></path>
                        <path d="M18,29.6621652 L19.3028095,29.9811709 C19.9547516,30.1406738 20.6389416,29.2645556 20.8684381,28.1962307 C20.9555071,27.7894411 20.9770056,27.3556851 20.9060605,26.9397154 L20.4621164,24.3475072 C20.3943961,23.9527663 20.4126698,23.5098304 20.5040385,23.0846807 C20.5954071,22.659531 20.7593332,22.2521676 20.9823802,21.9262769 L22.4399789,19.7993809 C22.6732377,19.4591464 22.8307143,19.0592418 22.9177832,18.6530259 C23.1472798,17.5858485 22.8887602,16.4790823 22.236818,16.3195795 L20.9313213,16" id="Stroke-19"></path>
                        <path d="M1.38651358,23.5987499 C0.0449879321,23.2901299 -0.294653192,21.1936819 0.244910467,18.8291166 C0.784474126,16.4645514 1.9993443,14.726924 3.34086994,15.035544 L13.613594,17.4012501 C14.9545517,17.7098701 15.2947608,19.8063181 14.7551972,22.1708834 C14.2150655,24.5354486 13.0001954,26.273076 11.6586697,25.964456 L1.38651358,23.5987499 Z" id="Stroke-21"></path>
                        <path d="M4.33993708,16 C5.94613627,16.2876608 6.35278619,18.2375978 5.70677043,20.4375132 C5.06075467,22.6374285 3.60619918,24.2540611 2,23.966931" id="Stroke-23"></path>
                        <path d="M11.8947405,15.0582749 C14.5872289,9.1096036 18.7981992,5.26023472 22.42002,6.11972167 L23.3284263,6.33514863 C28.1280095,7.47391332 30.3059311,16.1293023 28.1923974,25.6669423 C26.0788638,35.2051376 20.4749681,42.0144063 15.6753849,40.8756417 L14.7669786,40.6602147 C11.1456943,39.801283 8.92162811,34.4511433 9.00211302,27.8833971" id="Stroke-25"></path>
                        <path d="M63.3625618,29.1368068 C67.2304105,16.8871434 75.0020982,8.63147033 81.7524294,10.1882544 L83.1664054,10.5146415 C90.6419924,12.2387332 94.0337899,25.3435856 90.7423286,39.7847051 C87.4508673,54.2263732 78.7227146,64.5358163 71.2476729,62.8117246 L69.8331516,62.4858861 C63.0828203,60.9285535 59.662667,50.0919541 61.4861671,37.3710864" id="Stroke-27"></path>
                        <path d="M65.1536104,30.552572 C67.8926593,22.5464894 72.663115,17.1876317 76.675266,18.1012517 C82.0079131,19.3163447 83.1993014,28.2512022 80.8562923,38.4049413 C78.5132833,48.5586805 73.5232897,56.0863033 68.1906426,54.8712103 C64.1779468,53.9575903 62.2342462,47.0691767 63.2790942,38.6771871" id="Stroke-29"></path>
                        <path d="M7.2230295,24.7634538 C7.1671281,24.905644 7.1189754,25.0505478 7.08465969,25.1970797 C6.83282664,26.273275 7.15163068,27.3896309 7.92373421,27.4221936 L9.6406268,27.4932887 C10.1664321,27.5160825 10.5383701,28.0870142 10.5616162,28.9043365 L10.6396568,31.5858701 C10.687256,33.219972 11.9984483,33.5152067 12.767231,32.0639982 L14.0269497,29.6831264 C14.4110643,28.9580649 15.0010732,28.6025894 15.4842606,28.8071913 L17.0616764,29.4763536 C17.7701298,29.7770153 18.5533029,28.9070501 18.805136,27.830312 C18.8947996,27.4460729 18.9169388,27.0352409 18.8438795,26.6423183 L18.3867057,24.1903513 C18.3169673,23.8164237 18.3357856,23.3979937 18.4298771,22.9958451 C18.5239685,22.5936964 18.6927797,22.2078291 18.9219201,21.9001122 L20.4229558,19.8882836 C20.6637193,19.5664561 20.8258887,19.1876441 20.9155523,18.8039476 C21.1668319,17.728295 20.8485813,16.6108536 20.0775847,16.5788337 L18.3601387,16.5071959 C17.8343334,16.4849448 17.4612884,15.9134704 17.4380423,15.0928918 L17.3622156,12.4119009 C17.3140629,10.7805125 16.0028706,10.4858206 15.2346414,11.9337728 L13.9732623,14.3141019 C13.5880407,15.0424197 13.0002458,15.3978952 12.5165049,15.193836 L10.9396426,14.524131 C10.2300822,14.224012 9.44690907,15.0923491 9.1956295,16.167459 C9.16131378,16.3139909 9.14083505,16.4648645 9.12810503,16.6168235" id="Stroke-31"></path>
                    </g>
                </g>
            </g>
        </g>
    </g>
</svg>