<svg id="Calque_1" data-name="Calque 1" xmlns="http://www.w3.org/2000/svg" viewBox="0 0 86.68 58.9"><defs><style>.cls-1{fill:none;stroke:#6e715b;stroke-miterlimit:10;}</style></defs><path class="cls-1" d="M87.82,35.05v8.24A2.06,2.06,0,0,1,86.63,45V36.73A2,2,0,0,0,87.82,35.05Z" transform="translate(-1.64 -14.9)"/><path class="cls-1" d="M2.14,53.65V45.41a2.06,2.06,0,0,0,1.22,1.7v8.24A2.06,2.06,0,0,1,2.14,53.65Z" transform="translate(-1.64 -14.9)"/><polygon class="cls-1" points="84.98 21.83 84.98 30.07 37.43 57.7 37.43 49.47 84.98 21.83"/><polygon class="cls-1" points="31.6 49.47 31.6 57.7 1.72 40.45 1.72 32.21 31.6 49.47"/><path class="cls-1" d="M86.61,33.35c1.61.93,1.62,2.45,0,3.38L39.07,64.36a6.44,6.44,0,0,1-5.83,0L3.36,47.11c-1.62-.94-1.63-2.45,0-3.38L50.89,16.1a6.38,6.38,0,0,1,5.83,0Z" transform="translate(-1.64 -14.9)"/><path class="cls-1" d="M86.61,33.35c1.61.93,1.62,2.45,0,3.38L39.07,64.36a6.44,6.44,0,0,1-5.83,0L3.36,47.11c-1.62-.94-1.63-2.45,0-3.38L50.89,16.1a6.38,6.38,0,0,1,5.83,0Z" transform="translate(-1.64 -14.9)"/><path class="cls-1" d="M75.53,35.6,37.09,57.94a.72.72,0,0,0,0,1.36l5.37,3.1L83.24,38.69,77.88,35.6a2.56,2.56,0,0,0-2.35,0" transform="translate(-1.64 -14.9)"/><path class="cls-1" d="M43.25,57.21a.49.49,0,0,0,0,.93,1.74,1.74,0,0,0,1.6,0,.49.49,0,0,0,0-.93,1.82,1.82,0,0,0-1.61,0" transform="translate(-1.64 -14.9)"/><path class="cls-1" d="M48.43,54.21c-.45.25-.44.67,0,.93a1.82,1.82,0,0,0,1.61,0,.49.49,0,0,0,0-.93,1.74,1.74,0,0,0-1.6,0" transform="translate(-1.64 -14.9)"/><path class="cls-1" d="M53.6,51.2a.49.49,0,0,0,0,.93,1.76,1.76,0,0,0,1.61,0c.44-.26.44-.67,0-.93a1.74,1.74,0,0,0-1.6,0" transform="translate(-1.64 -14.9)"/><path class="cls-1" d="M58.77,48.19c-.44.26-.44.67,0,.93a1.74,1.74,0,0,0,1.6,0c.45-.26.44-.67,0-.93a1.82,1.82,0,0,0-1.61,0" transform="translate(-1.64 -14.9)"/><path class="cls-1" d="M64,45.18a.49.49,0,0,0,0,.93,1.76,1.76,0,0,0,1.61,0c.44-.25.44-.67,0-.93a1.8,1.8,0,0,0-1.6,0" transform="translate(-1.64 -14.9)"/><path class="cls-1" d="M69.12,42.18c-.44.25-.44.67,0,.93a1.8,1.8,0,0,0,1.6,0,.49.49,0,0,0,0-.93,1.76,1.76,0,0,0-1.61,0" transform="translate(-1.64 -14.9)"/><path class="cls-1" d="M74.3,39.17a.49.49,0,0,0,0,.93,1.76,1.76,0,0,0,1.61,0c.44-.26.44-.67,0-.93a1.74,1.74,0,0,0-1.6,0" transform="translate(-1.64 -14.9)"/><path class="cls-1" d="M46.3,41a1.68,1.68,0,0,0-1,1.37c0,1.07,1.51,1.94,3.36,1.94a4.81,4.81,0,0,0,2.36-.57,1.67,1.67,0,0,0,1-1.37c0-1.07-1.51-1.93-3.36-1.93A4.81,4.81,0,0,0,46.3,41m-6.45-3.73c-3.11,1.81-5,4.29-5.06,7h5c0-1.89,1.31-3.66,3.6-5A17.74,17.74,0,0,1,52,37.19V34.31a24.87,24.87,0,0,0-12.11,2.95m-6.29-3.62c-4.9,2.84-7.6,6.62-7.62,10.65h5c0-3.25,2.21-6.31,6.18-8.62a30.26,30.26,0,0,1,14.85-3.6V29.19c-7,0-13.47,1.6-18.37,4.45" transform="translate(-1.64 -14.9)"/><path class="cls-1" d="M39.07,64.36V72.6a6.44,6.44,0,0,1-5.83,0V64.36A6.44,6.44,0,0,0,39.07,64.36Z" transform="translate(-1.64 -14.9)"/><path class="cls-1" d="M83.24,38.69v3.66a1.74,1.74,0,0,1-.86,1.5l-39,22.64a.64.64,0,0,1-1-.56V62.4Z" transform="translate(-1.64 -14.9)"/></svg>