<svg id="Layer_1" data-name="Layer 1" xmlns="http://www.w3.org/2000/svg" viewBox="0 0 90 90"><defs><style>.cls-1{fill:none;stroke:#6e715b;stroke-linejoin:round;}</style></defs><g id="cat"><path class="cls-1" d="M34.83,53.62h2a8.84,8.84,0,0,1,7.82,13l-2,3.73h5.89a3.93,3.93,0,0,1,3.94,3.93v1H29.91c-4.91,0-15.8-4.67-9.82-22.6,3.5-10.52-1-16-3.87-18.33a2.54,2.54,0,0,1-.4-3.5h0a2.54,2.54,0,0,1,3.42-.62c3.1,2.06,8.43,7.27,7.73,18.52"/><path class="cls-1" d="M57.43,75.24h5.9v-1a3.93,3.93,0,0,0-3.94-3.93h-2V57l2.49-3a14.73,14.73,0,0,0,3.41-9.42v-6A4.58,4.58,0,0,1,67.9,34h0a4.91,4.91,0,0,0,4.86-4.22l.13-.91a2,2,0,0,0-1.47-2.18l-.56-.14a3,3,0,0,1-2.12-2.05l-.07-.25a6.86,6.86,0,0,0-6.61-5h-.71V14.31C49.57,19.23,48.58,33,48.58,33S24,35,24,64.43v1"/><line class="cls-1" x1="61.36" y1="17.26" x2="61.36" y2="21.19"/></g></svg>