<svg id="Layer_1" data-name="Layer 1" xmlns="http://www.w3.org/2000/svg" viewBox="0 0 90 90"><defs><style>.cls-1{fill:#6e715b;}.cls-2{fill:none;stroke:#6e715b;stroke-linejoin:round;}</style></defs><path class="cls-1" d="M42.13,49.18l-2.36-1.37a.29.29,0,0,0-.27,0l-.18.1h-.14l-.09,0h0L39,48l-.27.14-.86-.56-1.1-.67-2.19-1.12a.24.24,0,0,0-.22,0l-.17.08a.27.27,0,0,0-.15.24v.65a.26.26,0,0,0,.11.21l6.52,4.42a.28.28,0,0,0,.15,0l.11,0,.32-.16h0l.06,0,.07,0,.09-.08s0,0,0-.06l.6-.33a.28.28,0,0,0,.13-.23v-.93a.19.19,0,0,0,0-.08A.26.26,0,0,0,42.13,49.18Zm-1.39,1.57-3-1.93-3.13-2.23v-.25l.31.15,2.41,1.33v0a.25.25,0,0,0,.12.24l3.25,2.09,0,0Z"/><path class="cls-1" d="M42.13,40l-2.36-1.36a.26.26,0,0,0-.27,0l-.18.1h-.14l-.09,0h0l-.06,0-.27.13-.86-.55-1.1-.68-2.19-1.12a.24.24,0,0,0-.22,0l-.17.07a.28.28,0,0,0-.15.24v.65a.26.26,0,0,0,.11.21l6.52,4.42a.3.3,0,0,0,.15.05l.11,0,.32-.15h0l.06,0,.07,0,.09-.08,0-.07.6-.32a.28.28,0,0,0,.13-.24v-.92a.24.24,0,0,0,0-.08A.27.27,0,0,0,42.13,40Zm-1.39,1.57-3-1.92-3.13-2.23v-.25l.31.14,2.41,1.34h0a.28.28,0,0,0,.12.25L40.7,41l0,0Z"/><path class="cls-2" d="M26.41,11.34l19.22,11a4.8,4.8,0,0,1,2.52,3.5c.16,2.31,0,63.06,0,63.06L66.58,78.43V16.63a5.54,5.54,0,0,0-3-4.86C60.58,10.28,45,1.34,45,1.34a1.64,1.64,0,0,0-1.41.3c-.81.53-18.44,10.41-18.44,10.41a4.61,4.61,0,0,0-1.72,3.83c.09,2.57,0,58.28,0,58.28a4.32,4.32,0,0,0,2,3.82c2.18,1.27,17.62,9.91,17.62,9.91a4.23,4.23,0,0,0,5.15-.25"/><path class="cls-2" d="M23.45,34.78,41.76,45.53a6.77,6.77,0,0,0,6.39.62"/></svg>