<svg id="Calque_1" data-name="Calque 1" xmlns="http://www.w3.org/2000/svg" viewBox="0 0 90 90"><defs><style>.cls-1,.cls-2{fill:none;stroke:#6e715b;}.cls-1{stroke-linejoin:round;}.cls-2{stroke-miterlimit:10;}</style></defs><polyline class="cls-1" points="78.33 46.87 89.08 53.12 54.18 73.28 1.8 43.13 36.67 22.8 38.81 24.09 56.3 34.03"/><polyline class="cls-2" points="18.68 47.61 18.68 36.32 35.32 26.52 45.89 32.43 45.89 44.34"/><polyline class="cls-2" points="29.25 53.85 29.25 41.84 18.85 36.03"/><polyline class="cls-2" points="29.25 41.84 31.98 40.23 25.15 36.03 35.39 30.23 42.74 34.34 45.89 32.43"/><polyline class="cls-2" points="42.74 34.34 42.74 38.9 32.28 44.94 32.28 40.22"/><polyline class="cls-2" points="29.25 38.4 35.52 34.75 42.41 38.73"/><line class="cls-2" x1="35.52" y1="34.75" x2="35.52" y2="30.23"/><polyline class="cls-2" points="18.68 44.58 29.1 50.45 45.7 41.11"/><polyline class="cls-2" points="78.33 35.59 71.96 39.18 56.15 30.06"/><line class="cls-2" x1="71.96" y1="39.18" x2="72.09" y2="50.34"/><line class="cls-2" x1="71.96" y1="46.57" x2="56.15" y2="37.67"/><line class="cls-2" x1="71.96" y1="42.74" x2="56.3" y2="34.03"/><path class="cls-2" d="M74.76,25.94l.9,3.92a3.58,3.58,0,0,1-3.38,1.91,5.29,5.29,0,0,1-3.69-1.16,2.22,2.22,0,0,1-.4-.94l-5.64-3.2-6.4,3.59V41.38l15.94,9,6.24-3.47V35.59l-3.36-2"/><line class="cls-2" x1="68.19" y1="29.67" x2="69.15" y2="26.06"/><path class="cls-2" d="M74.34,31.24s2.48,4.42-2.38,4.35c-4.6-.07-2.36-4.35-2.36-4.35"/><ellipse class="cls-2" cx="71.96" cy="25.65" rx="2.88" ry="1.67"/></svg>