<svg id="Calque_1" data-name="Calque 1" xmlns="http://www.w3.org/2000/svg" viewBox="0 0 90 90"><defs><style>.cls-1{fill:none;stroke:#6e715b;stroke-miterlimit:10;}</style></defs><path class="cls-1" d="M4.64,41.34V50l33.3,18.82s2.07.44,3.11-.31L66.69,53.7,88.87,41.06s.56-1.05-.17-1.6a2.29,2.29,0,0,0-2.61-.11c-1.09.51-19.57,11.3-19.57,11.3s-1.75.57-2.7-.08-.6-1.42.57-1.88l.53-.33L83.25,37.91s.56-1-.17-1.6a2.29,2.29,0,0,0-2.61-.11c-1.09.51-19.57,11.3-19.57,11.3s-1.75.58-2.7-.07-.6-1.42.57-1.88l.34-.21L78,34.59s.56-1.05-.17-1.61a2.31,2.31,0,0,0-2.61-.1c-1.09.51-19.57,11.3-19.57,11.3s-1.75.57-2.7-.08-.6-1.42.57-1.88l.38-.2,18.8-10.71s.56-1-.17-1.6a2.29,2.29,0,0,0-2.61-.11c-1.09.51-19.57,11.3-19.57,11.3s-1.75.57-2.69-.08-.61-1.42.56-1.88l.59-.3L67.18,28.16s.56-1-.17-1.6a2.29,2.29,0,0,0-2.61-.11C63.31,27,44.83,37.76,44.83,37.76s-1.75.57-2.7-.08-.6-1.42.57-1.88L61.62,25.16a1.32,1.32,0,0,0-.24-1.55,2.25,2.25,0,0,0-2.53-.08c-.92.42-21.47,12.35-21.47,12.35a.78.78,0,0,0,.12,1.35S59.83,50.3,61.65,51.14s1,1.76,1,1.76l-2,1.21c-1.09.51-19.57,11.3-19.57,11.3s-1.75.58-2.7-.07-.6-1.42.57-1.88l.53-.34L57.85,52.68s.56-1-.17-1.61a2.31,2.31,0,0,0-2.61-.1C54,51.48,35.5,62.27,35.5,62.27s-1.75.57-2.7-.08-.6-1.42.57-1.88l.34-.21L52.58,49.35s.56-1.05-.17-1.6a2.29,2.29,0,0,0-2.61-.11c-1.09.51-19.57,11.3-19.57,11.3s-1.75.58-2.7-.07-.6-1.42.57-1.89l.38-.19,18.8-10.72s.56-1-.17-1.6a2.29,2.29,0,0,0-2.61-.11c-1.09.51-19.56,11.3-19.56,11.3s-1.76.58-2.7-.07-.6-1.42.56-1.88l.59-.3L41.78,42.93s.56-1-.17-1.61a2.31,2.31,0,0,0-2.61-.1c-1.09.51-19.57,11.3-19.57,11.3s-1.75.57-2.7-.08-.6-1.42.57-1.88L36.22,39.92A1.32,1.32,0,0,0,36,38.37a2.25,2.25,0,0,0-2.53-.07C32.53,38.71,12,50.65,12,50.65a.76.76,0,0,1-.76,0l-4-2.17V40.2"/><polygon class="cls-1" points="1.35 32.39 1.35 40.83 3.68 42.18 7.93 39.73 7.93 31.28 5.6 29.94 1.35 32.39"/><polyline class="cls-1" points="1.35 32.39 3.43 33.7 7.93 31.28"/><line class="cls-1" x1="3.68" y1="33.56" x2="3.68" y2="42.18"/></svg>