<svg id="Layer_1" data-name="Layer 1" xmlns="http://www.w3.org/2000/svg" viewBox="0 0 90 90"><defs><style>.cls-1,.cls-2{fill:none;stroke:#6e715b;}.cls-1{stroke-linejoin:round;}.cls-2{stroke-miterlimit:10;}</style></defs><polyline class="cls-1" points="68.88 19.92 68.94 19.96 68.94 81.32 54.91 89.22 54.91 28.35 54.91 28.11 22.12 8.61 35.13 0.66 68.94 19.96"/><polyline class="cls-1" points="54.91 72.95 35.5 61.94 21.62 70.07 21.26 70.29 21.79 8.62"/><line class="cls-1" x1="35.5" y1="61.94" x2="35.5" y2="52.89"/><path class="cls-2" d="M46.07,48.45a1.38,1.38,0,0,0,1-.41,2.74,2.74,0,0,0,0-3.2,95,95,0,0,0-5.89-8.6c0-1.89-.08-2.1-1.13-4.29a2,2,0,0,1,.1-2.34,1.51,1.51,0,0,1,1.64-.4c.78.31,1.22,1.29,1.22,2.7a.81.81,0,0,0,1.62,0c0-3-1.57-3.94-2.25-4.2a3.12,3.12,0,0,0-3.41.8,3.61,3.61,0,0,0-.38,4.15c.84,1.73,1,2,1,3.17A19.89,19.89,0,0,0,34,37.61a1.75,1.75,0,0,0-.81,1.61,3.56,3.56,0,0,0,1.55,2.91L45.2,48.2A1.71,1.71,0,0,0,46.07,48.45Zm-11.25-8.8a1.25,1.25,0,0,1,0-.66A19.4,19.4,0,0,1,40,37.39a95.22,95.22,0,0,1,5.65,8.26,1.85,1.85,0,0,1,.29,1.1l-10.44-6A1.8,1.8,0,0,1,34.82,39.65Z"/><line class="cls-1" x1="21.06" y1="70.62" x2="54.91" y2="89.22"/></svg>