<svg id="Layer_1" data-name="Layer 1" xmlns="http://www.w3.org/2000/svg" viewBox="0 0 90 90"><defs><style>.cls-1{fill:none;stroke:#6e715b;stroke-linejoin:round;}</style></defs><polyline class="cls-1" points="38.01 23.48 35.88 22.19 1.19 42.42 53.3 72.42 88.02 52.35 81.34 48.47"/><polyline class="cls-1" points="73.13 52.92 86.46 45.48 86.46 37.62 83.94 36.2"/><polyline class="cls-1" points="86.46 37.62 72.75 45.51 72.8 52.92 36.15 31.9 36.15 24.48 49.19 16.98"/><polyline class="cls-1" points="36.15 24.48 38.33 25.71 48.7 19.75"/><line class="cls-1" x1="38.33" y1="25.71" x2="38.33" y2="28.51"/><polygon class="cls-1" points="49.42 16.1 47.66 23.13 37.51 28.99 37.51 30.83 70.03 49.6 70.85 49.13 70.85 44.38 83.86 36.97 83.86 33.87 51.17 15.09 49.42 16.1"/><polyline class="cls-1" points="83.86 33.97 82.05 34.88 49.42 16.1"/><line class="cls-1" x1="82.05" y1="34.88" x2="81.29" y2="38.26"/><line class="cls-1" x1="77.4" y1="40.5" x2="47.71" y2="23.36"/><polyline class="cls-1" points="67.43 24.48 65.59 25.65 63.86 32.59 54.06 38.48 54.06 40.23"/><line class="cls-1" x1="37.51" y1="29.19" x2="70.62" y2="48.05"/><line class="cls-1" x1="70.68" y1="44.38" x2="72.75" y2="45.51"/><polyline class="cls-1" points="72.42 52.84 72.57 54.35 73.07 54.71 73.67 54.41 73.88 52.51"/><polyline class="cls-1" points="82.92 47.46 82.92 48.32 83.46 48.73 84.13 48.4 84.25 46.76"/><polyline class="cls-1" points="37.95 32.93 38.1 34.6 38.75 34.88 39.21 34.53 39.44 33.78"/><ellipse class="cls-1" cx="53.69" cy="54.44" rx="10.98" ry="6.36"/><path class="cls-1" d="M42.71,54.44v3.45s.81,4.78,6.76,5.87a18.24,18.24,0,0,0,13.18-2.23c3-1.79,2-6.55,2-6.55"/></svg>