<svg id="Layer_1" data-name="Layer 1" xmlns="http://www.w3.org/2000/svg" viewBox="0 0 90 90"><defs><style>.cls-1,.cls-2{fill:none;stroke:#6e715b;stroke-miterlimit:10;}.cls-2{stroke-width:0.5px;}</style></defs><polyline class="cls-1" points="68.48 16.4 60.67 11.67 1.73 44.93 1.73 63.81 28.85 79.41 88.12 46.34 88.12 27.56 72.7 18.99"/><polyline class="cls-1" points="1.73 44.93 29.01 60.77 87.98 27.64"/><path class="cls-1" d="M66.86,19.49l7.41,4.4c6.42,3.37,2.13,5.41,2.13,5.41S44.45,47.35,37.27,52.39s-11,1.92-11,1.92-8.94-4.76-12.82-7S13,42.71,13,42.71L56.33,18.13A8.32,8.32,0,0,1,63,17.85L65.56,19"/><path class="cls-1" d="M76.4,29.3,63.68,22.17a10,10,0,0,0-8.19.65C51,25.12,13.7,47.17,13.7,47.17"/><line class="cls-1" x1="29.01" y1="60.77" x2="28.85" y2="79.41"/><path class="cls-2" d="M64.62,12.43l1.5-.76a.92.92,0,0,1,.82.38c.3.45.47,1.2.09,1.45s-1.18.65-1.18.65-.93,0-1.12-.51A1.49,1.49,0,0,1,64.62,12.43Z"/><path class="cls-2" d="M73.89,17.77,75.38,17a.94.94,0,0,1,.83.38c.3.44.46,1.2.09,1.45s-1.19.64-1.19.64-.93,0-1.11-.5A1.41,1.41,0,0,1,73.89,17.77Z"/><path class="cls-2" d="M65.29,12.09s.59-1,1-1,11.32,6.43,11.32,6.43a.79.79,0,0,1,.46.56c.12.44-.13,1.29-.46,1.36a1.65,1.65,0,0,1-.92-.05A7,7,0,0,1,76,19"/><line class="cls-2" x1="66.76" y1="13.67" x2="70.2" y2="15.67"/><line class="cls-2" x1="71.51" y1="16.4" x2="73.89" y2="17.66"/><path class="cls-2" d="M77.63,17.53a1.35,1.35,0,0,0-.94,1.66"/><path class="cls-2" d="M71,15.19l-3.13,1.48a10.44,10.44,0,0,0-1.78,1.58,2.91,2.91,0,0,0-.57,2.11,5.82,5.82,0,0,0,.19,1.47.5.5,0,0,0,.57.52c.61-.05.44-.67.44-1.22s.1-1.64.1-1.64,0-.34.55-.84c.23-.2,2.91-1.62,2.91-1.62l1.67-1s.28-.54.09-.82A.8.8,0,0,0,71,15.19Z"/><path class="cls-2" d="M70.68,17v3.66a.87.87,0,0,0,1,.79c.89-.14,1-.67,1-.67v-3.7"/></svg>