<svg id="Calque_1" data-name="Calque 1" xmlns="http://www.w3.org/2000/svg" viewBox="0 0 58.25 88.27"><defs><style>.cls-1{fill:none;stroke:#6e715b;stroke-miterlimit:10;}</style></defs><polyline class="cls-1" points="16.44 35.22 16.44 33.8 15.42 33.22 0.5 41.82 0.5 43.03 34.26 62.53 48.98 54.03 48.98 52.59 47.77 51.91 34.26 59.71 4.16 42.32 16.44 35.22 16.44 33.8"/><polyline class="cls-1" points="0.5 43.03 0.5 59.15 34.26 78.84 34.26 62.53 34.26 62.28"/><line class="cls-1" x1="34.5" y1="79.27" x2="48.99" y2="70.52"/><line class="cls-1" x1="0.5" y1="59.15" x2="14.5" y2="51.12"/><polyline class="cls-1" points="57.67 88.27 57.75 29.7 8.12 0.87 8.12 37.41"/><polyline class="cls-1" points="17.38 49.96 17.38 20.32 38.68 33.24 38.68 57.16"/></svg>