<?xml version="1.0" encoding="UTF-8"?>
<svg width="60px" height="87px" viewBox="0 0 60 87" version="1.1" xmlns="http://www.w3.org/2000/svg" xmlns:xlink="http://www.w3.org/1999/xlink">
    <title>Group 25</title>
    <g id="Final-developed" stroke="none" stroke-width="1" fill="none" fill-rule="evenodd" stroke-linejoin="round">
        <g id="Amenities-Copy" transform="translate(-547.000000, -6139.000000)" stroke="#6E715A">
            <g id="Group-22" transform="translate(272.000000, 5923.000000)">
                <g id="Group-25" transform="translate(305.000000, 259.500000) rotate(-360.000000) translate(-305.000000, -259.500000) translate(276.000000, 217.000000)">
                    <path d="M12,82 L12.030175,80.7574511 C12.0515489,79.881622 12.5871547,79.1145999 13.3666748,78.8439258 L27.3100269,74 L30,74.0745529" id="Stroke-1"></path>
                    <path d="M30,74 L44.6683178,79.7121569 C45.4887251,80.0317038 46.022192,80.8418612 45.9992906,81.7348134 L45.9676329,83" id="Stroke-3"></path>
                    <path d="M46,82.8100424 C45.9603731,84.2253716 38.3169366,85.191675 28.9279695,84.9677608 C19.5390023,84.7438466 11.9605278,83.4153291 12,82" id="Stroke-5"></path>
                    <path d="M12,80 C13.2279405,81.4504409 20.341572,82.7292279 28.9608454,82.9629253 C37.4853582,83.1938653 44.5891188,82.3238765 46,80.9671904" id="Stroke-7"></path>
                    <path d="M19.575612,30 C23.3544236,20.9095121 18.5776216,20.1185267 22.8268109,14.5920192 C24.1313693,12.8951022 28.9239602,6.66203297 28.9239602,6.66203297 C29.3719704,6.07950921 27.7943955,4.15399867 25.4010605,2.36031904 C23.0077255,0.567288823 20.7045188,-0.41462414 20.2565086,0.167899621 C20.2565086,0.167899621 15.4639178,6.40096881 14.1587015,8.09788586 C9.90951217,13.6243933 7.85366503,9.29540405 0,15.3329998" id="Stroke-9"></path>
                    <path d="M15,25.1009008 C13.0060021,26.330981 10.3057546,26.3272685 8.28761135,24.9140375 C6.26946812,23.5008065 5.53907331,21.1031401 6.28690638,19" id="Stroke-11"></path>
                    <path d="M0,15.0777398 C0.43408066,14.485078 5.03112871,17.3453155 10.2687804,21.4661982 C15.506432,25.5864203 19.4010471,29.4073382 18.9669664,30" id="Stroke-13"></path>
                    <path d="M6,22 C2.20924354,18.9645286 -0.320688201,16.4595584 0.0329033671,16" id="Stroke-15"></path>
                    <path d="M20,29.9275526 C19.6195718,30.3761872 16.2734543,28.701654 12,26" id="Stroke-17"></path>
                    <polygon id="Stroke-19" points="57 36.662614 25.2025834 13 24 14.5533181 55.5067815 38"></polygon>
                    <polyline id="Stroke-21" points="28.3309383 63.2226411 28 73.9291887 30.7121724 74 31 63"></polyline>
                    <path d="M57.7416935,36.3265849 L57.7416935,36.3265849 C57.3736609,35.917597 56.7491597,35.8889418 56.3465038,36.2621107 L28.3215286,62.2569365 C27.9188728,62.6301053 27.8906612,63.2644273 28.2580526,63.6734151 L28.2580526,63.6734151 C28.6260852,64.082403 29.2505865,64.1110582 29.6532423,63.7378893 L57.6782175,37.7437148 C58.0808733,37.3698947 58.1097261,36.7355727 57.7416935,36.3265849 Z" id="Stroke-23"></path>
                </g>
            </g>
        </g>
    </g>
</svg>