<?xml version="1.0" encoding="UTF-8"?>
<svg id="Layer_1" data-name="Layer 1" xmlns="http://www.w3.org/2000/svg" viewBox="0 0 90 90">
  <defs>
    <style>
      .cls-1 {
        fill: #dea179;
      }
    </style>
  </defs>
  <path class="cls-1" d="m87.95,65.17h-12.51v-11.69h12.51c1.13,0,2.05-.92,2.05-2.05v-12.85c0-1.13-.92-2.05-2.05-2.05h-12.51v-12.27c0-1.13-.92-2.05-2.05-2.05h-12.5v-12.27c0-1.13-.92-2.05-2.05-2.05h-6.87c-.73,0-1.32.59-1.32,1.32s.59,1.32,1.32,1.32h6.28v11.69h-26.48v-11.69h14.88c.73,0,1.32-.59,1.32-1.32s-.59-1.32-1.32-1.32H2.06C.93,7.88,0,8.8,0,9.93v13.45s0,.09,0,.14v14.32s0,.09,0,.14v14.05s0,.09,0,.14v4.67c0,.73.59,1.32,1.32,1.32s1.32-.59,1.32-1.32v-3.35h11.92v11.69H2.64v-3.04c0-.73-.59-1.32-1.32-1.32s-1.32.59-1.32,1.32v4.36s0,.09,0,.14v13.45c0,1.13.92,2.05,2.05,2.05h85.89c1.13,0,2.05-.92,2.05-2.05v-12.85c0-1.13-.92-2.05-2.05-2.05Zm-13.83-26.01h13.24v11.69h-26.48v-11.69h13.24Zm-27.8-14.32h26.48v11.69h-26.48v-11.69Zm11.92,14.32v11.69h-26.48v-11.69h26.48Zm-14.56-14.32v11.69h-26.48v-11.69h26.48ZM2.64,10.51h26.48v11.69H2.64v-11.69Zm0,14.32h11.92v11.69H2.64v-11.69Zm0,26.01v-11.69h26.48v11.69H2.64Zm26.48,28.64H2.64v-11.69h26.48v11.69Zm1.32-14.32h-13.25v-11.69h26.48v11.69h-13.23Zm27.8,14.32h-26.48v-11.69h26.48v11.69Zm1.32-14.32h-13.25v-11.69h26.48v11.69h-13.24Zm27.8,14.32h-26.48v-11.69h26.48v11.69Z"/>
</svg>