<?xml version="1.0" encoding="UTF-8"?>
<svg id="Layer_1" data-name="Layer 1" xmlns="http://www.w3.org/2000/svg" viewBox="0 0 90 90">
  <defs>
    <style>
      .cls-1 {
        fill: #dea179;
      }
    </style>
  </defs>
  <path class="cls-1" d="m89.1,14.1h-8.4c-.51,0-.9.42-.9.9v59.1h-18.66V23.31c0-.51-.42-.9-.9-.9H10.2v-7.41c0-.51-.42-.9-.9-.9H.9c-.51,0-.9.42-.9.9v60c0,.51.42.9.9.9h88.2c.51,0,.9-.42.9-.9V15c0-.51-.42-.9-.9-.9ZM8.4,23.28v50.82H1.8V15.9h6.6v7.38Zm35.76.93h6.66v3.6h-6.66v-3.6Zm-8.49,0h6.66v3.6h-6.66v-3.6Zm-8.49,0h6.66v3.6h-6.66v-3.6Zm-8.49,0h6.66v3.6h-6.66v-3.6Zm-8.49,0h6.66v3.6h-6.66v-3.6Zm0,11.97h6.66v25.14h-6.66v-25.14Zm6.69,37.92h-6.69v-4.38h6.66v4.38h.03Zm8.49,0h-6.66v-4.38h6.66v4.38h0Zm8.49,0h-6.66v-4.38h6.66v4.38Zm8.46,0h-6.66v-4.38h6.66v4.38Zm8.49,0h-6.66v-4.38h6.66v4.38Zm8.49,0h-6.66v-4.38h6.66v4.38Zm0-6.18H10.2v-4.77h49.11v4.77h0Zm-40.62-6.57v-25.14h6.66v25.14h-6.66Zm8.49,0v-25.14h6.66v25.14h-6.66Zm8.49,0v-25.14h6.66v25.14h-6.66Zm11.82-4.59h3.33v4.59h-6.66v-25.14h6.66v6.03h-3.33c-.51,0-.9.42-.9.9v12.72c0,.48.39.9.9.9h0Zm11.82,4.59h-6.66v-4.59h6.66v4.59Zm0-6.42h-10.92v-10.92h10.92v10.92Zm0-12.72h-6.66v-6.03h6.66v6.03Zm0-7.83H10.2v-4.77h49.11v4.77h0Zm0-6.57h-6.66v-3.6h6.66v3.6Zm28.89,46.29h-6.6V15.9h6.6v58.2Z"/>
  <path class="cls-1" d="m53.85,53.22c2.07,0,3.72-1.68,3.72-3.72s-1.68-3.72-3.72-3.72-3.72,1.68-3.72,3.72,1.68,3.72,3.72,3.72Zm0-5.64c1.05,0,1.92.87,1.92,1.92s-.87,1.92-1.92,1.92-1.92-.87-1.92-1.92.87-1.92,1.92-1.92h0Z"/>
  <path class="cls-1" d="m77.22,49.47c0-.51-.42-.9-.9-.9h-9.51l2.1-2.07c.36-.36.36-.93,0-1.29s-.93-.36-1.29,0l-3.66,3.6c-.18.18-.27.39-.27.63,0,.06.03.09.03.15s.03.15.06.21.06.12.12.18c.03.03.03.06.06.09l.06.06,3.6,3.6c.18.18.42.27.63.27s.45-.09.63-.27c.36-.36.36-.93,0-1.29l-2.1-2.1h9.48c.54.06.96-.36.96-.87h0Z"/>
</svg>