<?xml version="1.0" encoding="UTF-8"?>
<svg id="Layer_1" data-name="Layer 1" xmlns="http://www.w3.org/2000/svg" viewBox="0 0 90 90">
  <defs>
    <style>
      .cls-1 {
        fill: none;
        stroke: #dea179;
        stroke-linecap: round;
        stroke-linejoin: round;
        stroke-width: 3.52px;
      }
    </style>
  </defs>
  <g id="g1576">
    <g id="g1582">
      <path id="path1584" class="cls-1" d="m39.86,69.07h-16.95l-6.01,19.17s0,0,0,0h56.2s0,0,0,0l-6.01-19.17h-16.9"/>
    </g>
    <g id="g1586">
      <path id="path1588" class="cls-1" d="m34.24,26.25c-1.66,0-3.01,1.35-3.01,3.01v16.11c0,3.45,2.85,6.24,6.36,6.24h14.83c3.51,0,6.36-2.8,6.36-6.24v-16.11c0-1.66-1.35-3.01-3.01-3.01h-21.52Z"/>
    </g>
    <g id="g1590">
      <path id="path1592" class="cls-1" d="m38.76,32.05v-9.61c0-3.43,2.79-6.21,6.24-6.21s6.24,2.78,6.24,6.21v9.61"/>
    </g>
    <g id="g1594">
      <path id="path1596" class="cls-1" d="m45.14,1.76c-17.83-.07-32.41,14.38-32.41,32.14,0,14.15,9.19,26.17,21.95,30.46,1.95.65,3.62,1.93,4.73,3.65l5.6,8.65,5.6-8.65c1.12-1.73,2.81-3,4.77-3.66,12.74-4.3,21.91-16.31,21.91-30.44C77.28,16.19,62.9,1.83,45.14,1.76Z"/>
    </g>
  </g>
</svg>