<?xml version="1.0" encoding="UTF-8"?>
<svg id="Layer_1" data-name="Layer 1" xmlns="http://www.w3.org/2000/svg" viewBox="0 0 90 90">
  <defs>
    <style>
      .cls-1 {
        fill: none;
        stroke: #dea179;
        stroke-linecap: round;
        stroke-linejoin: round;
        stroke-width: 2.41px;
      }
    </style>
  </defs>
  <path class="cls-1" d="m73.58,31.78h9.81c.89,0,1.61.72,1.61,1.61v26.11h-35.68"/>
  <line class="cls-1" x1="67.95" y1="31.78" x2="49.32" y2="31.78"/>
  <path class="cls-1" d="m40.68,59.5H5v-26.11c0-.89.72-1.61,1.61-1.61h34.07"/>
  <path class="cls-1" d="m85,59.5v22.88c0,.89-.72,1.61-1.61,1.61h-46.08"/>
  <path class="cls-1" d="m31.68,83.99H6.61c-.89,0-1.61-.72-1.61-1.61v-22.88"/>
  <path class="cls-1" d="m45,6.01c-1.7,0-3.07,1.38-3.07,3.07,0,2.2,1.85,5.64,2.68,7.07.18.31.62.31.8,0,.83-1.41,2.67-4.78,2.67-7.07,0-1.7-1.38-3.07-3.07-3.07Z"/>
  <path class="cls-1" d="m35.26,14.99c-1.4,0-2.53,1.15-2.5,2.56.03,1.28,1.07,2.31,2.35,2.42,2.2.19,3.81.81,5.2,2.02.22.19.55.03.54-.26-.33-5.15-3.87-6.74-5.59-6.74Z"/>
  <path class="cls-1" d="m54.74,14.99c1.4,0,2.53,1.15,2.5,2.56-.03,1.28-1.07,2.31-2.35,2.42-2.2.19-3.81.81-5.2,2.02-.22.19-.55.03-.54-.26.33-5.15,3.87-6.74,5.59-6.74Z"/>
  <path class="cls-1" d="m49.32,62.9V28.71c0-.44-.36-.8-.8-.8h-7.04c-.44,0-.8.36-.8.8v34.19"/>
  <path class="cls-1" d="m70.47,47.59l-1.54,2.29c-.23.34-.24.77-.04,1.12l.84,1.48c.26.45.81.65,1.3.47l3.27-1.23c.12-.05.25-.07.38-.07h2.96c.59,0,1.06-.48,1.06-1.06v-1.29c0-.52-.37-.96-.88-1.05l-6.28-1.1c-.41-.07-.83.1-1.07.45Z"/>
  <path class="cls-1" d="m11.12,53.54h7.01c.48,0,.86-.39.86-.86v-2.51c0-.31-.17-.6-.44-.75l-3.92-2.19c-.32-.18-.71-.14-.99.1l-2.37,2.07c-.13.11-.22.26-.27.42l-.72,2.63c-.15.55.26,1.09.83,1.09Z"/>
  <path class="cls-1" d="m33.09,40.89l2.52,1.72c.26.18.42.47.42.79v1.14c0,.4-.25.76-.63.9l-1.53.56c-.29.11-.51.34-.59.64l-.42,1.49c-.16.56-.78.85-1.31.61l-2.64-1.16c-.54-.24-.74-.9-.42-1.4l3.25-5.01c.29-.45.9-.57,1.34-.27Z"/>
  <path class="cls-1" d="m17.57,39.64l1.92-2.23c.25-.29.6-.45.98-.45h3.02c.48,0,.92.26,1.14.68l1.05,1.97c.22.41.2.92-.06,1.31l-.78,1.2c-.28.44-.8.66-1.32.57l-5.21-.95c-.98-.18-1.4-1.36-.75-2.11Z"/>
  <path class="cls-1" d="m77.76,35.79h-3.75c-.29,0-.56.13-.74.36l-2.06,2.65c-.25.33-.26.78-.02,1.12l.86,1.19c.26.36.73.48,1.13.31l3.16-1.39c.11-.05.22-.07.33-.08l2-.09c.64-.03,1.06-.68.83-1.27l-.88-2.21c-.14-.36-.48-.59-.87-.59Z"/>
  <path class="cls-1" d="m54.18,52.76l2.56,1.39c.38.21.86.13,1.16-.18l1.33-1.41c.2-.21.3-.51.25-.8l-.32-2.12c-.09-.58-.67-.95-1.24-.78l-3.58,1.11c-.4.12-.68.5-.68.92v1.03c0,.35.19.68.5.84Z"/>
  <path class="cls-1" d="m59,39.4l4.19.38c.38.03.71.27.86.62l1.65,3.86c.19.45.04.97-.36,1.25l-.53.37c-.35.24-.82.24-1.17,0l-1.65-1.14c-.19-.13-.42-.2-.66-.18l-3,.21c-.68.05-1.21-.56-1.08-1.23l.65-3.31c.1-.52.58-.88,1.1-.83Z"/>
  <path class="cls-1" d="m59.83,68.87c.89.45,1.81.89,3.6.89,3.69,0,3.69-1.87,7.37-1.87s3.69,1.87,7.37,1.87"/>
  <path class="cls-1" d="m11.83,67.89c3.69,0,3.69,1.87,7.37,1.87s3.68-1.87,7.37-1.87,3.69,1.87,7.37,1.87,3.68-1.87,7.37-1.87,3.68,1.87,7.37,1.87c2.99,0,3.56-1.23,5.64-1.7"/>
  <path class="cls-1" d="m32.21,76.31c.48.11,1.04.17,1.73.17,3.68,0,3.68-1.87,7.37-1.87s3.68,1.87,7.37,1.87,3.69-1.87,7.37-1.87,3.68,1.87,7.37,1.87,3.69-1.87,7.37-1.87,3.69,1.87,7.37,1.87"/>
  <path class="cls-1" d="m11.83,74.61c3.69,0,3.69,1.87,7.37,1.87s3.68-1.87,7.37-1.87c.12,0,.24,0,.35,0"/>
</svg>