<?xml version="1.0" encoding="UTF-8"?>
<svg id="Layer_1" data-name="Layer 1" xmlns="http://www.w3.org/2000/svg" viewBox="0 0 90 90">
  <defs>
    <style>
      .cls-1 {
        fill: #dea179;
      }
    </style>
  </defs>
  <path class="cls-1" d="m90,16.53c0-.68-.55-1.23-1.23-1.23H1.23C.55,15.29,0,15.84,0,16.52c0,0,0,0,0,0v56.95c0,.68.55,1.23,1.23,1.23h87.54c.68,0,1.23-.55,1.23-1.23,0-10.39,0-51.62,0-56.95Zm-24.68,28.48c0-2.63,1.83-4.91,4.39-5.48v10.97c-2.57-.58-4.39-2.85-4.39-5.48Zm11.25,0c0,2.63-1.83,4.91-4.39,5.48v-10.97c2.57.58,4.39,2.85,4.39,5.48h0Zm.17-5.62h10.8v11.25h-10.8c3.05-3.13,3.05-8.12,0-11.25h0Zm10.8-2.46h-16.59c-1.49,0-2.95.42-4.22,1.2,2.75-6.38,9.03-10.51,15.98-10.52h4.84v9.31Zm-16.59,16.17h16.59v9.31h-4.83c-6.95,0-13.23-4.14-15.98-10.52,1.27.79,2.73,1.2,4.22,1.21h0Zm-27.18,2.02c-5.58-.68-9.56-5.75-8.89-11.34.56-4.66,4.23-8.32,8.89-8.89v20.22Zm2.46-20.22c5.58.68,9.56,5.75,8.89,11.34-.56,4.66-4.23,8.32-8.89,8.89v-20.22Zm-21.55,10.11c0,2.63-1.83,4.91-4.39,5.48v-10.97c2.57.58,4.39,2.85,4.39,5.48Zm-11.25,0c0-2.63,1.83-4.91,4.39-5.48v10.97c-2.57-.58-4.39-2.85-4.39-5.48Zm-.17,5.63H2.46v-11.25h10.8c-3.05,3.13-3.05,8.12,0,11.25h0Zm-10.8,2.46h16.59c1.49,0,2.95-.42,4.22-1.2-2.75,6.37-9.03,10.5-15.98,10.51H2.46v-9.31Zm16.59-16.17H2.46v-9.31h4.83c6.95,0,13.23,4.14,15.98,10.52-1.27-.78-2.73-1.2-4.22-1.2ZM2.46,64.86h4.83c10.97,0,19.86-8.89,19.86-19.86,0-10.97-8.89-19.86-19.86-19.86H2.46v-7.38h41.31v14.65c-6.95.68-12.04,6.87-11.36,13.82.59,6.02,5.35,10.78,11.36,11.36v14.65H2.46v-7.38Zm43.77,7.38v-14.65c6.95-.68,12.04-6.87,11.36-13.82-.59-6.02-5.35-10.78-11.36-11.36v-14.65h41.31v7.38h-4.83c-10.97,0-19.86,8.9-19.85,19.87,0,10.96,8.89,19.85,19.85,19.85h4.83v7.38h-41.31Z"/>
</svg>