<?xml version="1.0" encoding="UTF-8"?>
<svg id="Layer_1" data-name="Layer 1" xmlns="http://www.w3.org/2000/svg" viewBox="0 0 90 90">
  <defs>
    <style>
      .cls-1 {
        fill: #dea179;
      }
    </style>
  </defs>
  <path class="cls-1" d="m56.19,78.5v-10.87h-19.55v11.67c-11.22-2.76-20.67-10.94-24.77-22.07l-2.48.91c2.66,7.21,7.39,13.38,13.68,17.84,2.3,1.63,4.75,2.99,7.31,4.06-1.33,1.01-2.19,2.62-2.19,4.42,0,3.06,2.49,5.55,5.55,5.55s5.55-2.49,5.55-5.55v-1.93c1.88.28,3.79.43,5.72.43.1,0,.2,0,.3,0-.13.48-.21.98-.21,1.5,0,3.06,2.49,5.55,5.55,5.55s5.55-2.49,5.55-5.55v-3.17c8.12-2.5,15.22-7.71,20.08-14.75l-2.17-1.5c-4.36,6.32-10.67,11.06-17.9,13.47h0Zm-2.64-8.23v2.99h-14.27v-2.99h14.27Zm-19.81,17.08c-1.6,0-2.91-1.3-2.91-2.91s1.3-2.91,2.91-2.91,2.91,1.3,2.91,2.91-1.3,2.91-2.91,2.91Zm5.55-7.52v-3.93h14.27v3.82c-.85-.52-1.84-.82-2.91-.82-1.38,0-2.65.51-3.62,1.35-.67.04-1.34.06-2.01.06-1.94,0-3.85-.16-5.72-.47h0Zm11.36,7.52c-1.6,0-2.91-1.3-2.91-2.91s1.3-2.91,2.91-2.91,2.91,1.3,2.91,2.91-1.3,2.91-2.91,2.91Z"/>
  <path class="cls-1" d="m28.18,13.94v11.24h33.64v-11.24c6.87,3.72,12.32,9.62,15.5,16.8l2.42-1.07c-3.6-8.15-9.94-14.76-17.91-18.71V0h-11.18c-2.32,0-4.37,1.14-5.64,2.88-1.27-1.75-3.32-2.88-5.64-2.88h-11.18v10.97c-6.74,3.33-12.28,8.52-16.06,15.05l2.29,1.32c3.3-5.7,8.03-10.3,13.77-13.4h0Zm2.64,5.61h8.54c1.92,0,3.55,1.26,4.11,2.99h-12.65v-2.99Zm15.71,2.99c.56-1.74,2.19-2.99,4.11-2.99h8.54v2.99h-12.65Zm4.11-19.9h8.54v14.27h-8.54c-1.63,0-3.13.56-4.32,1.51V6.96c0-2.38,1.94-4.32,4.32-4.32Zm-11.27,0c2.38,0,4.32,1.94,4.32,4.32v11.46c-1.19-.94-2.69-1.51-4.32-1.51h-8.54V2.64h8.54Z"/>
  <path class="cls-1" d="m88.6,40.06c-.97-1.67-2.35-2.79-4-3.23-1.51-.4-3.08-.2-4.57.53l.84-2.67c.2-.63.77-1.05,1.43-1.05h.75v-2.64h-.75c-1.82,0-3.4,1.17-3.95,2.9l-1.52,4.84c-2.04-1.79-4.4-2.5-6.61-1.91-1.65.44-3.03,1.55-4,3.23-1.49,2.59-1.81,6.26-.84,9.84.77,2.84,2.25,5.33,4.18,7.01,2.07,1.8,4.41,2.48,6.6,1.9.44-.12.86-.28,1.26-.5.4.21.82.38,1.26.5.51.14,1.03.2,1.55.2,1.71,0,3.46-.72,5.04-2.1,1.93-1.68,3.41-4.16,4.18-7.01.97-3.57.65-7.25-.84-9.84h0Zm-1.71,9.15c-1.24,4.57-4.69,7.8-7.55,7.04-.41-.11-.8-.3-1.15-.56l-.79-.58-.79.58c-.36.26-.75.45-1.15.56-2.85.76-6.31-2.47-7.55-7.04-.79-2.91-.57-5.83.58-7.82.42-.73,1.18-1.67,2.39-2,1.74-.46,3.84.58,5.46,2.71l1.05,1.38,1.05-1.38c1.63-2.14,3.72-3.18,5.46-2.71,1.21.32,1.97,1.26,2.39,2,1.15,1.99,1.37,4.92.58,7.82h0Z"/>
  <path class="cls-1" d="m14.02,52.21c1.78,1.58,4.27,2.56,7.03,2.56,5.39,0,9.77-3.75,9.77-8.37s-4.38-8.37-9.77-8.37-9.77,3.75-9.77,8.37c0,1.35.38,2.62,1.04,3.75-.86,1.02-1.95,1.68-3.11,1.9.1-.3.22-.56.36-.85.36-.75.81-1.68.81-3.39s-.45-2.64-.81-3.39c-.31-.64-.55-1.14-.55-2.25s.24-1.61.55-2.25c.22-.45.47-.98.63-1.7.54.23,1.05.55,1.52.98l1.77-1.96c-1.47-1.33-3.24-2.03-5.11-2.03C3.76,35.23,0,39.61,0,45s3.75,9.77,8.37,9.77c2.11,0,4.12-.92,5.65-2.56Zm-11.38-7.21c0-3.58,2.13-6.55,4.89-7.06-.1.3-.22.56-.36.85-.36.75-.81,1.68-.81,3.39s.45,2.64.81,3.39c.31.64.55,1.14.55,2.25s-.24,1.61-.55,2.25c-.22.45-.47.98-.63,1.7-2.27-.95-3.9-3.62-3.9-6.76Zm18.41,7.13c-3.58,0-6.55-2.13-7.06-4.89.3.1.56.22.85.36.75.36,1.68.81,3.39.81s2.64-.45,3.39-.81c.64-.31,1.14-.55,2.25-.55s1.61.24,2.25.55c.45.22.98.47,1.7.63-.95,2.27-3.62,3.9-6.76,3.9Zm0-11.45c3.58,0,6.55,2.13,7.06,4.89-.3-.1-.56-.22-.85-.36-.75-.36-1.68-.81-3.39-.81s-2.64.45-3.39.81c-.64.31-1.14.55-2.25.55s-1.61-.24-2.25-.55c-.45-.22-.98-.47-1.7-.63.95-2.27,3.62-3.9,6.76-3.9h0Z"/>
  <path class="cls-1" d="m43.59,43.68h2.82v2.64h-2.82v-2.64Z"/>
</svg>