<?xml version="1.0" encoding="UTF-8"?>
<svg id="Layer_1" data-name="Layer 1" xmlns="http://www.w3.org/2000/svg" viewBox="0 0 90 90">
  <defs>
    <style>
      .cls-1 {
        fill: none;
        stroke: #dea179;
        stroke-linecap: round;
        stroke-linejoin: round;
        stroke-width: 2.64px;
      }
    </style>
  </defs>
  <g id="g6409">
    <g id="g6415">
      <path id="path6417" class="cls-1" d="m18.12,2.68h67.4c1.76,0,3.18,1.42,3.18,3.18v80.92c0,1.76-1.42,3.18-3.18,3.18H4.51c-1.76,0-3.18-1.42-3.18-3.18V5.86c0-1.76,1.42-3.18,3.18-3.18h5.17"/>
    </g>
    <g id="g6419">
      <path id="path6421" class="cls-1" d="m39.08,27.6h11.87"/>
    </g>
    <g id="g6423">
      <path id="path6425" class="cls-1" d="m39.08,18.52h11.87"/>
    </g>
    <g id="g6427">
      <path id="path6429" class="cls-1" d="m39.08,9.27h11.87"/>
    </g>
    <g id="g6431">
      <path id="path6433" class="cls-1" d="m39.08,83.37h11.87"/>
    </g>
    <g id="g6435">
      <path id="path6437" class="cls-1" d="m39.08,74.12h11.87"/>
    </g>
    <g id="g6439">
      <path id="path6441" class="cls-1" d="m39.08,65.1h11.87"/>
    </g>
    <g id="g6443">
      <path id="path6445" class="cls-1" d="m63.8,40.39v11.87"/>
    </g>
    <g id="g6447">
      <path id="path6449" class="cls-1" d="m72.81,40.39v11.87"/>
    </g>
    <g id="g6451">
      <path id="path6453" class="cls-1" d="m82.06,40.39v11.87"/>
    </g>
    <g id="g6455">
      <path id="path6457" class="cls-1" d="m7.96,40.39v11.87"/>
    </g>
    <g id="g6459">
      <path id="path6461" class="cls-1" d="m17.22,40.39v11.87"/>
    </g>
    <g id="g6463">
      <path id="path6465" class="cls-1" d="m26.23,40.39v11.87"/>
    </g>
    <g id="g6467">
      <path id="path6469" class="cls-1" d="m88.76,39.79h-30.95c-1.37-2.68-3.57-4.87-6.25-6.24V2.64h-13.08v30.91c-2.68,1.37-4.88,3.56-6.25,6.24H1.24v13.06h30.98c1.37,2.68,3.57,4.87,6.25,6.24v30.91h13.08v-30.91c2.68-1.37,4.88-3.56,6.25-6.24h30.95v-13.06Z"/>
    </g>
    <g id="g6471">
      <path id="path6473" class="cls-1" d="m45.01,53.39c-3.9,0-7.08-3.17-7.08-7.08s3.17-7.08,7.08-7.08,7.08,3.17,7.08,7.08c0,1.43-.42,2.76-1.15,3.87"/>
    </g>
    <g id="g6475">
      <path id="path6477" class="cls-1" d="m65.41,83.09c2.72,1.09,5.77.02,7.25-2.4.49.31,1.07.5,1.69.5,1.73,0,3.14-1.4,3.14-3.14,0-.33-.05-.64-.14-.93,2.72-.05,4.91-2.26,4.91-4.99s-2.24-5-5-5c-.14,0-.28,0-.41.02.34-.67.53-1.43.53-2.23,0-2.76-2.24-5-5-5-1.62,0-3.05.77-3.97,1.97-.54-.43-1.22-.69-1.96-.69-1.73,0-3.14,1.4-3.14,3.14,0,.38.07.74.19,1.08-.18-.02-.36-.03-.54-.03-2.76,0-5,2.24-5,5,0,2.48,1.81,4.53,4.18,4.92-.01.03-.02.05-.04.08-.22.56-.35,1.13-.4,1.69"/>
    </g>
    <g id="g6479">
      <path id="path6481" class="cls-1" d="m79.43,18.58c.31-.49.5-1.07.5-1.69,0-1.73-1.4-3.14-3.14-3.14-.33,0-.64.05-.93.14-.05-2.72-2.26-4.91-4.99-4.91s-5,2.24-5,5c0,.14,0,.28.02.41-.67-.34-1.43-.53-2.23-.53-2.76,0-5,2.24-5,5,0,1.62.77,3.05,1.97,3.97-.43.54-.69,1.22-.69,1.96,0,1.73,1.4,3.14,3.14,3.14.38,0,.74-.07,1.08-.19-.02.18-.03.36-.03.54,0,2.76,2.24,5,5,5,2.48,0,4.53-1.81,4.92-4.18.03.01.05.02.08.04,3.04,1.21,6.49-.26,7.7-3.3,1.09-2.72.02-5.77-2.4-7.25Z"/>
    </g>
    <g id="g6483">
      <path id="path6485" class="cls-1" d="m24.88,83.09c3.04-1.21,4.52-4.66,3.3-7.7-.01-.03-.02-.05-.04-.08,2.37-.39,4.18-2.44,4.18-4.92,0-2.76-2.24-5-5-5-.18,0-.36.01-.54.03.12-.34.19-.7.19-1.08,0-1.73-1.4-3.14-3.14-3.14-.74,0-1.42.26-1.96.69-.91-1.19-2.35-1.97-3.97-1.97-2.76,0-5,2.24-5,5,0,.8.19,1.56.53,2.23-.14-.01-.27-.02-.41-.02-2.76,0-5,2.24-5,5s2.19,4.94,4.91,4.99c-.09.3-.14.61-.14.93,0,1.73,1.4,3.14,3.14,3.14.62,0,1.2-.18,1.69-.5,1.48,2.41,4.53,3.49,7.25,2.4Z"/>
    </g>
    <g id="g6487">
      <path id="path6489" class="cls-1" d="m8.46,25.83c1.21,3.04,4.66,4.52,7.7,3.3.03-.01.05-.02.08-.04.39,2.37,2.44,4.18,4.92,4.18,2.76,0,5-2.24,5-5,0-.18-.01-.36-.03-.54.34.12.7.19,1.08.19,1.73,0,3.14-1.4,3.14-3.14,0-.74-.26-1.42-.69-1.96,1.19-.91,1.97-2.35,1.97-3.97,0-2.76-2.24-5-5-5-.8,0-1.56.19-2.23.53.01-.14.02-.27.02-.41,0-2.76-2.24-5-5-5s-4.94,2.19-4.99,4.91c-.3-.09-.61-.14-.93-.14-1.73,0-3.14,1.4-3.14,3.14,0,.62.18,1.2.5,1.69-2.41,1.48-3.49,4.53-2.4,7.25Z"/>
    </g>
  </g>
</svg>