<?xml version="1.0" encoding="UTF-8"?>
<svg id="Layer_1" data-name="Layer 1" xmlns="http://www.w3.org/2000/svg" viewBox="0 0 90 90">
  <defs>
    <style>
      .cls-1 {
        fill: #dea179;
      }
    </style>
  </defs>
  <path class="cls-1" d="m34.76,51.67c4.5,0,8.17-3.66,8.17-8.17s-3.66-8.17-8.17-8.17-8.17,3.66-8.17,8.17,3.66,8.17,8.17,8.17h0Zm0-13.7c3.05,0,5.53,2.48,5.53,5.53s-2.48,5.53-5.53,5.53-5.53-2.48-5.53-5.53,2.48-5.53,5.53-5.53Z"/>
  <path class="cls-1" d="m87.8,69.16h-4.01c-2.03,0-3.9-1.19-4.77-3.02l-8.78-18.55c-1.3-2.75-4.11-4.53-7.15-4.53h-9.51v-15.52s0-.03,0-.04c0-.02,0-.03,0-.05,0-.06-.01-.11-.02-.16,0,0,0,0,0,0-.01-.06-.03-.11-.05-.17,0-.01,0-.02-.01-.03-.02-.05-.04-.1-.07-.15,0,0,0,0,0,0-.03-.05-.06-.1-.09-.15,0-.01-.01-.02-.02-.03-.04-.05-.07-.09-.12-.13h0s-5.6-5.58-5.6-5.58c-.52-.51-1.35-.51-1.86,0-.51.52-.51,1.35,0,1.86l3.34,3.33h-28.64l14.32-14.29,5.26,5.25c.52.51,1.35.51,1.86,0,.51-.52.51-1.35,0-1.86l-5.54-5.53c-.87-.87-2.29-.87-3.17,0l-16.86,16.81h0s-.08.09-.12.13c0,.01-.02.02-.02.03-.03.05-.07.1-.09.15,0,0,0,0,0,0-.03.05-.05.1-.07.15,0,.01,0,.02-.01.03-.02.06-.04.11-.05.17,0,0,0,0,0,0-.01.05-.02.11-.02.16,0,.02,0,.03,0,.05,0,.01,0,.03,0,.04v15.52H5.59c-3.08,0-5.59,2.51-5.59,5.59v30.89c0,.73.59,1.32,1.32,1.32s1.32-.59,1.32-1.32v-3.62h13.3v2.59c0,1.21.99,2.2,2.2,2.2h7.26c1.21,0,2.2-.99,2.2-2.2v-17.74h14.35v4.23c0,.73.59,1.32,1.32,1.32s1.32-.59,1.32-1.32v-4.23h6.38v17.3h-6.38v-4.89c0-.73-.59-1.32-1.32-1.32s-1.32.59-1.32,1.32v5.33c0,1.21.99,2.2,2.2,2.2h7.26c1.21,0,2.2-.99,2.2-2.2v-23.28h1.16c2.06,0,3.94,1.21,4.8,3.08l8.2,17.92c1.28,2.81,4.11,4.62,7.19,4.62h12.86c1.21,0,2.2-.99,2.2-2.2v-7.3c0-1.21-.99-2.2-2.2-2.2h0Zm-71.87,4.12H2.64v-4.94h13.3v4.94Zm0-7.57H2.64v-4.94h13.3v4.94Zm0-7.57H2.64v-4.94h13.3v4.94Zm0-7.57H2.64v-1.91c0-1.63,1.32-2.95,2.95-2.95h10.35v4.87Zm9.01,27.51h-6.38v-17.3h6.38v17.3Zm26-33.69v13.76H18.57v-29.28h32.38v15.52Zm36.41,33.84h-12.42c-2.06,0-3.94-1.21-4.8-3.08l-8.2-17.92c-1.28-2.81-4.11-4.62-7.19-4.62h-1.16v-6.9h9.51c2.03,0,3.9,1.19,4.77,3.02l8.78,18.55c1.3,2.75,4.11,4.53,7.15,4.53h3.57v6.42h0Z"/>
</svg>