<?xml version="1.0" encoding="UTF-8"?>
<svg id="Layer_1" data-name="Layer 1" xmlns="http://www.w3.org/2000/svg" viewBox="0 0 90 90">
  <defs>
    <style>
      .cls-1 {
        fill: #dea179;
      }
    </style>
  </defs>
  <path class="cls-1" d="m3,90h3c2.49,0,4.5-2.01,4.5-4.5h13.5c3.31,0,6-2.69,6-6v-14.64c.42-.25.81-.55,1.16-.88l4.25-4.24,2.12,2.11c1.76,1.76,4.61,1.76,6.36,0l1.06-1.06,9.98,9.98c1.76,1.76,4.61,1.76,6.36,0l4.59,4.59c1.04,1.05,2.68,1.18,3.87.32l12.38-8.84c1.34-.97,1.65-2.84.68-4.19-.1-.13-.2-.26-.32-.37l-1.85-1.85,3.34-1.91c1.44-.82,1.94-2.65,1.12-4.09-.13-.23-.3-.44-.48-.63l-20.12-20.13c2.86-1.65,3.85-5.31,2.2-8.17-1.65-2.86-5.31-3.85-8.17-2.2-.91.53-1.67,1.28-2.2,2.2l-16.68-16.68c-1.76-1.76-4.61-1.76-6.36,0,0,0,0,0,0,0l-2.92,2.92-1.41-1.42c-.84-.85-1.99-1.33-3.19-1.32h-.01c-1.19,0-2.33.48-3.16,1.33l-.96.96-.7-.7c-3.35-3.34-8.51-4.04-12.63-1.71-1.61.92-2.95,2.25-3.88,3.86-.92,1.6-1.41,3.42-1.41,5.27v48c-1.66,0-3,1.34-3,3v18c0,1.66,1.34,3,3,3Zm24-10.5c0,1.66-1.34,3-3,3h-13.5v-6h7.5c1.66,0,3-1.34,3-3v-12c0-.82.33-1.61.93-2.18.6-.57,1.4-.87,2.22-.82,1.65.17,2.9,1.59,2.85,3.25v17.75Zm2.93-18.53c-.23-2.16-1.57-4.03-3.54-4.95l2.65-2.66,4.25,4.25-3.36,3.36Zm11.85-1.24c-.59.59-1.54.59-2.12,0l-12.73-12.73c-.59-.59-.59-1.54,0-2.12h0s1.06-1.06,1.06-1.06l9.05,9.05,5.8,5.8-1.06,1.06Zm15.28,8.92l-11.04-11.04h0l-7.59-7.59-19.99-19.99c-.59-.59-.59-1.54,0-2.12,0,0,0,0,0,0l6.36-6.36,40.73,40.74-6.36,6.36c-.59.59-1.54.59-2.12,0h0Zm10.95,4.59l-4.59-4.59,4.24-4.24.58.58c.1.08.2.15.31.22.05.09.11.18.18.26l4.24,4.24-4.95,3.53Zm12.38-8.83l-4.95,3.54-2.88-2.88,5.4-3.09,2.43,2.43Zm-18.89-38.91c1.66.01,2.99,1.37,2.98,3.02,0,1.36-.93,2.54-2.25,2.88l-3.63-3.63c.33-1.34,1.53-2.28,2.9-2.27Zm-26.1-14.56c.59-.59,1.54-.59,2.12,0l44.98,44.98-12.15,6.94-1.64-1.64L26.92,19.42l8.48-8.49Zm-9.64,1.06c.4,0,.79.16,1.07.45l1.42,1.42-6.37,6.37-1.42-1.43c-.59-.59-.59-1.54,0-2.12h0s4.25-4.24,4.25-4.24c.26-.3.65-.46,1.05-.44Zm-18.74,2.23c.66-1.15,1.61-2.09,2.76-2.75,2.94-1.67,6.63-1.17,9.03,1.21l.7.7-1.17,1.17c-1.74,1.76-1.74,4.59,0,6.36l1.42,1.43-3.44,3.44c-1.75,1.76-1.75,4.61,0,6.36l9.55,9.55-1.06,1.06c-1.75,1.76-1.75,4.61,0,6.36l2.12,2.12-4.23,4.24c-.09.09-.16.17-.23.25-2.64.66-4.48,3.04-4.45,5.76v12h-7.5v-3c0-2.49-2.01-4.5-4.5-4.5V18c0-1.32.35-2.62,1.01-3.77Zm-4.01,54.77h3c.83,0,1.5.67,1.5,1.5v15c0,.83-.67,1.5-1.5,1.5h-3v-18Z"/>
  <path class="cls-1" d="m61.5,0c-.83,0-1.5.67-1.5,1.5s.67,1.5,1.5,1.5c14.08.02,25.48,11.42,25.5,25.5,0,.83.67,1.5,1.5,1.5s1.5-.67,1.5-1.5c-.02-15.73-12.77-28.48-28.5-28.5Z"/>
  <path class="cls-1" d="m81,30c.83,0,1.5-.67,1.5-1.5-.01-11.59-9.41-20.99-21-21-.83,0-1.5.67-1.5,1.5s.67,1.5,1.5,1.5c9.94.01,17.99,8.06,18,18,0,.83.67,1.5,1.5,1.5Z"/>
  <path class="cls-1" d="m61.5,15c-.83,0-1.5.67-1.5,1.5s.67,1.5,1.5,1.5c5.8,0,10.49,4.7,10.5,10.5,0,.83.67,1.5,1.5,1.5s1.5-.67,1.5-1.5c0-7.45-6.05-13.49-13.5-13.5Z"/>
</svg>