<?xml version="1.0" encoding="UTF-8"?>
<svg id="Layer_1" data-name="Layer 1" xmlns="http://www.w3.org/2000/svg" viewBox="0 0 90 90">
  <defs>
    <style>
      .cls-1 {
        fill: #dea179;
      }
    </style>
  </defs>
  <g>
    <path class="cls-1" d="m45.07,89.81h-3.29v-7.92H13.99v7.92h-3.29v-11.21h34.37v11.21Z"/>
    <path class="cls-1" d="m19.1,80.24h-3.29v-5.79l-11.33-12.25c-1.51-1.64-2.17-3.85-1.81-6.05l4.19-25.43c.46-2.78,2.83-4.8,5.65-4.8,1.56,0,3.02.61,4.11,1.74,1.08,1.12,1.66,2.6,1.63,4.16l-.49,17.69-3.29-.1.49-17.69c.02-.66-.23-1.3-.69-1.78s-1.08-.74-1.74-.74c-1.2,0-2.2.85-2.4,2.04l-4.22,25.45c-.2,1.2.16,2.4.99,3.29l12.2,13.18v7.07Z"/>
    <path class="cls-1" d="m40.73,79.26h-3.29v-10.29c0-.38-.16-.74-.44-1l-17.7-16c-.46-.41-1.05-.62-1.64-.58-.61.03-1.17.31-1.58.77-.81.92-.76,2.3.15,3.16l11.77,11.13-2.27,2.38-11.77-11.13c-2.19-2.07-2.33-5.46-.35-7.71.99-1.12,2.35-1.79,3.85-1.87,1.48-.08,2.93.41,4.04,1.43l17.7,16c.97.87,1.53,2.14,1.53,3.44v10.27Z"/>
  </g>
  <g>
    <path class="cls-1" d="m84.43,89.81h-3.29v-7.92h-27.78v7.92h-3.29v-11.21h34.36v11.21Z"/>
    <path class="cls-1" d="m79.31,80.24h-3.29v-7.07l12.2-13.2c.82-.89,1.18-2.09.99-3.29l-4.19-25.43c-.2-1.18-1.22-2.04-2.4-2.04-.66,0-1.28.26-1.74.74s-.71,1.1-.69,1.78l.49,17.69-3.29.1-.49-17.69c-.05-1.56.53-3.04,1.63-4.16,1.08-1.12,2.55-1.74,4.11-1.74,2.81,0,5.19,2.02,5.65,4.8l4.19,25.43c.36,2.2-.3,4.41-1.81,6.05l-11.33,12.25v5.79h-.03Z"/>
    <path class="cls-1" d="m57.68,79.26h-3.29v-10.29c0-1.3.56-2.55,1.53-3.44l17.72-16c1.12-1,2.58-1.51,4.04-1.43,1.5.08,2.86.76,3.85,1.87,1.99,2.25,1.82,5.64-.35,7.71l-11.77,11.13-2.27-2.38,11.77-11.13c.89-.84.95-2.22.15-3.14-.41-.46-.95-.74-1.58-.77-.61-.05-1.2.16-1.64.58l-17.7,16c-.28.25-.44.62-.44.99v10.31h-.02Z"/>
  </g>
  <g>
    <g>
      <path class="cls-1" d="m67.64,19.52h3.29v25.97h-3.29v-25.97Z"/>
      <path class="cls-1" d="m25.25,19.19h3.29v26.3h-3.29v-26.3Z"/>
    </g>
    <path class="cls-1" d="m23.91,23.22c-.48,0-.95-.21-1.28-.62-.56-.71-.44-1.74.26-2.32L48.1.19l24.76,20.1c.71.58.81,1.61.25,2.32-.58.71-1.61.81-2.32.25L48.08,4.41l-23.15,18.44c-.3.25-.66.36-1.02.36h0Z"/>
  </g>
</svg>