<?xml version="1.0" encoding="UTF-8"?>
<svg id="Layer_1" data-name="Layer 1" xmlns="http://www.w3.org/2000/svg" viewBox="0 0 90 90">
  <defs>
    <style>
      .cls-1 {
        fill: #dea179;
      }
    </style>
  </defs>
  <path class="cls-1" d="m10.42,82.6l2.86-2.86,2.02,2.02-2.86,2.86-2.02-2.02Z"/>
  <path class="cls-1" d="m21.7,77.9h-4.54v2.86h4.54c.38,0,.74.15,1.01.42l2.02,2.02,2.02-2.02-2.02-2.02c-.81-.81-1.89-1.26-3.03-1.26h0Z"/>
  <path class="cls-1" d="m90,86.42h-5.36c2.6-3.56,4.03-7.83,4.03-12.33v-16.22c0-1.58-1.28-2.86-2.86-2.86h-8.58V22.97c5.31-3.01,8.58-8.57,8.58-14.73V3.52c0-1.58-1.28-2.86-2.86-2.86h-22.88c-1.58,0-2.86,1.28-2.86,2.86v4.71c0,6.16,3.27,11.72,8.58,14.73v32.05h-8.58c-1.58,0-2.86,1.28-2.86,2.86v16.22c0,.31.04.63.06.94h-2.92c-1.23,0-2.45.41-3.43,1.14l-2.29,1.72h-1.08c-.76,0-1.48-.3-2.02-.84l-5.81-5.81c-1.25-1.25-2.91-1.94-4.67-1.94s-3.42.69-4.67,1.94l-.34.34c-.44-.41-.92-.77-1.42-1.08v-9.78h5.41c8.06,0,14.62-6.56,14.62-14.62v-2.77l-10.33,1.48c-1.62.23-3.14.74-4.54,1.45.37-1.49.57-3.02.57-4.56,0-3.75-1.1-7.38-3.18-10.51l-3.97-5.95-3.97,5.96c-2.08,3.12-3.18,6.75-3.18,10.51,0,.49.02.97.06,1.46-1.28-.59-2.63-1.01-4.03-1.21l-10.33-1.48v2.77c0,8.06,6.56,14.62,14.62,14.62h5.41v11.57c-.47-.08-.95-.13-1.43-.13-1.46,0-2.86.38-4.09,1.08l-3.58-.9c-2.32-.58-4.82.27-6.31,2.13l-2.96,3.7c-.98.38-1.8,1.1-2.29,2.08l-1.58,3.16c-.42.84-.64,1.77-.64,2.71,0,1.62.63,3.14,1.77,4.28,1.14,1.14,2.66,1.77,4.28,1.77h0l83.94-.05v-2.86Zm-54.16-38.76l7.06-1.01c-.28,6.24-5.44,11.22-11.75,11.22h-3.55c1.51-1.34,3.87-3.04,7.26-4.39l-1.06-2.66c-3.16,1.26-5.52,2.79-7.22,4.16,1.52-3.82,5-6.72,9.26-7.32h0Zm-13.12-14.86l1.59-2.39,1.59,2.39c1.77,2.65,2.7,5.73,2.7,8.92,0,2.83-.75,5.62-2.17,8.07-.24.28-.47.57-.69.86v-11.38h-2.86v11.58c-1.85-2.67-2.86-5.88-2.86-9.14s.93-6.27,2.7-8.92Zm-16.99,10.99l7.06,1.01c1.84.26,3.58.98,5.09,2.04.32,1.12.74,2.21,1.26,3.26-1.24-.74-2.66-1.48-4.31-2.14l-1.06,2.66c3.39,1.36,5.76,3.06,7.26,4.4h-3.55c-6.3,0-11.46-4.99-11.75-11.22h0Zm68.64,8.36h-5.72V19.26c0-.79.64-1.43,1.43-1.43h2.86c.79,0,1.43.64,1.43,1.43v32.9Zm-5.72,2.86h5.72v2.19c0,3.03-.72,6.06-2.07,8.77-.3.6-1.28.6-1.58,0-1.36-2.71-2.07-5.74-2.07-8.77v-2.19ZM82.95,3.52v2.86h-22.88v-2.86h22.88Zm-22.81,5.72h22.74c-.29,4.14-2.35,7.87-5.65,10.3v-.29c0-2.37-1.93-4.29-4.29-4.29h-2.86c-2.37,0-4.29,1.93-4.29,4.29v.29c-3.3-2.43-5.36-6.16-5.65-10.3Zm-2.93,48.63h8.62c.1,3.24.88,6.47,2.33,9.37.64,1.28,1.92,2.07,3.35,2.07s2.71-.79,3.35-2.07c1.45-2.9,2.23-6.13,2.33-9.37h8.62v16.22c0,4.62-1.74,8.97-4.88,12.33h-4.28s-1.65-3.3-1.65-3.3c-.73-1.46-2.2-2.37-3.84-2.37h-1.28l-.21-.31c-1.06-1.59-2.84-2.55-4.76-2.55h-2.13c-.57,0-1.11-.17-1.59-.48l-2.13-1.42c-.55-.37-1.17-.62-1.81-.78-.02-.37-.07-.75-.07-1.12v-16.22Zm10.5,26.54c.24-.49.73-.79,1.28-.79h2.19c.54,0,1.04.3,1.28.79l1.01,2.02h-6.77s1.02-2.02,1.02-2.02Zm-16.22-6.51h4.42c.57,0,1.11.17,1.59.48l2.13,1.42c.94.63,2.04.96,3.17.96h2.13c.67,0,1.29.24,1.79.65-.66.41-1.2,1-1.56,1.72l-1.65,3.31h-9.71s-2.69-5.38-2.69-5.38c-.45-.89-1.11-1.62-1.89-2.16l.57-.43c.49-.37,1.1-.57,1.72-.57h0Zm-45.43,8.58h0c-.85,0-1.66-.33-2.26-.94-.6-.6-.94-1.41-.94-2.26,0-.49.12-.99.34-1.43l1.58-3.16c.24-.49.73-.79,1.28-.79h3.95v-2.86h-1.6l1.29-1.62c.8-1,2.15-1.45,3.39-1.14l1.56.39-1.36,1.36,2.02,2.02,2.27-2.27c2.07-2.07,5.68-2.07,7.74,0l3.7,3.7,2.02-2.02-1.85-1.85.33-.33c1.42-1.42,3.88-1.42,5.3,0l5.81,5.81c1.08,1.08,2.52,1.67,4.05,1.67h1.29c1.09,0,2.07.61,2.56,1.58l2.05,4.11-44.53.03Z"/>
  <path class="cls-1" d="m31.87,81.17l2.86-2.86,2.02,2.02-2.86,2.86-2.02-2.02Z"/>
</svg>