<?xml version="1.0" encoding="UTF-8"?>
<svg id="Layer_1" data-name="Layer 1" xmlns="http://www.w3.org/2000/svg" viewBox="0 0 90 90">
  <defs>
    <style>
      .cls-1 {
        fill: #dea179;
      }
    </style>
  </defs>
  <path class="cls-1" d="m38.23,81.23h6.66c.6,0,1.09-.49,1.09-1.09v-10.82c0-.6-.49-1.09-1.09-1.09h-6.66c-.6,0-1.09.49-1.09,1.09v10.82c0,.6.49,1.09,1.09,1.09Zm1.09-10.82h4.47v8.63h-4.47v-8.63Z"/>
  <path class="cls-1" d="m19.39,81.23c.6,0,1.09-.49,1.09-1.09v-10.82c0-.6-.49-1.09-1.09-1.09h-6.66c-.6,0-1.09.49-1.09,1.09v10.82c0,.6.49,1.09,1.09,1.09h6.66Zm-5.57-10.82h4.47v8.63h-4.47v-8.63Z"/>
  <path class="cls-1" d="m26.62,75.43c-1.46.05-1.46,2.16,0,2.21,1.46-.05,1.46-2.17,0-2.21Z"/>
  <path class="cls-1" d="m3.33,87.81c-1.42.03-1.48,2.13,0,2.19h76.59c1.42-.04,1.48-2.13,0-2.19h-5.53c-.21-4.17-.29-9.55-.24-14.88,5.16,1.14,10.69-2.78,10.22-7.74,4.54-.73,4.16-7.2,1.08-9.81,2.86-1.94,2.33-7.28-1.28-8.56,2.47-6.1-3.1-11.46-9.12-7.86-4.17-5.26-13.02-1.95-13.44,5.13-5.2.28-6.98,7.4-3.8,11.38-3.53,3.65-.57,10.65,4.05,10.82-.46,3.66,3.39,8.2,7.18,6.9.04,5.36-.03,10.62-.28,14.62h-17.28v-26.05h2.8c.6,0,1.09-.49,1.09-1.1,0-.17-.04-.34-.12-.5l-7.12-13.92c-.19-.37-.56-.6-.98-.6h-18.26l-.57-2.24c2.33-1.34,3.99-3.59,4.59-6.2l.33-1.44c.14-.59-.23-1.18-.82-1.31-.08-.02-.16-.03-.25-.03H11.63c-.6,0-1.09.49-1.09,1.1,0,.08,0,.17.03.25l.33,1.44c.6,2.62,2.26,4.87,4.59,6.2l-.57,2.24h-4.47c-.41,0-.79.23-.97.6l-7.12,13.92c-.28.54-.06,1.2.48,1.47.15.08.32.12.5.12h2.81v26.05h-2.81Zm18.01,0l.79-1.12c.14-.2.38-.33.62-.33h12.12c.25,0,.48.12.62.33l.79,1.12h-14.95Zm11.09-3.64h-7.24v-11.72c.04-2,1.7-3.58,3.7-3.54,1.93.04,3.49,1.6,3.54,3.54v11.72Zm38.47-26.02c-.11-1.44-2.19-1.36-2.19.09.05,1.18.09,2.43.13,3.74l-1.39-1.61c-.98-1.07-2.57.3-1.66,1.43l3.14,3.65c.04,1.7.07,3.45.09,5.2-1.04,1.09-2.44.36-2.97-.04-1.51-1.08-2.59-3.36-1.71-5.14.27-.54.05-1.2-.49-1.47-.26-.13-.57-.15-.85-.05-1.84.64-3.3-.73-3.99-2.1-.85-1.69-.9-4.1,1-5.39.5-.34.63-1.02.29-1.52-.05-.08-.12-.15-.19-.22-2.81-2.23-2.17-9.02,2.43-8.39.6.1,1.16-.31,1.25-.91.01-.08.02-.17.01-.26-.29-2.87,1.5-5.54,4.27-6.37,1.84-.57,4.32-.28,5.75,2.23.3.52.97.71,1.49.41.05-.03.09-.06.14-.09,2.5-1.97,4.66-1.53,5.86-.46,1.31,1.17,1.91,3.53.28,6.16-.32.51-.16,1.19.35,1.51.17.1.36.16.56.16,3.12,0,3.65,5.03.35,5.38-1.17.12-1.34,1.76-.23,2.13,2.41.79,3.28,3.75,2.83,5.44-.31,1.14-1.06,1.57-2.3,1.31-.84-.21-1.59.72-1.24,1.5,1.56,3.47-3.46,7.64-7.76,6.2.01-.86.03-1.72.05-2.55l2.88-2.51c1.06-.99-.32-2.57-1.44-1.64l-1.35,1.18c.03-.91.07-1.8.11-2.66.03-.6-.44-1.12-1.04-1.15s-1.12.44-1.15,1.04c-.39,7.88-.41,18.37-.05,25.46h-1.22c.49-8.02.28-20.84-.06-29.66h0ZM13.03,36.72l-.02-.1h17.8c-.74,3.43-3.78,5.88-7.3,5.88h-3.19c-3.48,0-6.5-2.39-7.28-5.78Zm4.5,7.57c.9.27,1.84.4,2.79.4,1.7-.03,4.38.16,5.97-.4l.35,1.37h-9.45l.35-1.37Zm-6.41,3.56h3.23l-.53,2.09c-.15.59.2,1.18.79,1.33s1.18-.2,1.33-.79l.67-2.63h10.57l.67,2.63c.15.59.75.94,1.33.79s.94-.75.79-1.33l-.53-2.09h17.05l6,11.73H5.12l6-11.73Zm-2.79,13.92h40.98v26.05h-10.34l-1.67-2.37c-.61-.86-1.62-1.33-2.67-1.26v-11.73c-.06-3.21-2.7-5.76-5.91-5.7-3.13.06-5.65,2.58-5.7,5.7v11.72c-1.05-.08-2.06.4-2.67,1.26l-1.67,2.37h-10.34v-26.04Z"/>
  <path class="cls-1" d="m29.43,26.03c.6,0,1.09-.49,1.09-1.1,0-.12-.02-.24-.06-.35l-.61-1.84c-.5-1.36-2.49-.69-2.08.7l.62,1.84c.15.44.56.74,1.03.74h0Z"/>
  <path class="cls-1" d="m24.24,25.1c.6,0,1.1-.49,1.1-1.09,0-.12-.02-.24-.06-.35l-.62-1.84c-.5-1.36-2.49-.69-2.07.7l.61,1.85c.16.44.57.73,1.04.73Z"/>
  <path class="cls-1" d="m19.04,24.2c.6,0,1.1-.49,1.1-1.09,0-.12-.02-.24-.06-.35l-.62-1.84c-.5-1.36-2.49-.69-2.07.7l.62,1.84c.15.44.57.74,1.04.74Z"/>
  <path class="cls-1" d="m13.85,25.1c.6,0,1.09-.49,1.09-1.1,0-.12-.02-.23-.05-.34l-.62-1.84c-.5-1.36-2.49-.69-2.08.7l.61,1.84c.16.44.57.73,1.04.73h0Z"/>
  <path class="cls-1" d="m26.44,27.5c-.57.19-.88.81-.69,1.39l.62,1.84c.51,1.36,2.49.68,2.07-.7l-.62-1.82c-.19-.57-.81-.89-1.38-.7,0,0,0,0,0,0Z"/>
  <path class="cls-1" d="m21.25,26.59c-.57.19-.88.81-.69,1.39l.62,1.84c.51,1.36,2.49.68,2.07-.7l-.61-1.84c-.19-.57-.81-.88-1.39-.69h0Z"/>
  <path class="cls-1" d="m16.06,25.68c-.57.19-.88.81-.69,1.39,0,0,0,0,0,0l.62,1.84c.51,1.36,2.49.68,2.08-.7l-.62-1.84c-.19-.57-.81-.88-1.39-.69,0,0,0,0,0,0Z"/>
  <path class="cls-1" d="m10.87,26.59c-.57.19-.88.81-.69,1.39l.62,1.84c.51,1.36,2.49.68,2.07-.7l-.62-1.84c-.19-.57-.81-.88-1.39-.69h0Z"/>
  <path class="cls-1" d="m32.01,28.41c-.57.19-.88.81-.69,1.39l.61,1.83c.51,1.36,2.5.68,2.08-.7l-.62-1.84c-.19-.57-.81-.88-1.39-.69h0Z"/>
  <path class="cls-1" d="m50.6,26.03c.6,0,1.1-.49,1.1-1.09,0-.12-.02-.24-.06-.35l-.61-1.84c-.5-1.36-2.49-.69-2.07.7l.61,1.84c.15.44.56.74,1.03.74Z"/>
  <path class="cls-1" d="m45.41,26.93c.6,0,1.09-.49,1.09-1.1,0-.12-.02-.24-.06-.35l-.61-1.84c-.5-1.36-2.49-.69-2.08.7l.62,1.85c.16.44.57.73,1.04.73h0Z"/>
  <path class="cls-1" d="m40.22,26.03c.6,0,1.1-.49,1.1-1.09,0-.12-.02-.24-.06-.35l-.62-1.84c-.5-1.36-2.49-.69-2.08.7l.62,1.84c.15.44.57.74,1.04.74Z"/>
  <path class="cls-1" d="m35.02,26.93c.6,0,1.1-.49,1.1-1.09,0-.12-.02-.24-.06-.35l-.62-1.84c-.5-1.36-2.49-.69-2.07.7l.62,1.85c.16.44.57.73,1.04.73Z"/>
  <path class="cls-1" d="m47.61,27.5c-.57.19-.88.81-.69,1.39,0,0,0,0,0,0l.62,1.84c.51,1.36,2.49.68,2.08-.7l-.62-1.82c-.19-.57-.81-.89-1.38-.7,0,0,0,0,0,0h0Z"/>
  <path class="cls-1" d="m42.42,28.41c-.57.19-.88.81-.69,1.39l.61,1.83c.51,1.36,2.5.68,2.08-.7l-.62-1.84c-.19-.57-.81-.88-1.39-.69h0Z"/>
  <path class="cls-1" d="m37.23,27.5c-.57.19-.88.81-.69,1.39,0,0,0,0,0,0l.62,1.84c.51,1.36,2.49.68,2.07-.7l-.61-1.82c-.19-.57-.8-.89-1.38-.7,0,0,0,0-.01,0h0Z"/>
  <path class="cls-1" d="m53.18,28.41c-.57.19-.88.81-.69,1.39,0,0,0,0,0,0l.62,1.83c.51,1.36,2.49.68,2.08-.7l-.62-1.84c-.19-.57-.81-.88-1.39-.69h0Z"/>
  <path class="cls-1" d="m13.26,18.51h11.71c1.05,1.67,2.88,2.68,4.86,2.68h19.26c7.19-.24,7.79-10.33.73-11.45.11-6.62-8.35-9.61-12.41-4.41-1.36-.31-2.78-.18-4.07.36-1.16-3.36-5.36-5.03-8.54-3.27-4.22-4.9-12.36-1.86-12.26,4.63-7.06,1.11-6.46,11.22.72,11.45Zm24.2-10.88c.49.18,1.05,0,1.32-.46,2.82-4.52,9.72-1.82,8.74,3.41-.12.59.27,1.17.86,1.29.07.01.14.02.22.02h.49c4.71.19,4.72,6.92,0,7.12h-19.26c-1.97,0-3.56-1.59-3.56-3.56s1.59-3.56,3.56-3.56h.73c.53,0,.99-.39,1.08-.91.42-2.65,3.33-4.32,5.82-3.35h0Zm-24.2,1.58h.49c.6,0,1.09-.49,1.09-1.1,0-.07,0-.14-.02-.21-.06-.31-.09-.63-.09-.95,0-2.63,2.14-4.77,4.77-4.77,1.67,0,3.22.88,4.08,2.31.31.52.99.68,1.5.37.04-.03.08-.06.12-.09,1.66-1.34,4.09-1.09,5.43.57.38.47.65,1.03.78,1.62-.79.75-1.38,1.69-1.71,2.73-3.43.04-6.11,3.23-5.56,6.62h-10.88c-4.72-.19-4.72-6.91,0-7.11Z"/>
</svg>