<?xml version="1.0" encoding="UTF-8"?>
<svg id="Layer_1" data-name="Layer 1" xmlns="http://www.w3.org/2000/svg" viewBox="0 0 90 90">
  <defs>
    <style>
      .cls-1 {
        fill: #dea179;
      }
    </style>
  </defs>
  <path class="cls-1" d="m23.16,49.73c.15.09.31.14.46.17.52.08,1.06-.15,1.34-.63.37-.63.16-1.44-.47-1.8-.63-.37-1.43-.16-1.8.47-.37.63-.16,1.44.47,1.81Z"/>
  <path class="cls-1" d="m28.5,66.73c.05-.16.07-.33.06-.49-.04-.52-.39-.99-.92-1.16-.69-.22-1.43.17-1.65.87-.22.69.17,1.43.87,1.65.69.22,1.43-.17,1.65-.87Z"/>
  <path class="cls-1" d="m26.89,70.57c.05-.16.07-.33.06-.49-.04-.52-.39-.99-.92-1.16-.69-.22-1.43.17-1.65.87-.22.69.17,1.43.87,1.65.69.22,1.43-.17,1.65-.87Z"/>
  <path class="cls-1" d="m24.36,35.27c.15-.08.29-.18.4-.3.35-.39.45-.97.21-1.47-.32-.65-1.11-.92-1.76-.6-.65.32-.92,1.11-.6,1.76.32.65,1.11.92,1.76.6h0Z"/>
  <path class="cls-1" d="m20.3,37.32c.15-.08.29-.18.4-.3.35-.39.45-.97.21-1.47-.32-.65-1.11-.92-1.76-.6-.65.32-.92,1.11-.6,1.76.32.65,1.11.92,1.76.6Z"/>
  <path class="cls-1" d="m20.55,48.46c.15-.08.29-.18.4-.3.35-.39.45-.97.21-1.47-.32-.65-1.11-.92-1.76-.6-.65.32-.92,1.11-.6,1.76.32.65,1.11.92,1.76.6h0Z"/>
  <path class="cls-1" d="m34.54,0C31.71,0,29.53,1.52,28.36,4.12c-.82-.52-1.76-.79-2.75-.79-2.33,0-4.2,1.48-5.1,3.79-.69-.38-1.47-.59-2.29-.59-2.5,0-4.43,1.85-5.03,4.6-1.03-.51-2.15-.65-3.2-.38-1.36.36-2.42,1.29-3.01,2.61-.36.81-.52,1.73-.48,2.71-.48,0-.93.05-1.29.13-1.27.29-2.29,1.12-2.87,2.33-.56,1.17-.67,2.59-.32,4.13.44,1.91,1.49,3.51,2.85,4.37-.65,2.09-.85,4.32-.6,6.6.05.42,6.83,46.12,10.06,50.66,0,0,0,0,0,0,1.54,2.53,3.62,4.25,6.17,5.09,1.25.41,2.54.62,3.82.62,4.13,0,8.22-2.07,10.94-5.74.43-.59.31-1.41-.28-1.84-.59-.43-1.41-.31-1.84.28-2.88,3.89-7.62,5.58-11.81,4.19-1.46-.48-2.7-1.33-3.73-2.55,3.64-1.51,6.12-5.11,6.12-9.17,0-5.48-4.45-9.93-9.93-9.93-.57,0-1.15.05-1.71.15-.65-3.71-1.38-7.96-2.1-12.23,4.45-1,7.76-5.01,7.76-9.69,0-5.48-4.45-9.93-9.93-9.93-.3,0-.6.02-.89.04,0-.08-.02-.16-.03-.23-.48-4.32,1.04-8.32,4.07-11.32.06-.05,4.13-3.18,6.75-4.07,8.95-3.06,17.01-3.08,18.36-.05.27.6.5,1.25.7,1.92-5.17.33-9.28,4.65-9.28,9.91,0,4.67,3.27,8.65,7.69,9.67-.35,1.25-1.94,6.67-1.96,6.75-2.2.29-4.23,1.31-5.79,2.92-1.81,1.86-2.81,4.32-2.81,6.92,0,5.35,4.25,9.72,9.55,9.92.72,4.82,1.21,9.1.63,12.56-.12.72.36,1.4,1.08,1.52.07.01.15.02.22.02.63,0,1.19-.46,1.3-1.1.7-4.13.05-9.03-.79-14.55,0,0-2.55-11.4-1.01-16.72,0,0,2.05-7.18,2.53-8.98,0,0,3.12-10.27,1.63-17.73,0,0,0,0,0,0-.21-1.08-.49-2.11-.85-3.08,1.76-2.04,2.8-5.25,2.8-8.7C41.68,3.59,38.88,0,34.54,0h0Zm-8.93,5.97c.76,0,1.43.32,1.95.91-.11.71-.17,1.47-.17,2.27,0,1.35.16,2.68.47,3.93-1.46.1-3,.32-4.56.63-.48-.94-.74-2.1-.74-3.32,0-2.65,1.23-4.43,3.05-4.43h0Zm-14.95,7.34c.77-.2,1.68.19,2.42,1.03.12.87.35,1.71.69,2.45-1.29.67-2.48,1.47-3.56,2.36-.39-.55-.7-1.22-.89-1.95-.52-1.98.01-3.54,1.33-3.89Zm3.13,54.56c4.02,0,7.29,3.27,7.29,7.29,0,3.16-2.04,5.93-4.97,6.91-1.21-2.35-1.88-5.2-2.39-7.73-.29-1.46-.7-3.65-1.18-6.38.41-.07.83-.11,1.25-.11Zm-5.98-31.7c4.02,0,7.29,3.27,7.29,7.29,0,3.39-2.36,6.3-5.56,7.08-1.01-6.07-1.81-11.15-2.28-14.36.18-.01.36-.02.54-.02Zm-1.91-11.66c-.59-.55-1.08-1.44-1.31-2.44-.21-.93-.17-1.78.13-2.39.23-.48.61-.79,1.08-.9.37-.08.92-.1,1.23.03.02,0,.04.01.06.02.31.81.73,1.55,1.22,2.18-.37.42-2.02,2.75-2.41,3.51Zm10.28-8.8c-.36-.78-.56-1.72-.56-2.71,0-2.29,1.04-3.83,2.59-3.83.67,0,1.26.29,1.72.85,0,.12,0,.25,0,.37,0,1.39.26,2.74.75,3.92-1.28.33-4.28,1.31-4.5,1.39Zm13.94,14.02c0-3.99,3.22-7.24,7.2-7.29.66,4.81-.35,10.08-1.46,14.42-3.29-.72-5.74-3.66-5.74-7.13Zm-2.87,26.26c0-3.42,2.3-6.26,5.47-7.07-.46,4.33.27,9.38,1.03,14.32-3.65-.4-6.5-3.5-6.5-7.25Zm10.22-40.63c-1.48-1.51-3.93-2.22-6.89-2.33-.36-1.19-.55-2.52-.55-3.87,0-4.08,1.69-6.52,4.51-6.52s4.51,2.44,4.51,6.52c0,2.37-.59,4.63-1.58,6.2h0Z"/>
  <path class="cls-1" d="m66.84,49.73c.63-.37.84-1.18.47-1.8-.37-.63-1.18-.84-1.8-.47-.63.37-.84,1.18-.47,1.8.28.48.82.72,1.34.63.16-.03.32-.08.46-.17Z"/>
  <path class="cls-1" d="m70.47,48.41c.63-.37.84-1.18.47-1.8-.37-.63-1.18-.84-1.8-.47-.63.37-.84,1.18-.47,1.8.28.48.82.72,1.34.63.16-.03.32-.08.46-.17Z"/>
  <path class="cls-1" d="m64.01,65.95c-.22-.7-.96-1.09-1.65-.87-.53.16-.88.64-.92,1.16-.01.16,0,.33.06.49.22.69.96,1.08,1.65.87.69-.22,1.08-.96.87-1.65Z"/>
  <path class="cls-1" d="m65.7,69.64c-.22-.7-.96-1.09-1.65-.87-.53.16-.88.64-.92,1.16-.01.16,0,.33.06.49.22.69.96,1.08,1.65.87.69-.22,1.08-.96.87-1.65Z"/>
  <path class="cls-1" d="m65.89,35.57c.65.32,1.44.05,1.76-.6.32-.65.05-1.44-.6-1.76-.65-.32-1.44-.05-1.76.6-.25.5-.15,1.08.21,1.47.11.12.24.22.4.3Z"/>
  <path class="cls-1" d="m69.7,37.51c.65.32,1.44.05,1.76-.6.32-.65.05-1.44-.6-1.76-.65-.32-1.44-.05-1.76.6-.25.5-.15,1.08.21,1.47.11.12.24.22.4.3Z"/>
  <path class="cls-1" d="m87.67,18.54c-.58-1.21-1.6-2.04-2.87-2.33-.36-.08-.82-.14-1.29-.13.04-.98-.12-1.9-.48-2.71-.59-1.33-1.66-2.25-3.01-2.61-1.05-.28-2.17-.13-3.2.38-.6-2.75-2.53-4.6-5.03-4.6-.82,0-1.6.2-2.29.59-.9-2.31-2.78-3.79-5.1-3.79-1,0-1.93.27-2.75.79-1.17-2.6-3.35-4.12-6.18-4.12-4.34,0-7.15,3.59-7.15,9.15,0,3.45,1.04,6.66,2.8,8.7-.36.97-.65,2-.85,3.08-1.55,8.21,3.67,25.01,4.16,26.71,0,0,0,0,0,0,1.65,6.13-1.01,16.72-1.01,16.72-1.08,7.03-2.3,14.99,1.33,19.9,2.71,3.67,6.81,5.74,10.94,5.74,1.28,0,2.57-.2,3.82-.62,2.55-.85,4.86-2.43,6.17-5.09,4.74-9.68,10.02-50.24,10.06-50.66.25-2.28.05-4.51-.6-6.6,1.36-.86,2.41-2.47,2.85-4.37.35-1.53.24-2.96-.32-4.13h0Zm-8.32-5.23c1.32.35,1.86,1.91,1.33,3.89-.19.73-.5,1.4-.89,1.95-1.07-.9-2.26-1.69-3.56-2.36.34-.75.57-1.58.69-2.45.73-.84,1.65-1.23,2.42-1.03Zm-7.56-4.13c1.55,0,2.59,1.54,2.59,3.83,0,.98-.2,1.92-.56,2.71-.22-.08-3.22-1.06-4.5-1.39.49-1.18.75-2.53.75-3.92,0-.13,0-.25,0-.37.45-.56,1.05-.85,1.72-.85Zm-7.4-3.2c1.82,0,3.05,1.78,3.05,4.43,0,1.22-.26,2.38-.74,3.32-1.56-.31-3.1-.53-4.56-.63.31-1.24.47-2.58.47-3.93,0-.8-.06-1.56-.17-2.27.53-.6,1.2-.91,1.95-.91Zm-8.93-3.33c2.82,0,4.51,2.44,4.51,6.52,0,1.35-.19,2.68-.55,3.87-2.96.11-5.41.82-6.89,2.33-.99-1.57-1.58-3.83-1.58-6.2,0-4.08,1.69-6.52,4.51-6.52h0Zm1.82,46.28c3.17.8,5.47,3.65,5.47,7.07,0,3.75-2.85,6.86-6.5,7.25.76-4.94,1.5-9.98,1.03-14.32h0Zm11.39,37.96c-4.19,1.39-8.93-.3-11.81-4.19-2.61-3.54-2.08-9.67-1.02-16.79,5.3-.2,9.55-4.57,9.55-9.92,0-2.6-1-5.06-2.81-6.92-1.57-1.61-3.6-2.62-5.79-2.92-.02-.08-.04-.15-.06-.23-.25-.91-.54-1.87-.84-2.88-.35-1.18-.71-2.39-1.06-3.64,4.42-1.02,7.69-5,7.69-9.67,0-1.34-.26-2.64-.78-3.87-.28-.67-1.06-.98-1.73-.7-.67.28-.98,1.06-.7,1.73.38.9.57,1.86.57,2.84,0,3.46-2.45,6.41-5.74,7.13-1.11-4.34-2.12-9.61-1.46-14.42,1.43.02,2.8.45,3.98,1.24.6.41,1.42.25,1.83-.35s.25-1.42-.35-1.83c-1.46-.99-3.15-1.56-4.91-1.67.2-.67.43-1.31.7-1.92,1.35-3.03,9.43-3.07,18.36.05,3.4,1.19,6.16,3.16,6.75,4.07,3.03,2.99,4.55,6.99,4.07,11.32,0,.07-.02.15-.03.23-.3-.03-.6-.04-.89-.04-5.48,0-9.93,4.45-9.93,9.93,0,4.68,3.31,8.69,7.76,9.69-.72,4.27-1.44,8.52-2.1,12.23-.56-.1-1.13-.15-1.71-.15-5.48,0-9.93,4.45-9.93,9.93,0,4.06,2.48,7.66,6.12,9.17-1.04,1.23-2.27,2.07-3.73,2.55h0Zm11.78-36.34c-3.2-.79-5.56-3.69-5.56-7.08,0-4.02,3.27-7.29,7.29-7.29.18,0,.36,0,.54.02-.46,3.2-1.27,8.28-2.28,14.36h0Zm-4.18,23.8c-.5,2.53-1.17,5.37-2.39,7.73-2.93-.98-4.97-3.76-4.97-6.91,0-4.02,3.27-7.29,7.29-7.29.42,0,.84.04,1.25.11-.49,2.72-.89,4.91-1.18,6.38h0Zm9.14-52.28c-.23,1-.72,1.89-1.31,2.44-.39-.76-2.04-3.09-2.41-3.51.5-.63.91-1.37,1.22-2.18.02,0,.04-.01.06-.02.3-.12.86-.11,1.23-.03.48.11.85.42,1.08.9.29.61.34,1.46.13,2.39h0Z"/>
</svg>