<?xml version="1.0" encoding="UTF-8"?>
<svg id="Layer_1" data-name="Layer 1" xmlns="http://www.w3.org/2000/svg" xmlns:xlink="http://www.w3.org/1999/xlink" viewBox="0 0 90 90">
  <defs>
    <style>
      .cls-1 {
        fill: #dea179;
      }

      .cls-2 {
        clip-path: url(#clippath);
      }

      .cls-3 {
        fill: none;
      }
    </style>
    <clipPath id="clippath">
      <rect class="cls-3" width="90" height="90"/>
    </clipPath>
  </defs>
  <g id="g3255">
    <g id="g3257">
      <g class="cls-2">
        <g id="g3259">
          <g id="g3265">
            <path id="path3267" class="cls-1" d="m64.52,70.19c.44-3.31.71-5.82.85-7.22.91.03,1.81.05,2.69.05.99,0,1.95-.02,2.88-.05.14,1.46.41,4.09.85,7.45-2.25-.08-4.68-.16-7.27-.23m-10.17-11.18c1.4-4.69,3.72-9.72,6.92-15,2.38.25,4.69.36,6.87.36,2.97,0,5.69-.19,7.97-.44,3.22,5.29,5.56,10.35,6.96,15.05-4.03.77-16.45,2.68-28.72.03m2-18.44c1.34-4.41,3.6-9.16,6.75-14.15,1.76.15,3.47.21,5.1.21,2.22,0,4.29-.12,6.1-.28,3.16,5,5.44,9.76,6.78,14.18-3.68.68-14.26,2.25-24.73.03m-39.49,29.85c.44-3.36.71-5.98.85-7.44.91.03,1.81.05,2.68.05.99,0,1.95-.02,2.89-.05.14,1.4.41,3.89.85,7.2-2.4.07-4.82.15-7.27.25m-8.19-29.85c1.33-4.41,3.6-9.16,6.75-14.15,1.76.15,3.47.21,5.1.21,2.22,0,4.29-.12,6.1-.28,3.16,5,5.44,9.76,6.78,14.18-3.68.68-14.26,2.25-24.73.03m80.12,30.7c-.15-.01-5.52-.39-14.32-.74-.46-3.46-.74-6.17-.88-7.69,6.54-.43,11.1-1.49,11.45-1.57.35-.08.64-.3.83-.61.18-.3.23-.67.14-1.01-1.33-5.02-3.69-10.43-7.03-16.08,2.39-.35,3.88-.7,4.07-.74.35-.08.64-.3.83-.6s.24-.67.14-1.01c-1.25-4.74-3.54-9.84-6.81-15.18,2.63-.35,4.3-.74,4.49-.79.35-.08.64-.3.83-.61.18-.3.24-.67.14-1.01-.79-3-2.07-6.21-3.79-9.53-.33-.65-1.13-.9-1.78-.57-.65.33-.9,1.13-.57,1.78,1.37,2.65,2.44,5.22,3.19,7.65-3.41.63-12.75,1.97-22.03.03,2.64-8.59,8.65-16.63,11.02-19.59,1.1,1.36,2.97,3.81,4.91,6.87.39.62,1.2.8,1.82.41.61-.39.8-1.2.41-1.82-3.14-4.96-6.02-8.26-6.14-8.4C69.45.16,69.09,0,68.71,0s-.74.16-.99.45c-.4.46-9.81,11.28-12.95,23.17-.09.34-.04.71.14,1.01.18.3.48.52.82.61,1.49.36,2.98.64,4.46.85-3.25,5.32-5.52,10.39-6.77,15.12-.09.34-.04.71.14,1.01.18.3.48.52.82.61,1.35.33,2.7.6,4.04.81-3.32,5.63-5.67,11.01-6.99,16.01-.09.34-.04.71.14,1.01.18.3.48.52.82.61,3.49.85,6.99,1.34,10.34,1.57-.15,1.44-.42,3.96-.87,7.29-10.01-.24-22.12-.33-35.1-.02-.44-3.32-.72-5.83-.86-7.27,6.53-.43,11.09-1.49,11.44-1.57.35-.08.64-.3.83-.61.18-.3.24-.67.14-1.01-1.33-5.02-3.69-10.43-7.03-16.08,2.39-.35,3.88-.7,4.07-.74.35-.08.64-.3.83-.6.18-.3.24-.67.14-1.01-1.25-4.74-3.54-9.84-6.81-15.18,2.63-.35,4.3-.74,4.49-.79.35-.08.64-.3.83-.61.18-.3.23-.67.14-1.01C31.83,11.73,22.42.9,22.02.45,21.77.16,21.41,0,21.03,0s-.74.16-.99.45c-.1.12-2.53,2.9-5.36,7.19-.4.61-.23,1.43.37,1.83.61.4,1.43.23,1.83-.37,1.66-2.52,3.2-4.52,4.15-5.71,2.37,2.96,8.36,10.98,11.01,19.56-3.41.63-12.75,1.97-22.03.03.9-2.92,2.26-6.03,4.05-9.26.35-.64.12-1.44-.51-1.79-.64-.35-1.44-.12-1.79.51-2.17,3.92-3.75,7.68-4.67,11.18-.09.34-.04.71.14,1.01.18.3.48.52.82.61,1.49.36,2.98.64,4.46.85-3.25,5.32-5.52,10.39-6.77,15.12-.09.34-.04.71.14,1.01.18.3.48.52.82.61,1.35.33,2.7.6,4.04.81-.9,1.52-1.73,3.04-2.49,4.53-.33.65-.07,1.44.58,1.77.19.1.4.14.6.14.48,0,.94-.26,1.18-.72.89-1.75,1.89-3.55,2.98-5.35,2.38.25,4.69.36,6.87.36,2.97,0,5.69-.19,7.97-.44,3.22,5.29,5.56,10.34,6.96,15.04-4.03.76-16.47,2.68-28.72.03.43-1.45.96-2.95,1.57-4.47.27-.68-.06-1.44-.73-1.72-.68-.27-1.44.06-1.72.73-.84,2.08-1.52,4.13-2.04,6.09-.09.34-.04.71.14,1.01.18.3.48.52.82.61,3.5.85,7,1.34,10.35,1.57-.14,1.52-.43,4.23-.88,7.7-4.28.19-8.61.43-12.95.73-.73.05-1.27.68-1.22,1.41.05.73.68,1.28,1.41,1.22,11.17-.77,22.28-1.16,32.64-1.29-2.34,3.06-7.38,9.07-14.93,15.04-.57.45-.67,1.28-.22,1.85.26.33.65.5,1.04.5.29,0,.57-.09.82-.28,9.54-7.54,15.1-15,16.6-17.15,2.15-.02,4.26-.03,6.32-.03v4.05c0,.73.59,1.32,1.32,1.32s1.32-.59,1.32-1.32v-4.04c2.16,0,4.27.02,6.33.05.7,1,2.31,3.17,4.81,5.99.26.29.62.44.99.44.31,0,.62-.11.87-.33.54-.48.59-1.32.11-1.86-1.48-1.67-2.65-3.12-3.47-4.2,19.18.31,32.39,1.24,32.63,1.25.03,0,.06,0,.1,0,.69,0,1.26-.53,1.31-1.22.05-.73-.49-1.36-1.22-1.41"/>
          </g>
          <g id="g3269">
            <path id="path3271" class="cls-1" d="m70.88,87.65c-2.59-2.05-5.1-4.27-7.46-6.6-.52-.51-1.35-.51-1.86.01-.51.52-.51,1.35.01,1.86,2.43,2.4,5.01,4.69,7.68,6.79.24.19.53.28.82.28.39,0,.77-.17,1.04-.5.45-.57.35-1.4-.22-1.85"/>
          </g>
          <g id="g3273">
            <path id="path3275" class="cls-1" d="m45,82.58c-.73,0-1.32.59-1.32,1.32v4.79c0,.73.59,1.32,1.32,1.32s1.32-.59,1.32-1.32v-4.79c0-.73-.59-1.32-1.32-1.32"/>
          </g>
          <g id="g3277">
            <path id="path3279" class="cls-1" d="m25.62,35.1c-.73,0-1.32.59-1.32,1.32s.59,1.32,1.32,1.32,1.32-.59,1.32-1.32-.59-1.32-1.32-1.32"/>
          </g>
          <g id="g3281">
            <path id="path3283" class="cls-1" d="m18.19,18.68c0-.73-.59-1.32-1.32-1.32s-1.32.59-1.32,1.32.59,1.32,1.32,1.32,1.32-.59,1.32-1.32"/>
          </g>
          <g id="g3285">
            <path id="path3287" class="cls-1" d="m15.47,54.83c0-.73-.59-1.32-1.32-1.32s-1.32.59-1.32,1.32.59,1.32,1.32,1.32,1.32-.59,1.32-1.32"/>
          </g>
          <g id="g3289">
            <path id="path3291" class="cls-1" d="m73.3,37.74c.73,0,1.32-.59,1.32-1.32s-.59-1.32-1.32-1.32-1.32.59-1.32,1.32.59,1.32,1.32,1.32"/>
          </g>
          <g id="g3293">
            <path id="path3295" class="cls-1" d="m63.24,18.68c0,.73.59,1.32,1.32,1.32s1.32-.59,1.32-1.32-.59-1.32-1.32-1.32-1.32.59-1.32,1.32"/>
          </g>
          <g id="g3297">
            <path id="path3299" class="cls-1" d="m61.83,53.51c-.73,0-1.32.59-1.32,1.32s.59,1.32,1.32,1.32,1.32-.59,1.32-1.32-.59-1.32-1.32-1.32"/>
          </g>
        </g>
      </g>
    </g>
  </g>
</svg>