<?xml version="1.0" encoding="UTF-8"?>
<svg id="Layer_1" data-name="Layer 1" xmlns="http://www.w3.org/2000/svg" viewBox="0 0 90 90">
  <defs>
    <style>
      .cls-1 {
        fill: #dea179;
      }
    </style>
  </defs>
  <path class="cls-1" d="m89.91,88.21l-13.18-34.73c-.11-.29-.32-.53-.59-.68l-14.04-7.91,4.1-6.5c2.52-3.99,3.85-8.61,3.85-13.34C70.05,11.24,58.81,0,45,0s-25.05,11.24-25.05,25.05c0,4.74,1.33,9.35,3.85,13.34.07.11,4.1,6.5,4.1,6.5l-14.04,7.91c-.27.15-.48.39-.59.68L.09,88.21c-.2.52-.05,1.11.37,1.47.42.36,1.02.42,1.51.15l21.19-11.94,21.19,11.94c.4.23.89.23,1.29,0l21.19-11.94,21.19,11.94c.2.11.43.17.65.17.31,0,.61-.11.86-.32.42-.36.57-.95.37-1.47h0Zm-43.6-19.89c.82-.29,1.54-.85,2.03-1.62.07-.11,11.29-17.9,11.29-17.9l5.72,26.9-19.03,10.72v-18.1Zm-20.29-31.34c-2.25-3.57-3.44-7.7-3.44-11.94,0-12.36,10.05-22.41,22.41-22.41s22.41,10.05,22.41,22.41c0,4.24-1.19,8.37-3.44,11.94-.18.28-17.55,27.83-17.85,28.3,0,0,0,0,0,.01-.24.39-.66.62-1.11.62s-.87-.23-1.12-.62c-.18-.28-17.58-27.88-17.85-28.31,0,0,0,0,0,0h0Zm-10.46,17.88l12.29-6.92-2.14,10.07c-.15.71.3,1.41,1.02,1.56.09.02.18.03.28.03.61,0,1.16-.42,1.29-1.04l2.07-9.76,11.29,17.9c.49.77,1.2,1.33,2.03,1.62v18.1l-19.03-10.72,2.55-11.98c.15-.71-.3-1.41-1.02-1.56-.71-.15-1.41.3-1.56,1.02l-2.62,12.35-18.15,10.23,11.72-30.88Zm52.44,20.65l-5.86-27.58,12.29,6.92,11.72,30.88-18.15-10.23Z"/>
  <path class="cls-1" d="m59.5,25.05c0-8-6.51-14.5-14.5-14.5s-14.5,6.51-14.5,14.5,6.51,14.5,14.5,14.5,14.5-6.51,14.5-14.5Zm-26.37,0c0-6.54,5.32-11.87,11.87-11.87s11.87,5.32,11.87,11.87-5.32,11.87-11.87,11.87-11.87-5.32-11.87-11.87Z"/>
  <path class="cls-1" d="m54.23,25.05c0-5.09-4.14-9.23-9.23-9.23s-9.23,4.14-9.23,9.23,4.14,9.23,9.23,9.23,9.23-4.14,9.23-9.23Zm-15.82,0c0-3.63,2.96-6.59,6.59-6.59s6.59,2.96,6.59,6.59-2.96,6.59-6.59,6.59-6.59-2.96-6.59-6.59Z"/>
</svg>