<?xml version="1.0" encoding="UTF-8"?>
<svg id="Layer_2" data-name="Layer 2" xmlns="http://www.w3.org/2000/svg" viewBox="0 0 28.59 26.52">
  <defs>
    <style>
      .cls-1 {
        fill: #fff;
      }
    </style>
  </defs>
  <g id="Layer_1-2" data-name="Layer 1">
    <path class="cls-1" d="m22.22,0H6.37C2.85,0,0,2.85,0,6.37v9.27c0,3.52,2.85,6.36,6.37,6.37h3.8c.18,0,.35.08.46.23l3.02,3.97c.15.2.39.32.64.32.25,0,.49-.12.64-.32l3.03-3.97c.11-.14.28-.23.46-.23h3.8c3.52,0,6.37-2.86,6.37-6.37V6.37C28.59,2.85,25.74,0,22.22,0h0Zm4.75,15.64c0,2.62-2.13,4.75-4.75,4.75h-3.8c-.69,0-1.33.32-1.75.86l-2.37,3.12-2.37-3.12c-.42-.55-1.07-.87-1.75-.87h-3.8c-2.62,0-4.75-2.13-4.75-4.75V6.37c0-2.62,2.13-4.75,4.75-4.75h15.85c2.62,0,4.75,2.13,4.75,4.75v9.27Zm-16.6-4.63c0,.93-.75,1.69-1.69,1.69s-1.69-.75-1.69-1.69.75-1.69,1.69-1.69,1.69.75,1.69,1.69Zm5.61,0c0,.93-.75,1.69-1.69,1.69s-1.69-.75-1.69-1.69.75-1.69,1.69-1.69,1.69.75,1.69,1.69Zm5.61,0c0,.93-.75,1.69-1.69,1.69s-1.69-.75-1.69-1.69.75-1.69,1.69-1.69,1.69.75,1.69,1.69Z"/>
  </g>
</svg>