<?xml version="1.0" encoding="UTF-8"?>
<svg id="Layer_2" data-name="Layer 2" xmlns="http://www.w3.org/2000/svg" viewBox="0 0 600 852">
  <defs>
    <style>
      .cls-1 {
        fill: #dea179;
      }
    </style>
  </defs>
  <g id="Layer_1-2" data-name="Layer 1-2">
    <g>
      <path class="cls-1" d="m256.6,89.16c84.8,0,109,96.4,114.2,205.3.1,2.7,2.2,5.1,4.9,5.5,46,6.9,87.4,5.4,121.2.9-.9-45-4-125.6-39.3-184.4C402.3,23.86,322.4-.14,256.6-.14S28.9,36.46,28.9,260.86v212c-.3,4.9-2.4,17.2-14.1,26-8.7,6.3-14.3,16.4-14.3,27.8v43.3c0,6.3,5.1,11.5,11.5,11.5h159.4c6.3,0,11.5-5.1,11.5-11.5v-43.3c0-11.4-5.6-21.5-14.2-27.8-12.7-9.5-14.1-23-14.2-27l-.8-213.8c-.1,0-1.9-168.9,102.9-168.9h0Z"/>
      <path class="cls-1" d="m580,298.26c-43.6,14.4-138.3,54.8-331.3,26.8-3.2-.5-6.3,1.8-6.6,5.1-1.7,19-4.7,78.3,22.4,103.4.7.6,1.5,1.1,2.4,1.3,7.5,2.2,45.7,11.8,101.4,1-18.4,197.4-85.6,306.7-114.4,345.3-.4.5-.8,1.1-1.2,1.6-.5.6-.9,1.2-1.4,1.8-8.5,10.5-19,18.8-29.8,19-12.4.2-21.8,5.7-14.9,19.7,10.1,20.2,46.9,49.8,94.7,6.8,41.4-37.3,180.4-163.2,197-440.7,24.7-12,51.3-29.3,81.5-60.7,0-.1,44.2-45,.2-30.4h0Z"/>
    </g>
  </g>
</svg>