<?xml version="1.0" encoding="utf-8"?>
<!-- Generator: Adobe Illustrator 27.1.1, SVG Export Plug-In . SVG Version: 6.00 Build 0)  -->
<svg version="1.1" id="Layer_1" xmlns="http://www.w3.org/2000/svg" xmlns:xlink="http://www.w3.org/1999/xlink" x="0px" y="0px"
	 viewBox="0 0 1502 1400" style="enable-background:new 0 0 1502 1400;" xml:space="preserve">
<style type="text/css">
	.st0{fill:#C4764E;}
</style>
<rect x="1408.7" y="214.6" class="st0" width="2.4" height="479.2"/>
<polygon class="st0" points="85.3,310.1 85.3,74.1 1125.9,74.1 1125.9,71.9 83,71.9 83,310.1 "/>
<rect x="416.7" y="1303.3" class="st0" width="583.3" height="2.2"/>
<polygon class="st0" points="1148,74.1 1408.7,74.1 1408.7,194.1 1411,194.1 1411,71.9 1148,71.9 "/>
<polygon class="st0" points="383.5,1303.3 85.3,1303.3 85.3,1165.8 83,1165.8 83,1305.5 383.5,1305.5 "/>
<polygon class="st0" points="1408.7,704.1 1408.7,1303.3 1033.1,1303.3 1033.1,1305.5 1411,1305.5 1411,704.1 "/>
<rect x="83" y="724.6" class="st0" width="2.4" height="431"/>
<rect x="83" y="320.3" class="st0" width="2.4" height="373.5"/>
</svg>
