<?xml version="1.0" encoding="UTF-8"?>
<svg id="Layer_1" data-name="Layer 1" xmlns="http://www.w3.org/2000/svg" viewBox="0 0 359 77">
  <defs>
    <style>
      .cls-1 {
        fill: #fff0cd;
      }
    </style>
  </defs>
  <path class="cls-1" d="m119.43,11.56h-16.03c-.41,0-.75.34-.75.75v2.84c0,.75.37,1.41.93,1.82.85.63.93,1.55.93,1.79v22.73c0,.24-.08,1.16-.93,1.79-.56.41-.93,1.07-.93,1.82v2.84c0,.41.34.75.75.75h10.44c.41,0,.75-.34.75-.75v-2.84c0-.75-.37-1.41-.93-1.82-.85-.63-.93-1.55-.93-1.79v-4.5h6.71c5.39,0,9.76-4.37,9.76-9.76v-5.91c0-5.39-4.37-9.76-9.76-9.76Zm1.22,15.49c0,2.28-1.85,4.13-4.13,4.13h-3.8v-13.78h3.8c2.28,0,4.13,1.85,4.13,4.13v5.52Zm-24.37-15.49h-24.2c-.41,0-.75.34-.75.75v2.84c0,.75.37,1.41.93,1.82.86.64.93,1.57.93,1.8v22.72c0,.23-.08,1.16-.93,1.8-.56.41-.93,1.07-.93,1.82v2.84c0,.41.34.75.75.75h24.2c.41,0,.75-.34.75-.75v-10.74c0-.41-.34-.75-.75-.75h-6.43c-.41,0-.75.34-.75.75v4.6c0,.41-.34.75-.75.75h-6.94v-10.05h7.73c.41,0,.75-.34.75-.75v-4.6c0-.41-.34-.75-.75-.75h-7.73v-9h6.94c.41,0,.75.34.75.75v3.78c0,.41.34.75.75.75h6.43c.41,0,.75-.34.75-.75v-9.62c0-.41-.34-.75-.75-.75Zm-30.81,24.89h-5.91c-.41,0-.75.34-.75.75v4.6c0,.41-.34.75-.75.75h-6.66v-23.79c0-.24.08-1.16.93-1.79.56-.41.93-1.07.93-1.82v-2.84c0-.41-.34-.75-.75-.75h-10.44c-.41,0-.75.34-.75.75v2.84c0,.75.37,1.41.93,1.82.85.63.93,1.55.93,1.79v22.73c0,.24-.08,1.16-.93,1.79-.56.41-.93,1.07-.93,1.82v2.84c0,.41.34.75.75.75h23.39c.41,0,.75-.34.75-.75v-10.74c0-.41-.34-.75-.75-.75Zm-30.52-24.89H10.75c-.41,0-.75.34-.75.75v2.84c0,.75.37,1.41.93,1.82.86.64.93,1.57.93,1.8v22.72c0,.23-.08,1.16-.93,1.8-.56.41-.93,1.07-.93,1.82v2.84c0,.41.34.75.75.75h24.2c.41,0,.75-.34.75-.75v-10.74c0-.41-.34-.75-.75-.75h-6.43c-.41,0-.75.34-.75.75v4.6c0,.41-.34.75-.75.75h-6.94v-10.05h7.73c.41,0,.75-.34.75-.75v-4.6c0-.41-.34-.75-.75-.75h-7.73v-9h6.94c.41,0,.75.34.75.75v3.78c0,.41.34.75.75.75h6.43c.41,0,.75-.34.75-.75v-9.62c0-.41-.34-.75-.75-.75Zm126.62,0h-10.44c-.41,0-.75.34-.75.75v2.84c0,.75.37,1.41.93,1.82.85.63.93,1.55.93,1.79v7.64h-8.48v-7.64c0-.24.08-1.16.93-1.79.56-.41.93-1.07.93-1.82v-2.84c0-.41-.34-.75-.75-.75h-10.44c-.41,0-.75.34-.75.75v2.84c0,.75.37,1.41.93,1.82.85.63.93,1.55.93,1.79v22.73c0,.24-.08,1.16-.93,1.79-.56.41-.93,1.07-.93,1.82v2.84c0,.41.34.75.75.75h10.44c.41,0,.75-.34.75-.75v-2.84c0-.75-.37-1.41-.93-1.82-.85-.63-.93-1.55-.93-1.79v-8.99h8.48v8.99c0,.24-.08,1.16-.93,1.79-.56.41-.93,1.07-.93,1.82v2.84c0,.41.34.75.75.75h10.44c.41,0,.75-.34.75-.75v-2.84c0-.75-.37-1.41-.93-1.82-.85-.63-.93-1.55-.93-1.79v-22.73c0-.24.08-1.16.93-1.79.56-.41.93-1.07.93-1.82v-2.84c0-.41-.34-.75-.75-.75Zm155.66,0h-8.85c-.41,0-.75.34-.75.75v2.84c0,.75.37,1.41.93,1.82.12.09.22.19.32.28,0,0,.02.02.02.03.07.08.13.16.19.25.02.02.03.05.05.08.05.08.09.16.13.24,0,.02.02.04.03.06.03.08.06.16.08.23.01.04.02.08.03.12.02.06.03.12.04.18.02.12.04.25.04.39v15.12l-9.88-21.93c-.12-.27-.39-.44-.68-.44h-8.84c-.41,0-.75.34-.75.75v2.84c0,.75.37,1.41.93,1.82.85.63.93,1.55.93,1.79v22.73c0,.24-.08,1.16-.93,1.79-.56.41-.93,1.07-.93,1.82v2.84c0,.41.34.75.75.75h8.85c.41,0,.75-.34.75-.75v-2.84c0-.75-.37-1.41-.93-1.82-.85-.63-.93-1.55-.93-1.79v-15.09l9.89,21.84c.12.27.39.44.68.44h6.97c.41,0,.75-.34.75-.75v-29.12c0-.14.01-.27.04-.39,0-.05.03-.12.04-.18.01-.04.02-.08.03-.12.02-.07.05-.15.08-.23,0-.02.02-.04.03-.06.04-.08.08-.16.13-.23.02-.03.03-.05.05-.08.06-.08.12-.17.19-.25,0,0,.02-.02.02-.03.09-.1.2-.19.32-.28.56-.41.93-1.07.93-1.82v-2.84c0-.41-.34-.75-.75-.75Zm-50.79,0h-27.34c-.41,0-.75.34-.75.75v9.62c0,.41.34.75.75.75h4.66c.41,0,.75-.34.75-.75v-3.78c0-.41.34-.75.75-.75h3.41v24.09c0,.24-.08,1.16-.93,1.79-.56.41-.93,1.07-.93,1.82v2.84c0,.41.34.75.75.75h10.44c.41,0,.75-.34.75-.75v-2.84c0-.75-.37-1.41-.93-1.82-.85-.63-.93-1.55-.93-1.79v-24.09h3.4c.41,0,.75.34.75.75v3.78c0,.41.34.75.75.75h4.66c.41,0,.75-.34.75-.75v-9.62c0-.41-.34-.75-.75-.75Zm16.52,0h-10.44c-.41,0-.75.34-.75.75v2.84c0,.75.37,1.41.93,1.82.85.63.93,1.55.93,1.79v22.68c0,.14-.01.27-.04.39,0,.05-.03.12-.04.18-.01.04-.02.08-.03.12-.02.07-.05.15-.08.23,0,.02-.02.04-.03.06-.04.08-.08.16-.13.23-.02.03-.03.05-.05.08-.06.08-.12.17-.19.25,0,0-.02.02-.02.03-.09.1-.2.19-.32.28-.56.41-.93,1.07-.93,1.82v2.84c0,.41.34.75.75.75h10.44c.41,0,.75-.34.75-.75v-2.84c0-.75-.37-1.41-.93-1.82-.85-.63-.93-1.55-.93-1.79v-22.73c0-.24.08-1.16.93-1.79.56-.41.93-1.07.93-1.82v-2.84c0-.41-.34-.75-.75-.75Zm-49.37,0h-8.85c-.41,0-.75.34-.75.75v2.84c0,.75.37,1.41.93,1.82.12.09.22.19.32.28,0,0,.02.02.02.03.07.08.13.16.19.25.02.02.03.05.05.08.05.08.09.16.13.24,0,.02.02.04.03.06.03.08.06.16.08.23.01.04.02.08.03.12.02.06.03.12.04.18.02.12.04.25.04.39v15.12l-9.88-21.93c-.12-.27-.39-.44-.68-.44h-8.84c-.41,0-.75.34-.75.75v2.84c0,.75.37,1.41.93,1.82.85.63.93,1.55.93,1.79v22.73c0,.24-.08,1.16-.93,1.79-.56.41-.93,1.07-.93,1.82v2.84c0,.41.34.75.75.75h8.85c.41,0,.75-.34.75-.75v-2.84c0-.75-.37-1.41-.93-1.82-.85-.63-.93-1.55-.93-1.79v-15.09l9.89,21.84c.12.27.39.44.68.44h6.97c.41,0,.75-.34.75-.75v-29.12c0-.14.01-.27.04-.39,0-.05.03-.12.04-.18.01-.04.02-.08.03-.12.02-.07.05-.15.08-.23,0-.02.02-.04.03-.06.04-.08.08-.16.13-.23.02-.03.03-.05.05-.08.06-.08.12-.17.19-.25,0,0,.02-.02.02-.03.09-.1.2-.19.32-.28.56-.41.93-1.07.93-1.82v-2.84c0-.41-.34-.75-.75-.75Zm108.22,11.12h6.43c.41,0,.75-.34.75-.75v-9.62c0-.41-.34-.75-.75-.75h-24.2c-.41,0-.75.34-.75.75v2.84c0,.75.37,1.41.93,1.82.86.64.93,1.57.93,1.8v22.72c0,.23-.08,1.16-.93,1.8-.56.41-.93,1.07-.93,1.82v2.84c0,.41.34.75.75.75h24.2c.41,0,.75-.34.75-.75v-10.74c0-.41-.34-.75-.75-.75h-6.43c-.41,0-.75.34-.75.75v4.6c0,.41-.34.75-.75.75h-6.94v-10.05h7.73c.41,0,.75-.34.75-.75v-4.6c0-.41-.34-.75-.75-.75h-7.73v-9h6.94c.41,0,.75.34.75.75v3.78c0,.41.34.75.75.75Zm-158.21-6.23c5.55,0,7.14,6.31,7.48,13.44,0,.18.14.33.32.36,3.01.45,5.73.35,7.94.06-.06-2.94-.26-8.23-2.57-12.08-3.63-6.05-8.86-7.62-13.16-7.62s-14.91,2.4-14.91,17.09v13.88c-.02.32-.16,1.13-.93,1.7-.56.41-.93,1.07-.93,1.82v2.84c0,.41.34.75.75.75h10.44c.41,0,.75-.34.75-.75v-2.84c0-.75-.37-1.41-.93-1.82-.83-.62-.92-1.51-.93-1.77l-.05-14s-.12-11.06,6.75-11.06Zm21.17,13.69c-2.86.95-9.05,3.58-21.69,1.76-.21-.03-.41.12-.43.33-.11,1.24-.31,5.13,1.47,6.77.05.04.1.07.16.09.49.14,2.99.77,6.64.06-1.2,12.93-5.6,20.08-7.49,22.61-.03.04-.05.07-.08.11-.03.04-.06.08-.09.12-.55.69-1.25,1.23-1.95,1.25-.81.01-1.43.37-.98,1.29.66,1.32,3.07,3.26,6.2.44,2.71-2.45,11.81-10.68,12.9-28.86,1.61-.78,3.36-1.92,5.34-3.97,0,0,2.9-2.94.01-1.98Z"/>
</svg>