<?xml version="1.0" encoding="UTF-8"?>
<svg id="Layer_2" data-name="Layer 2" xmlns="http://www.w3.org/2000/svg" viewBox="0 0 599 852.15">
  <defs>
    <style>
      .cls-1 {
        fill: #fff;
      }

      .cls-2 {
        opacity: .05;
      }
    </style>
  </defs>
  <g id="Layer_1-2" data-name="Layer 1">
    <g class="cls-2">
      <path class="cls-1" d="m256.14,89.3c84.75,0,108.99,96.43,114.17,205.27.13,2.74,2.19,5.06,4.91,5.47,45.95,6.92,87.44,5.42,121.22.85-.89-44.97-4.03-125.62-39.29-184.45C401.75,23.99,321.89,0,256.14,0S28.39,36.62,28.39,261.02v212.03c-.34,4.94-2.37,17.25-14.15,26.03-8.59,6.25-14.24,16.32-14.24,27.75v43.33c0,6.33,5.13,11.47,11.47,11.47h159.39c6.33,0,11.47-5.13,11.47-11.47v-43.33c0-11.44-5.64-21.5-14.24-27.75-12.68-9.45-14.08-23-14.21-27.02l-.78-213.83s-1.76-168.92,103.04-168.92Z"/>
      <path class="cls-1" d="m579.46,298.35c-43.63,14.44-138.28,54.75-331.31,26.81-3.24-.47-6.27,1.79-6.57,5.06-1.73,18.96-4.71,78.32,22.4,103.41.69.64,1.49,1.08,2.39,1.34,7.53,2.18,45.72,11.79,101.35.95-18.36,197.42-85.59,306.67-114.4,345.28-.4.55-.81,1.09-1.22,1.63-.47.62-.9,1.18-1.35,1.76-8.46,10.52-19.04,18.85-29.75,19.04-12.37.22-21.83,5.66-14.91,19.65,10.14,20.15,46.95,49.83,94.66,6.78,41.38-37.35,180.39-163.17,196.97-440.73,24.66-11.96,51.28-29.31,81.54-60.67,0,0,44.28-44.9.2-30.31Z"/>
    </g>
  </g>
</svg>