<?xml version="1.0" encoding="UTF-8"?>
<svg id="Layer_2" data-name="Layer 2" xmlns="http://www.w3.org/2000/svg" viewBox="0 0 369.21 60.77">
  <defs>
    <style>
      .cls-1 {
        fill: #fff;
      }
    </style>
  </defs>
  <g id="Layer_1-2" data-name="Layer 1">
    <path class="cls-1" d="m119.18,1.05h-17.46c-.45,0-.82.37-.82.82v3.09c0,.82.4,1.53,1.02,1.98.92.69,1.01,1.69,1.01,1.95v24.76c0,.26-.09,1.26-1.01,1.95-.61.45-1.02,1.16-1.02,1.98v3.09c0,.45.37.82.82.82h11.37c.45,0,.82-.37.82-.82v-3.09c0-.82-.4-1.53-1.02-1.98-.92-.69-1.01-1.69-1.01-1.95v-4.9h7.3c5.87,0,10.63-4.76,10.63-10.63v-6.44c0-5.87-4.76-10.63-10.63-10.63Zm1.33,16.87c0,2.48-2.01,4.5-4.5,4.5h-4.14V7.41h4.14c2.48,0,4.5,2.01,4.5,4.5v6.01ZM93.97,1.05h-26.36c-.45,0-.82.37-.82.82v3.09c0,.82.4,1.53,1.02,1.98.93.69,1.01,1.71,1.02,1.96v24.74c0,.25-.08,1.26-1.02,1.96-.61.45-1.02,1.16-1.02,1.98v3.09c0,.45.37.82.82.82h26.36c.45,0,.82-.37.82-.82v-11.69c0-.45-.37-.82-.82-.82h-7.01c-.45,0-.82.37-.82.82v5.01c0,.45-.37.82-.82.82h-7.56v-10.95h8.42c.45,0,.82-.37.82-.82v-5.01c0-.45-.37-.82-.82-.82h-8.42V7.41h7.56c.45,0,.82.37.82.82v4.11c0,.45.37.82.82.82h7.01c.45,0,.82-.37.82-.82V1.86c0-.45-.37-.82-.82-.82Zm-33.56,27.1h-6.44c-.45,0-.82.37-.82.82v5.01c0,.45-.37.82-.82.82h-7.25V8.88c0-.26.09-1.26,1.01-1.95.61-.45,1.02-1.16,1.02-1.98V1.86c0-.45-.37-.82-.82-.82h-11.37c-.45,0-.82.37-.82.82v3.09c0,.82.4,1.53,1.02,1.98.92.69,1.01,1.69,1.01,1.95v24.76c0,.26-.09,1.26-1.01,1.95-.61.45-1.02,1.16-1.02,1.98v3.09c0,.45.37.82.82.82h25.48c.45,0,.82-.37.82-.82v-11.69c0-.45-.37-.82-.82-.82ZM27.18,1.05H.82c-.45,0-.82.37-.82.82v3.09c0,.82.4,1.53,1.02,1.98.93.69,1.01,1.71,1.02,1.96v24.74c0,.25-.08,1.26-1.02,1.96-.61.45-1.02,1.16-1.02,1.98v3.09c0,.45.37.82.82.82h26.36c.45,0,.82-.37.82-.82v-11.69c0-.45-.37-.82-.82-.82h-7.01c-.45,0-.82.37-.82.82v5.01c0,.45-.37.82-.82.82h-7.56v-10.95h8.42c.45,0,.82-.37.82-.82v-5.01c0-.45-.37-.82-.82-.82h-8.42V7.41h7.56c.45,0,.82.37.82.82v4.11c0,.45.37.82.82.82h7.01c.45,0,.82-.37.82-.82V1.86c0-.45-.37-.82-.82-.82Zm137.9,0h-11.37c-.45,0-.82.37-.82.82v3.09c0,.82.4,1.53,1.02,1.98.92.69,1.01,1.69,1.01,1.95v8.32h-9.24v-8.32c0-.26.09-1.26,1.01-1.95.61-.45,1.02-1.16,1.02-1.98V1.86c0-.45-.37-.82-.82-.82h-11.37c-.45,0-.82.37-.82.82v3.09c0,.82.4,1.53,1.02,1.98.92.69,1.01,1.69,1.01,1.95v24.76c0,.26-.09,1.26-1.01,1.95-.61.45-1.02,1.16-1.02,1.98v3.09c0,.45.37.82.82.82h11.37c.45,0,.82-.37.82-.82v-3.09c0-.82-.4-1.53-1.02-1.98-.92-.69-1.01-1.69-1.01-1.95v-9.79h9.24v9.79c0,.26-.09,1.26-1.01,1.95-.61.45-1.02,1.16-1.02,1.98v3.09c0,.45.37.82.82.82h11.37c.45,0,.82-.37.82-.82v-3.09c0-.82-.4-1.53-1.02-1.98-.92-.69-1.01-1.69-1.01-1.95V8.88c0-.26.09-1.26,1.01-1.95.61-.45,1.02-1.16,1.02-1.98V1.86c0-.45-.37-.82-.82-.82Zm169.53,0h-9.64c-.45,0-.82.37-.82.82v3.09c0,.82.4,1.53,1.02,1.98.13.1.24.2.34.31,0,0,.02.02.03.03.08.09.15.18.21.27.02.03.04.05.05.08.05.09.1.17.14.26.01.02.02.04.03.07.04.09.07.17.09.25.01.04.02.08.04.13.02.07.04.13.05.19.02.13.04.27.04.43v16.46l-10.76-23.88c-.13-.29-.42-.48-.75-.48h-9.63c-.45,0-.82.37-.82.82v3.09c0,.82.4,1.53,1.02,1.98.92.69,1.01,1.69,1.01,1.95v24.76c0,.26-.09,1.26-1.01,1.95-.61.45-1.02,1.16-1.02,1.98v3.09c0,.45.37.82.82.82h9.64c.45,0,.82-.37.82-.82v-3.09c0-.82-.4-1.53-1.02-1.98-.92-.69-1.01-1.69-1.01-1.95v-16.44l10.77,23.79c.13.29.42.48.74.48h7.59c.45,0,.82-.37.82-.82V8.95c0-.15.02-.29.04-.43.01-.06.03-.13.05-.19.01-.04.02-.09.04-.13.03-.08.06-.16.09-.25.01-.02.02-.05.03-.07.04-.08.08-.17.14-.26.02-.03.04-.06.05-.08.06-.09.13-.18.21-.27,0,0,.02-.02.03-.03.1-.11.21-.21.34-.31.61-.45,1.02-1.16,1.02-1.98V1.86c0-.45-.37-.82-.82-.82Zm-55.31,0h-29.78c-.45,0-.82.37-.82.82v10.47c0,.45.37.82.82.82h5.08c.45,0,.82-.37.82-.82v-4.11c0-.45.37-.82.82-.82h3.71v26.23c0,.26-.09,1.26-1.01,1.95-.61.45-1.02,1.16-1.02,1.98v3.09c0,.45.37.82.82.82h11.37c.45,0,.82-.37.82-.82v-3.09c0-.82-.4-1.53-1.02-1.98-.92-.69-1.01-1.69-1.01-1.95V7.41h3.7c.45,0,.82.37.82.82v4.11c0,.45.37.82.82.82h5.08c.45,0,.82-.37.82-.82V1.86c0-.45-.37-.82-.82-.82Zm17.99,0h-11.37c-.45,0-.82.37-.82.82v3.09c0,.82.4,1.53,1.02,1.98.92.69,1.01,1.69,1.01,1.95v24.7c0,.15-.02.29-.04.43-.01.06-.03.13-.05.19-.01.04-.02.09-.04.13-.03.08-.06.16-.09.25-.01.02-.02.05-.03.07-.04.08-.08.17-.14.26-.02.03-.04.06-.05.08-.06.09-.13.18-.21.27,0,0-.02.02-.03.03-.1.11-.21.21-.34.31-.61.45-1.02,1.16-1.02,1.98v3.09c0,.45.37.82.82.82h11.37c.45,0,.82-.37.82-.82v-3.09c0-.82-.4-1.53-1.02-1.98-.92-.69-1.01-1.69-1.01-1.95V8.88c0-.26.09-1.26,1.01-1.95.61-.45,1.02-1.16,1.02-1.98V1.86c0-.45-.37-.82-.82-.82Zm-53.77,0h-9.64c-.45,0-.82.37-.82.82v3.09c0,.82.4,1.53,1.02,1.98.13.1.24.2.34.31,0,0,.02.02.03.03.08.09.15.18.21.27.02.03.04.05.05.08.05.09.1.17.14.26.01.02.02.04.03.07.04.09.07.17.09.25.01.04.02.08.04.13.02.07.04.13.05.19.02.13.04.27.04.43v16.46l-10.76-23.88c-.13-.29-.42-.48-.75-.48h-9.63c-.45,0-.82.37-.82.82v3.09c0,.82.4,1.53,1.02,1.98.92.69,1.01,1.69,1.01,1.95v24.76c0,.26-.09,1.26-1.01,1.95-.61.45-1.02,1.16-1.02,1.98v3.09c0,.45.37.82.82.82h9.64c.45,0,.82-.37.82-.82v-3.09c0-.82-.4-1.53-1.02-1.98-.92-.69-1.01-1.69-1.01-1.95v-16.44l10.77,23.79c.13.29.42.48.74.48h7.59c.45,0,.82-.37.82-.82V8.95c0-.15.02-.29.04-.43.01-.06.03-.13.05-.19.01-.04.02-.09.04-.13.03-.08.06-.16.09-.25.01-.02.02-.05.03-.07.04-.08.08-.17.14-.26.02-.03.04-.06.05-.08.06-.09.13-.18.21-.27,0,0,.02-.02.03-.03.1-.11.21-.21.34-.31.61-.45,1.02-1.16,1.02-1.98V1.86c0-.45-.37-.82-.82-.82Zm117.87,12.11h7.01c.45,0,.82-.37.82-.82V1.86c0-.45-.37-.82-.82-.82h-26.36c-.45,0-.82.37-.82.82v3.09c0,.82.4,1.53,1.02,1.98.93.69,1.01,1.71,1.02,1.96v24.74c0,.25-.08,1.26-1.02,1.96-.61.45-1.02,1.16-1.02,1.98v3.09c0,.45.37.82.82.82h26.36c.45,0,.82-.37.82-.82v-11.69c0-.45-.37-.82-.82-.82h-7.01c-.45,0-.82.37-.82.82v5.01c0,.45-.37.82-.82.82h-7.56v-10.95h8.42c.45,0,.82-.37.82-.82v-5.01c0-.45-.37-.82-.82-.82h-8.42V7.41h7.56c.45,0,.82.37.82.82v4.11c0,.45.37.82.82.82Zm-172.31-6.79c6.04,0,7.77,6.88,8.14,14.64,0,.2.16.36.35.39,3.28.49,6.24.39,8.64.06-.06-3.21-.29-8.96-2.8-13.15-3.95-6.59-9.65-8.3-14.33-8.3s-16.24,2.61-16.24,18.61v15.12c-.02.35-.17,1.23-1.01,1.86-.61.45-1.02,1.16-1.02,1.98v3.09c0,.45.37.82.82.82h11.37c.45,0,.82-.37.82-.82v-3.09c0-.82-.4-1.53-1.02-1.98-.9-.67-1-1.64-1.01-1.93l-.06-15.25s-.13-12.05,7.35-12.05Zm23.06,14.91c-3.11,1.03-9.86,3.9-23.63,1.91-.23-.03-.45.13-.47.36-.12,1.35-.34,5.59,1.6,7.37.05.05.11.08.17.1.54.16,3.26.84,7.23.07-1.31,14.08-6.1,21.87-8.16,24.62-.03.04-.06.08-.09.12-.03.04-.06.08-.1.13-.6.75-1.36,1.34-2.12,1.36-.88.02-1.56.4-1.06,1.4.72,1.44,3.35,3.55,6.75.48,2.95-2.66,12.86-11.64,14.05-31.43,1.76-.85,3.66-2.09,5.81-4.33,0,0,3.16-3.2.01-2.16Z"/>
  </g>
</svg>