<?xml version="1.0" encoding="UTF-8"?>
<svg id="Layer_2" data-name="Layer 2" xmlns="http://www.w3.org/2000/svg" viewBox="0 0 44.79 44.79">
  <defs>
    <style>
      .cls-1 {
        fill: #fff;
      }
    </style>
  </defs>
  <g id="Layer_1-2" data-name="Layer 1">
    <path class="cls-1" d="m41.34,44.79c-.91,0-1.8-.38-2.42-1.02l-9.23-9.2c-3.15,2.18-6.92,3.34-10.74,3.34C8.48,37.9,0,29.42,0,18.95S8.48,0,18.95,0s18.95,8.48,18.95,18.95c0,3.82-1.16,7.59-3.34,10.74l9.23,9.23c.62.62,1,1.51,1,2.42,0,1.88-1.56,3.45-3.45,3.45ZM18.95,6.89c-6.65,0-12.06,5.41-12.06,12.06s5.41,12.06,12.06,12.06,12.06-5.41,12.06-12.06-5.41-12.06-12.06-12.06Z"/>
  </g>
</svg>